<?xml version="1.0" encoding="UTF-8" standalone="no"?>
<svg
   width="500"
   height="500"
   version="1.1"
   id="svg1"
   sodipodi:docname="island_gamma.svg"
   inkscape:version="1.4 (86a8ad7, 2024-10-11)"
   xmlns:inkscape="http://www.inkscape.org/namespaces/inkscape"
   xmlns:sodipodi="http://sodipodi.sourceforge.net/DTD/sodipodi-0.dtd"
   xmlns="http://www.w3.org/2000/svg"
   xmlns:svg="http://www.w3.org/2000/svg">
  <defs
     id="defs1" />
  <sodipodi:namedview
     id="namedview1"
     pagecolor="#ffffff"
     bordercolor="#000000"
     borderopacity="0.25"
     inkscape:showpageshadow="2"
     inkscape:pageopacity="0.0"
     inkscape:pagecheckerboard="true"
     inkscape:deskcolor="#d1d1d1"
     inkscape:zoom="1.00144"
     inkscape:cx="54.920914"
     inkscape:cy="145.29078"
     inkscape:window-width="2560"
     inkscape:window-height="1351"
     inkscape:window-x="-9"
     inkscape:window-y="-9"
     inkscape:window-maximized="1"
     inkscape:current-layer="svg1" />
  <path
     style="fill:#000000;stroke-width:0.377953;stroke-dasharray:0.377953, 0.377953;paint-order:stroke fill markers"
     d="m 257.62901,359.98163 c -2.40901,6.63713 -4.871,13.36865 -8.48777,19.47196 -1.88387,3.17901 -4.44088,5.9124 -6.49066,8.98706 -3.80566,5.70849 -8.20229,11.55982 -14.97843,13.97986 -4.09854,1.46377 -9.19136,1.42749 -13.48059,0.99857 -5.39191,-0.53919 -10.42201,-2.68792 -15.47771,-4.49353 -0.84402,-0.30144 -1.61462,-0.83824 -2.4964,-0.99856 -0.98246,-0.17863 -2.00058,0.0829 -2.99569,0 -1.16494,-0.0971 -4.16291,-0.94234 -5.49209,-0.49929 -5.65364,1.88455 -10.0929,7.58539 -15.47771,10.48491 -0.78911,0.4249 -1.69479,0.59775 -2.49641,0.99856 -3.14436,1.57218 -5.82291,3.91002 -8.98706,5.49209 -1.62431,0.81215 -1.56481,0.067 -2.99568,1.49784 -1.79871,1.79871 -1.07893,1.794 -2.49641,3.49497 -2.78277,3.33933 -1.61625,0.61769 -2.4964,1.49784 -0.26315,0.26315 -0.23614,0.73542 -0.49928,0.99857 -0.82103,0.82102 -6.14621,3.76414 -6.98994,3.99424 -0.96338,0.26274 -1.99712,0 -2.99568,0 -4.6126,0 -10.42105,0.70828 -14.47915,-1.99712 -0.82099,-0.54733 -1.86294,-2.72296 -2.99569,-2.49641 -4.32581,0.86516 -6.83193,4.23046 -9.98562,6.98994 -0.94396,0.82596 -2.02832,1.2716 -2.99569,1.99712 -0.37658,0.28244 -0.73745,0.6069 -0.99856,0.99856 -0.0923,0.13848 0.14886,0.42486 0,0.49929 -0.29771,0.14885 -0.70085,-0.14886 -0.99856,0 -0.14886,0.0744 0.14885,0.42485 0,0.49928 -0.61375,0.30687 -1.40134,0.15883 -1.99713,0.49928 -4.35925,2.491 0.50311,0.79732 -2.4964,1.99712 -1.33344,0.53338 -3.07875,1.26205 -4.49353,1.49785 -1.149139,0.19152 -2.341688,-0.16476 -3.494968,0 -1.534173,0.21916 -2.972428,1.19362 -4.493529,1.49784 -0.326391,0.0653 -0.721611,-0.18464 -0.998562,0 -0.309641,0.20643 -0.3816,0.64552 -0.499281,0.99856 -0.277926,0.83378 -0.06821,2.81398 0.499281,3.49497 1.000301,1.20036 5.971481,4.84163 7.489215,5.49209 3.977524,1.70465 -0.241277,-0.74056 1.997124,1.49784 0.18622,0.18623 6.67855,1.96599 6.98993,1.99713 4.82139,0.48213 9.7019,-0.63108 14.47915,-0.99857 4.92927,-0.37917 10.03123,0 14.97844,0 3.37652,0 7.75781,-0.7106 10.98418,0.49929 1.60642,0.6024 4.00039,2.00633 4.99281,3.49496 0.20643,0.30964 0.23614,0.73542 0.49928,0.99856 1.03303,1.03303 -0.0404,-1.5786 0.99856,0.49929 0.0744,0.14885 -0.11768,0.38159 0,0.49928 0.40882,0.40881 4.06294,-0.35081 4.49353,-0.49928 3.8859,-1.33997 7.63023,-3.06233 11.48347,-4.49353 0.79619,-0.29573 9.01287,-2.52223 9.98562,-3.49497 0.26314,-0.26315 0.23613,-0.73542 0.49928,-0.99856 0.90151,-0.90152 2.68005,-1.47776 3.49496,-2.49641 0.77993,-0.97491 0.14869,-1.64653 0.99857,-2.4964 0.4243,-0.42431 1.07353,-0.57426 1.49784,-0.99857 0.58841,-0.5884 0.86604,-1.45557 1.49784,-1.99712 0.56511,-0.48437 1.37784,-0.58571 1.99713,-0.99856 0.88667,-0.59112 1.56087,-1.48684 2.4964,-1.99713 4.91552,-2.68119 13.26583,-2.9514 18.4734,-0.99856 0.56185,0.2107 0.9463,0.76219 1.49784,0.99856 1.88106,0.80617 3.1312,0.12696 4.99281,0.49929 1.21948,0.24389 0.98855,0.82546 1.99713,1.49784 1.09291,0.72861 4.36817,-0.60107 4.99281,-0.99856 1.09662,-0.69785 1.91415,-1.77539 2.99568,-2.49641 1.4257,-0.95046 3.05495,-1.56556 4.49353,-2.4964 3.9963,-2.58584 7.76659,-5.51428 11.48347,-8.48778 1.98424,-1.5874 2.82524,-3.32453 4.49353,-4.99281 0.4243,-0.42431 1.10733,-0.54296 1.49784,-0.99856 0.63155,-0.73681 0.91559,-1.72007 1.49784,-2.49641 1.36469,-1.81958 3.96547,-3.97986 5.99138,-4.99281 2.14224,-1.07112 3.30068,-0.94999 5.49209,-1.49784 6.64221,-1.66056 9.42004,-1.49785 16.47627,-1.49785 4.87239,0 7.76878,0.84682 11.48346,-2.4964 3.79862,-3.41875 4.50556,-8.3414 6.98994,-12.48203 0.24219,-0.40364 0.78805,-0.57753 0.99856,-0.99856 0.22329,-0.44657 -0.35304,-1.1448 0,-1.49784 0.42431,-0.42431 1.18912,-0.48402 1.49784,-0.99856 0.25688,-0.42813 -0.13716,-1.01778 0,-1.49785 0.82302,-2.88054 3.01934,-5.90793 4.49353,-8.48778 1.16055,-2.03095 2.76392,-3.05218 4.49353,-4.49352 3.26089,-2.71741 -0.31013,-0.18915 2.99569,-3.49497 5.29157,-5.29158 -5.87458,9.72225 4.99281,-5.49209 0.56405,-0.78967 0.91559,-1.72007 1.49784,-2.49641 0.56487,-0.75316 1.69941,-1.10398 1.99713,-1.99712 0.96449,-2.89347 -1.46794,-6.44697 -1.99713,-8.98706 -0.45418,-2.18006 -2.43502,-14.40957 -1.99712,-17.47484 0.42231,-2.9562 3.91219,-5.95855 6.49065,-6.98993 0.9773,-0.39092 2.05423,-0.52784 2.99569,-0.99856 2.1072,-1.0536 8.40074,-5.55926 9.48634,-7.48922 3.93974,-7.00399 4.65666,-17.73201 4.99281,-25.46333 0.13735,-3.15913 -0.39221,-6.34865 0,-9.48634 0.15028,-1.20225 0.77528,-2.30411 0.99856,-3.49497 0.27773,-1.48125 0.0498,-3.05507 0.49928,-4.49353 0.40022,-1.2807 1.32104,-2.33597 1.99713,-3.49497 0.48897,-0.83823 0.87659,-1.7509 1.49784,-2.4964 0.84951,-1.01941 3.71217,-0.46882 4.49353,0 1.1146,0.66876 1.9654,1.70388 2.99568,2.4964 1.13477,0.8729 2.48264,1.48407 3.49497,2.49641 1.34178,1.34178 2.29838,3.02081 3.49497,4.49353 1.04284,1.28349 3.87511,4.39466 4.99281,5.99137 0.5565,0.79501 0.99856,1.66427 1.49784,2.49641 0.83214,0.6657 1.8307,1.16499 2.49641,1.99712 0.69742,0.87178 0.93531,2.03134 1.49784,2.99569 0.66571,0.99856 1.33142,1.99712 1.99712,2.99568 0.33286,0.33286 0.73745,0.6069 0.99857,0.99857 0.0923,0.13847 -0.11768,0.38159 0,0.49928 0.0877,0.0877 5.15094,1.74935 5.99137,2.4964 2.36394,2.10128 7.65575,8.34 9.48634,10.98418 1.43101,2.06702 2.82704,5.53942 3.49497,7.9885 0.0673,0.24692 0.623,4.33558 0.99856,4.99281 0.35032,0.61306 1.08743,0.92328 1.49784,1.49784 0.43261,0.60565 0.54477,1.40719 0.99856,1.99713 3.93035,5.10945 8.11971,7.31272 13.97987,8.98706 2.72457,0.77844 7.60096,2.92119 10.4849,0.99856 0.58751,-0.39167 0.93298,-1.07419 1.49785,-1.49784 0.77634,-0.58226 1.77509,-0.84867 2.4964,-1.49785 2.56924,-2.31231 2.41751,-3.39634 4.49353,-5.99137 1.43211,-1.79014 3.72194,-3.08651 4.99281,-4.99281 0.4512,-0.6768 -0.86005,-0.86005 -0.99856,-0.99856 -0.23536,-0.23537 0.10526,-0.68279 0,-0.99856 -0.67386,-2.0216 -1.77925,-2.59614 -1.99712,-4.99281 -0.45319,-4.98504 0.24302,-9.80156 1.99712,-14.47915 0.34074,-0.90864 1.19097,-1.57578 1.49784,-2.49641 0.15789,-0.47366 -0.15788,-1.02418 0,-1.49784 0.18976,-0.56927 0.77571,-0.9407 0.99857,-1.49785 0.12361,-0.30904 -0.14886,-0.70084 0,-0.99856 0.21051,-0.42103 0.71612,-0.62198 0.99856,-0.99856 1.09607,-1.46142 1.48246,-3.47189 2.4964,-4.99281 1.05258,-1.57887 2.40679,-2.93899 3.49497,-4.49353 2.11771,-3.02531 4.02679,-6.21521 6.49065,-8.98706 0.14206,-0.15981 3.42621,-2.75451 2.49641,-3.99425 -1.50499,-2.00665 -3.4378,-4.05409 -5.49209,-5.49209 -0.79501,-0.5565 -1.7596,-0.8663 -2.49641,-1.49784 -0.9112,-0.78103 -1.14851,-2.14707 -1.99712,-2.99569 -0.26315,-0.26314 -0.8071,-0.18017 -0.99856,-0.49928 -0.35305,-0.58841 -0.25835,-1.35462 -0.49929,-1.99712 -1.05217,-2.80581 -1.49784,-3.83506 -1.49784,-6.98994 0,-0.83213 -0.21441,-1.69236 0,-2.4964 1.44902,-5.43384 5.62527,-8.75414 7.9885,-13.48059 0.98183,-1.96366 1.07952,-0.90409 1.49784,-2.99569 0.60205,-3.01025 -1.19685,-4.08982 -1.99712,-6.49065 -0.15789,-0.47366 0.13716,-1.01777 0,-1.49784 -0.20447,-0.71565 -0.83711,-1.27057 -0.99857,-1.99713 -0.48783,-2.19527 0,-5.23372 0,-7.48921 0,-0.88319 0.35154,-3.60707 0.49929,-4.49353 0.0612,-0.36708 0.4381,-0.63149 0.49928,-0.99856 0.10944,-0.65665 -0.10944,-1.34048 0,-1.99713 0.18354,-1.10123 1.19113,-1.92221 1.49784,-2.99568 0.13716,-0.48008 -0.12109,-1.01347 0,-1.49785 0.0571,-0.22833 0.33285,-0.33285 0.49928,-0.49928 0.16643,-0.33285 0.4263,-0.63365 0.49928,-0.99856 0.19252,-0.96257 0.0534,-2.60319 0.49928,-3.49497 0.13227,-0.76381 1.18207,-0.86629 1.49785,-1.49784 0.51765,-1.0353 0.19066,-4.34811 0,-5.49209 -0.17305,-1.03826 -0.91115,-1.94675 -0.99857,-2.99569 -0.19091,-2.29101 -0.27454,-6.01687 0,-8.48778 0.35165,-3.1648 1.0817,-3.32823 1.99713,-6.98993 0.12109,-0.48437 -0.0821,-1.00536 0,-1.49784 0.33454,-2.00723 1.21114,-3.98443 1.49784,-5.99138 0.75619,-5.29332 -1.29781,-15.47849 0.49928,-19.97124 0.74007,-1.85016 3.68364,-5.27582 4.49353,-6.49065 0.23095,-0.34642 -0.18775,-1.12234 0,-1.49784 0.61928,-1.23857 1.91493,-2.33202 2.49641,-3.49497 0.14885,-0.29772 -0.12362,-0.68952 0,-0.99856 0.22285,-0.55715 0.85302,-0.9157 0.99856,-1.49785 0.40364,-1.61458 -0.15068,-3.33537 0,-4.99281 0.6908,-7.59884 0.49928,1.99151 0.49928,-6.49065 0,-1.77762 0.63442,-6.08523 0,-7.9885 -0.15789,-0.47366 -0.99856,0 -1.49784,0 -2.13457,0 -4.36852,-0.19292 -6.49066,0 -2.44648,0.22241 -3.57168,0.39679 -5.49209,1.99713 -0.28589,0.23824 -0.23613,0.73542 -0.49928,0.99856 -0.11768,0.11768 -0.34139,-0.0526 -0.49928,0 -0.85025,0.28341 -1.69479,0.59775 -2.49641,0.99856 -2.572,1.286 -4.1221,3.07256 -6.98993,1.99713 -1.96899,-0.73837 -2.98647,-0.98935 -4.49353,-2.49641 -1.19937,-1.19937 -0.88873,-1.57441 -1.49784,-2.99569 -4.09034,-9.54412 0.98477,-20.525683 -1.49785,-30.456139 -0.71405,-2.856226 -3.19701,-4.245903 -4.99281,-6.490654 -0.37485,-0.468569 -0.57425,-1.073535 -0.99856,-1.497843 -0.4243,-0.424307 -1.07353,-0.574254 -1.49784,-0.998562 -0.88607,-0.886073 -2.43257,-3.479911 -2.99569,-4.493529 -0.88374,-1.590741 -2.12939,-4.156325 -2.4964,-5.991373 -0.1632,-0.815975 0,-1.66427 0,-2.496405 0,-1.111544 0.54651,-7.394752 0,-8.487777 -0.0744,-0.148857 -0.3816,0.117681 -0.49928,0 -0.5052,-0.505195 -0.70609,-2.008952 -0.99857,-2.496405 -0.50097,-0.834956 -1.78208,-1.486896 -2.4964,-1.997125 -1.05772,-0.755514 -1.83308,-1.9151 -2.99569,-2.496405 -2.48685,-1.243428 -7.34752,2.14016 -9.48634,2.995686 -3.72197,1.488788 -6.66817,0.1692 -9.98562,0.998562 -3.0374,0.759352 -7.11618,3.484528 -9.48634,4.992811 -0.44997,0.991236 -1.38337,0.192405 -1.99712,0.499281 -1.45224,0.726121 -2.37769,2.456835 -3.99425,2.995686 -2.66187,0.88729 -7.618,-0.716725 -10.4849,0 -1.937,0.48425 -7.5289,2.536088 -8.98706,3.994248 -2.31902,2.319016 -4.2424,8.427976 -2.4964,11.483464 1.25147,2.190084 1.47796,1.724294 2.99568,3.494967 4.92292,5.743401 11.66609,11.580624 12.98131,19.471961 0.48288,2.897284 -2.46324,3.428633 -3.49497,5.492091 -0.14886,0.29771 0.14886,0.70085 0,0.99856 -0.26835,0.53671 -0.76777,0.94394 -0.99856,1.49785 -0.60726,1.45741 -0.93106,3.0199 -1.49784,4.49352 -0.26719,0.69468 -0.81805,1.27507 -0.99857,1.99713 -0.36328,1.45312 0.18579,3.00725 0,4.49353 -0.76048,6.08386 -4.82874,8.01832 -10.4849,6.98993 -2.31519,-0.42094 -4.44963,-1.97517 -6.49065,-2.99568 -0.88686,-0.44343 -2.24433,-0.74648 -2.99569,-1.49785 -0.26314,-0.26314 -0.29285,-0.68892 -0.49928,-0.99856 0.0498,-0.9891 -0.73542,-0.23614 -0.99856,-0.49928 -1.99768,-1.99768 -3.6884,-5.80402 -4.49353,-8.48778 -0.63087,-2.10291 -0.72124,-4.4197 -1.49784,-6.49065 -1.00786,-2.687624 -0.76303,-1.414909 -2.49641,-3.494968 -1.11335,-1.336023 -1.11067,-2.165289 -1.99712,-3.494967 -0.39167,-0.587503 -1.05675,-0.94648 -1.49785,-1.497843 -0.42696,-0.533707 -1.8472,-3.743913 -1.99712,-4.49353 -0.81419,-4.070957 3.39164,-7.299912 1.99712,-11.483464 -1.22427,-3.67281 -4.57674,-6.324216 -5.49209,-9.98562 -1.22814,-4.912575 -0.375,-9.989921 -0.99856,-14.978431 -0.37538,-3.003032 -5.86145,-9.513717 -8.48778,-11.483464 -2.19529,-1.646468 -6.25535,-2.742135 -8.98706,-1.997124 -1.07708,0.293751 -1.95367,1.097069 -2.99568,1.497843 -1.13085,0.434941 -2.38779,0.506482 -3.49497,0.998562 -0.91781,0.407915 -1.60418,1.55101 -2.4964,1.997124 -1.02176,0.51088 -7.20028,-0.151471 -8.48778,0 -16.4196,1.931718 1.48069,0.0031 -9.48634,1.997124 -0.61023,0.110952 -2.74605,-0.08321 -3.49497,0 -3.24342,0.360381 -6.20143,0.499281 -9.48634,0.499281 -2.57517,0 -4.2255,-0.20347 -6.49065,-1.497843 -0.521,-0.297714 -0.92087,-0.833713 -1.49784,-0.998562 -0.6401,-0.182884 -1.36558,0.210515 -1.99713,0 -0.44657,-0.148857 -0.5615,-0.823739 -0.99856,-0.998562 -3.79461,-1.517843 -14.17615,4.417779 -18.4734,5.492091 -4.38384,1.095961 -7.79978,-2.869876 -10.98418,-4.99281 -5.97474,-3.98316 -12.01934,-2.971289 -17.97412,0.998562 -1.77335,1.182236 -3.48575,2.487188 -4.99281,3.994248 -0.58841,0.588409 -0.8759,1.444284 -1.49784,1.997124 -0.89699,0.797318 -2.14707,1.14851 -2.99569,1.997125 -0.52629,0.526288 -0.50845,1.436993 -0.99856,1.997124 -0.70174,0.801985 -1.87701,1.129967 -2.49641,1.997124 -0.2902,0.406282 0.0821,1.005355 0,1.497843 -0.41184,2.471038 -1.86471,5.390046 -0.99856,7.988497 0.11768,0.353045 0.4263,0.633646 0.49928,0.998562 0.16112,0.805603 -0.52535,5.728693 0,5.991372 0.29772,0.148857 0.70085,-0.148857 0.99856,0 0.14886,0.07443 -0.0404,0.337823 0,0.499281 0.60741,2.429632 1.9862,4.269762 2.99569,6.490654 0.72105,1.586315 1.14397,4.139654 2.49641,5.492091 1.59627,1.596275 0.59056,-1.043285 2.4964,1.497843 0.19971,0.266283 -0.17125,0.713142 0,0.998562 0.36328,0.605467 0.99856,0.998562 1.49784,1.497843 0.49929,0.665708 1.09938,1.266597 1.49785,1.997124 0.60693,1.112707 0.89091,2.382261 1.49784,3.494968 0.75304,1.380576 4.23338,4.690639 4.49353,5.991372 0.56426,2.821324 -0.37982,1.283424 -1.99712,2.496404 -0.0632,0.0474 -1.95635,2.33331 -1.99713,2.49641 -0.81419,3.25678 0.15149,6.73175 -0.49928,9.98562 -0.073,0.36491 -0.40902,0.63753 -0.49928,0.99856 -0.27412,1.09646 0.27411,2.39851 0,3.49497 -0.14554,0.58214 -0.85303,0.91569 -0.99856,1.49784 -0.3831,1.53239 0.2229,3.43247 0,4.99281 -0.30282,2.11973 -1.06704,4.35658 0,6.49065 1.11184,2.2237 2.30527,1.57488 3.99425,1.99713 3.32661,0.83165 6.97284,0.49928 10.4849,0.49928 1.33141,0 2.73115,-0.42103 3.99425,0 0.56926,0.18975 0.96113,0.73021 1.49784,0.99856 3.33204,1.66602 3.85732,1.31457 5.49209,4.99281 3.10548,6.98733 1.0299,9.08037 -1.49784,14.97843 -0.89369,2.08528 -1.99713,3.65938 -1.99713,5.99137 0,2.58544 3.42417,4.56534 4.99281,5.99138 2.27224,2.06567 7.53378,8.30039 7.9885,11.48346 0.47251,3.30759 -0.81365,9.13498 0,11.98275 0.16485,0.57697 0.85303,0.91569 0.99856,1.49784 0.13052,0.52209 0.27722,6.15828 0,6.98993 -0.089,0.26699 -2.73026,0.96539 -2.99568,0.99857 -2.96147,0.37018 -6.22493,-0.57714 -8.98706,-1.49785 -10.35242,-3.4508 -10.1,-10.9446 -15.47771,-18.4734 -1.44022,-2.0163 -3.55183,-3.07149 -4.99282,-4.99281 -0.22328,-0.29771 -0.23613,-0.73541 -0.49928,-0.99856 -0.26314,-0.26314 -0.73541,-0.23614 -0.99856,-0.49928 -0.42431,-0.42431 -0.54697,-1.1027 -0.99856,-1.49784 -0.90318,-0.79029 -2.14707,-1.14851 -2.99569,-1.99713 -0.52628,-0.52629 -0.5857,-1.37784 -0.99856,-1.99712 -2.51829,-3.77745 -3.93877,-4.82639 -5.49209,-9.48634 -0.57471,-1.72412 -0.56724,-5.1967 -0.99856,-6.49065 -0.10526,-0.31578 -0.72161,0.18463 -0.99856,0 -0.88668,-0.59112 -1.70789,-1.28029 -2.49641,-1.99713 -2.84488,-2.58626 -6.56366,-5.45853 -8.98706,-8.48778 -2.73455,-3.41818 -4.38967,-7.20242 -6.49065,-10.98418 -0.94256,-1.69661 -2.20743,-3.21923 -2.99569,-4.99281 -0.27869,-0.62705 -0.1924,-1.38337 -0.49928,-1.99712 -0.37214,-0.74429 -1.05681,-1.29148 -1.49784,-1.99713 -0.39447,-0.63115 -0.56596,-1.39147 -0.99856,-1.99712 -2.0762,-2.90667 -5.0293,-5.93982 -7.9885,-7.9885 -1.1032,-0.76375 -2.40982,-1.20793 -3.49497,-1.99712 -0.76138,-0.55374 -1.19877,-1.49816 -1.99712,-1.99713 -1.62475,-1.01547 -2.6345,-0.36542 -3.99425,-1.99712 -0.47648,-0.57178 -0.60409,-1.36597 -0.99856,-1.99712 -0.89989,-1.43983 -3.52081,-4.249304 -3.99425,-5.492096 -1.65441,-4.342818 -1.39716,-9.083621 -2.49641,-13.480588 -0.44837,-1.793498 -1.47544,-2.564897 -2.4964,-3.994248 -1.65745,-2.320433 -2.91208,-4.909207 -4.99281,-6.989935 -4.1488,-4.148801 -12.74159,-7.402693 -18.4734,-5.492091 -2.96642,0.988806 -5.64117,2.700336 -8.48778,3.994248 -2.1244,0.965639 -1.91858,2.070054 -4.49353,1.497843 -5.19829,-1.155176 0.22206,-0.758115 -4.99281,-2.496405 -4.941689,-1.647231 -15.371966,5.937956 -17.974114,9.48634 -0.880285,1.200389 -1.331416,2.662832 -1.997124,3.994248 -0.665708,1.331416 -1.462759,2.6049 -1.997124,3.994248 -1.691243,4.397232 0.08921,13.266226 -0.499281,17.974116 -0.399344,3.19475 -2.394703,7.46703 -4.49353,9.98562 -1.239134,1.48696 -3.249073,2.13131 -3.994248,3.99425 -0.14512,0.3628 -0.172761,2.65016 0,2.99569 0.210515,0.42103 0.692217,0.64116 0.998562,0.99856 1.234916,1.44073 2.15319,3.15175 3.494967,4.49353 0.753531,0.75353 1.704312,1.28424 2.496406,1.99712 3.178872,2.86099 2.00442,2.20486 4.99281,5.49209 0.791613,0.87078 1.821545,1.53232 2.496405,2.49641 2.115786,3.02255 3.121748,11.03977 2.496405,14.47915 -0.160323,0.88178 -0.781192,1.62693 -0.998562,2.4964 -0.57084,2.28336 -0.577531,4.67427 -0.998562,6.98994 -0.216739,1.19206 -0.799375,2.29984 -0.998562,3.49497 -0.766837,4.60102 -1.354876,7.47051 -2.995686,11.98274 -0.850006,2.33752 -0.876904,3.54869 -2.496405,5.49209 -0.128251,0.1539 -1.454348,0.31489 -0.998562,0.99856 2.813779,4.22067 6.696201,7.62198 9.98562,11.48347 7.668108,9.00169 0.185153,0.40715 5.492092,7.98849 1.932368,2.76053 1.097491,0.19786 2.496405,2.99569 0.932322,1.86465 1.240259,3.97307 1.997124,5.99137 1.165714,3.10857 1.094724,0.86548 1.497844,4.49353 0.0735,0.66164 -0.13056,1.34435 0,1.99713 0.0462,0.23079 0.42485,0.27599 0.49928,0.49928 0.19969,0.59906 0.2775,3.43924 0,3.99425 -0.21052,0.42103 -0.78805,0.57753 -0.99856,0.99856 -0.23504,0.47006 -0.946038,4.2309 -0.998564,4.49353 -0.340761,1.7038 -1.282327,3.26868 -1.497843,4.99281 -0.22707,1.81656 0.107502,3.66455 0,5.49209 -0.224577,3.81781 -0.852885,7.1462 0,10.98418 0.148857,0.66986 0.244434,1.36001 0.499281,1.99713 0.254896,0.63724 1.09124,0.59196 1.497843,0.99856 0.526293,0.52629 0.332853,1.66427 0.998563,1.99712 0.44657,0.22329 1.06971,-0.25688 1.49784,0 0.28984,0.1739 3.12346,3.56082 3.49497,3.99425 1.22538,1.42961 2.75435,2.57722 3.99425,3.99425 3.27965,3.74818 0.011,0.38821 2.4964,3.49497 0.29406,0.36757 0.84971,0.55199 0.99857,0.99856 0.21051,0.63154 -0.16146,1.35129 0,1.99712 0.18051,0.72206 0.8371,1.27057 0.99856,1.99713 0.53113,2.39007 0.2846,9.6311 -0.49928,11.98274 -0.54185,1.62554 -1.82144,2.9186 -2.49641,4.49353 -0.41463,0.96747 -0.45701,2.09311 -0.99856,2.99569 -0.24219,0.40364 -0.81313,0.56589 -0.99856,0.99856 -0.33429,0.78 -0.165,1.7164 -0.49928,2.4964 -0.21049,0.49113 -1.94926,2.04499 -0.99857,2.99569 0.88199,0.88198 5.3202,1.70451 6.49066,1.99712 4.74177,1.18545 9.1186,3.52338 13.97987,1.49785 3.19934,-1.33306 6.44407,-3.67957 8.98705,-5.99137 2.61529,-2.37753 1.7015,-2.37816 4.49353,-3.49497 3.8364,-1.53456 13.10165,6.9336 17.97412,6.49065 7.13392,-0.64854 2.01157,0.19394 7.48922,-1.99712 1.27423,-0.5097 2.76674,-0.38481 3.99425,-0.99856 0.74428,-0.37215 1.25284,-1.12571 1.99712,-1.49785 1.55411,-0.77705 3.4387,-0.72079 4.99281,-1.49784 1.73595,-0.86798 3.41347,-1.86759 4.99281,-2.99569 0.57457,-0.4104 0.89908,-1.12361 1.49784,-1.49784 0.76001,-0.47501 1.70961,-0.5694 2.49641,-0.99856 1.05358,-0.57468 1.88788,-1.53554 2.99568,-1.99713 0.93447,-0.38936 1.99968,-0.31819 2.99569,-0.49928 2.52424,-0.45895 4.42236,-0.85586 6.98994,0 4.15844,1.38615 7.90117,5.25701 12.48202,4.49353 10.45229,-1.74205 15.01228,-13.43087 24.46477,-16.97555 1.13337,-0.42502 3.82463,0 4.99281,0 5.82945,0 12.65268,1.77804 17.47484,4.99281 0.4379,0.29193 1.18207,0.0783 1.49784,0.49928 0.44657,0.59543 0.6293,1.3509 0.99856,1.99712 0.29772,0.521 0.86839,0.91207 0.99857,1.49785 0.46934,2.11203 0,4.3271 0,6.49065 0,2.27884 0.32901,5.18608 0,7.48921 -0.26489,1.85419 -1.04362,3.67517 -1.49785,5.4921 -0.27221,1.08885 -0.26268,6.72725 0.49928,7.48921 3.26132,3.26131 -1.59419,-2.9913 1.99713,1.49784 0.37485,0.46857 0.53758,1.1137 0.99856,1.49785 0.57177,0.47648 1.42535,0.52208 1.99712,0.99856 0.88106,0.73422 3.31732,6.62031 2.49641,7.9885 -0.9987,1.6645 -5.53361,4.84022 -7.48922,5.49209 -0.44935,0.14978 -1.04849,-0.14979 -1.49784,0 -0.95806,0.31935 -1.66602,1.08265 -2.4964,1.49784 -0.14886,0.0744 -0.3816,-0.11768 -0.49929,0 -0.38764,0.38765 -0.13984,3.65448 0,4.49353 0.73695,4.42168 0.73836,9.05043 0,13.48059 -0.16416,0.98497 0.70609,2.28959 0,2.99568 -0.11768,0.11769 -0.44665,-0.15788 -0.49928,0 -0.56736,1.70209 0,5.63397 0,7.48922"
     id="path1" />
</svg>
