<?xml version="1.0" encoding="UTF-8" standalone="no"?>
<svg
   width="200"
   height="200"
   version="1.1"
   id="svg1"
   sodipodi:docname="moon_gamma_1.svg"
   inkscape:version="1.4 (86a8ad7, 2024-10-11)"
   xmlns:inkscape="http://www.inkscape.org/namespaces/inkscape"
   xmlns:sodipodi="http://sodipodi.sourceforge.net/DTD/sodipodi-0.dtd"
   xmlns="http://www.w3.org/2000/svg"
   xmlns:svg="http://www.w3.org/2000/svg">
  <defs
     id="defs1" />
  <sodipodi:namedview
     id="namedview1"
     pagecolor="#ffffff"
     bordercolor="#000000"
     borderopacity="0.25"
     inkscape:showpageshadow="2"
     inkscape:pageopacity="0.0"
     inkscape:pagecheckerboard="true"
     inkscape:deskcolor="#d1d1d1"
     inkscape:zoom="2.8284271"
     inkscape:cx="172.1805"
     inkscape:cy="129.22376"
     inkscape:window-width="2560"
     inkscape:window-height="1351"
     inkscape:window-x="-9"
     inkscape:window-y="-9"
     inkscape:window-maximized="1"
     inkscape:current-layer="svg1" />
  <path
     style="fill:#000000;stroke-width:0.377953;stroke-dasharray:0.377953, 0.377953;paint-order:stroke fill markers"
     d="m 114.19775,26.516504 c -8.02024,-0.517348 -16.009609,-1.225224 -24.041635,0 -12.884071,1.965367 -27.357773,7.810486 -37.830213,15.202796 -1.00757,0.711226 -0.707107,7.849065 -0.707107,8.131728 0,7.597663 0.348875,13.939851 2.828427,21.213204 2.781838,8.160057 10.313961,21.216511 8.838835,29.698488 -1.191474,6.85097 -9.268774,10.27976 -14.142136,13.78858 -4.474657,3.22175 -9.017814,7.80458 -12.020815,12.37437 -1.79964,2.73858 -4.474908,6.63079 -2.828427,10.25305 0.482134,1.06069 6.533949,7.59461 7.071068,8.13172 5.740978,5.74098 10.383458,10.18886 18.738329,10.60661 2.942603,0.14713 5.929149,0.4629 8.838835,0 3.950562,-0.6285 10.165293,-4.4633 13.788582,-5.65686 8.874795,-2.92346 33.176297,-8.15509 42.426407,-15.20279 1.19315,-0.90907 2.39245,-1.90659 3.18198,-3.18199 0.78464,-1.2675 0.92659,-2.83393 1.41421,-4.24264 0.75775,-2.18904 2.68731,-8.36408 4.5962,-9.89949 4.079,-3.28094 8.71849,-5.86081 13.43503,-8.13173 3.79014,-1.82488 8.87801,-0.65541 12.72792,-1.06066 2.16113,-0.22749 4.38102,-0.52531 6.36396,-1.41421 3.98563,-1.78667 11.15655,-12.468551 12.02082,-16.617012 0.31247,-1.499861 0.051,-3.06498 0,-4.596194 -0.0669,-2.005818 0.18359,-4.076692 -0.35356,-6.010408 -1.27857,-4.602861 -4.44087,-8.538669 -7.07107,-12.374368 -2.82842,-4.12479 -5.24949,-8.560764 -8.48528,-12.374369 -4.74745,-5.595214 -6.47148,-6.246413 -12.02081,-10.606602 -5.46714,-4.295609 -2.1193,-2.15374 -7.77818,-5.656854 -5.34023,-3.305857 -1.54801,-1.232668 -7.07106,-3.181981 -0.84636,-0.298715 -1.60898,-0.824505 -2.47488,-1.06066 -0.45479,-0.124034 -0.94755,0.06667 -1.41421,0 -1.24413,-0.177733 -1.001,-0.500501 -2.12132,-1.06066 -0.45195,-0.225972 -2.18668,-0.418908 -2.47488,-0.707107 -1.30416,-1.304167 0.84667,-0.142662 -1.06066,-1.414213 -1.72285,-1.148568 -4.02769,-2.521077 -6.0104,-3.181981 -0.67082,-0.223607 -1.44142,0.194257 -2.12132,0 -0.66075,-0.188784 -1.11585,-0.843353 -1.76777,-1.06066 -0.81394,-0.271314 -1.64992,-0.471404 -2.47487,-0.707107 z"
     id="path1" />
</svg>
