<?xml version="1.0" encoding="UTF-8" standalone="no"?>
<!-- Created with Inkscape (http://www.inkscape.org/) -->

<svg
   width="500mm"
   height="500mm"
   viewBox="0 0 500 500"
   version="1.1"
   id="svg1"
   inkscape:version="1.4 (86a8ad7, 2024-10-11)"
   sodipodi:docname="central_island.svg"
   xml:space="preserve"
   xmlns:inkscape="http://www.inkscape.org/namespaces/inkscape"
   xmlns:sodipodi="http://sodipodi.sourceforge.net/DTD/sodipodi-0.dtd"
   xmlns="http://www.w3.org/2000/svg"
   xmlns:svg="http://www.w3.org/2000/svg"><sodipodi:namedview
     id="namedview1"
     pagecolor="#ffffff"
     bordercolor="#000000"
     borderopacity="0.25"
     inkscape:showpageshadow="2"
     inkscape:pageopacity="0.0"
     inkscape:pagecheckerboard="true"
     inkscape:deskcolor="#d1d1d1"
     inkscape:document-units="mm"
     inkscape:zoom="0.35930417"
     inkscape:cx="784.85034"
     inkscape:cy="1228.7639"
     inkscape:window-width="2560"
     inkscape:window-height="1351"
     inkscape:window-x="-9"
     inkscape:window-y="-9"
     inkscape:window-maximized="1"
     inkscape:current-layer="layer3"
     showguides="true"
     showborder="true" /><defs
     id="defs1" /><g
     inkscape:groupmode="layer"
     id="layer1"
     inkscape:label="Layer 3"
     style="fill:#000000"><path
       style="fill:#196a49;fill-opacity:1;stroke-width:0.1;stroke-dasharray:0.1, 0.1;paint-order:stroke fill markers"
       d="m 157.77125,100.55964 c 3.05909,-0.19526 3.44961,1.95262 5.14188,-0.976306 1.69227,-2.928922 2.0177,-3.514704 2.0177,-3.970314 0,-0.455609 0.13018,-0.585784 -0.58578,-1.301744 -0.71596,-0.715958 -0.84614,-0.520698 -0.78105,-1.497005 0.0651,-0.976307 0.58578,-0.520697 0.0651,-2.147874 -0.5207,-1.62718 -0.91122,-0.390525 -1.17157,-3.319447 -0.26035,-2.928921 -0.13018,-5.922928 -0.0651,-6.769063 0.0651,-0.846132 2.14788,-2.212961 2.92892,-1.692264 0.78105,0.520697 1.49701,1.301742 2.01771,1.952614 0.52069,0.65087 0.32543,0.45561 0.91122,1.106483 0.58578,0.650869 0.84613,1.236654 1.62717,1.106479 0.78105,-0.130172 0.84614,0.06509 1.10649,-0.325435 0.26034,-0.390522 0.78104,-0.650872 0.39052,-1.692267 -0.39052,-1.041392 -0.45561,-0.650869 -0.45561,-1.497004 0,-0.846132 -0.0651,-0.45561 0.19526,-1.692265 0.26035,-1.236657 1.04139,-0.130175 0.32544,-1.692267 -0.71596,-1.562089 -0.97631,-1.366829 -1.0414,-2.343136 -0.0651,-0.976308 -0.13017,-0.390523 -0.0651,-1.301742 0.0651,-0.91122 0.19527,-1.23666 0.0651,-1.82244 -0.0844,-0.379705 1.23618,-2.079734 3.35351,-3.095923 1.14916,-0.551524 3.28002,-0.862066 3.80608,-0.809306 1.27567,0.127939 2.40822,0 3.5147,0.65087 1.10649,0.650872 3.51471,2.408224 2.86384,2.668574 -0.65087,0.260348 -1.82245,0.406793 -3.0591,0.79732 -1.23666,0.390522 1.30175,2.196691 1.69227,3.042824 0.39052,0.846132 -1.36683,1.171567 1.56209,1.887526 2.92892,0.71596 3.38453,1.887527 4.62119,0.260348 1.23665,-1.627177 0.9763,-0.520695 1.95261,-2.668572 0.97631,-2.147877 1.0414,-1.041394 1.30175,-3.059096 0.26034,-2.017702 0.19526,-0.91122 0.32543,-2.994009 0.13018,-2.082787 0,-1.627177 0.32544,-3.775054 0.32543,-2.147877 2.08278,-4.816449 2.79874,-5.337146 0.71596,-0.520697 0.26204,-0.930283 1.36683,-0.91122 2.0835,0.03595 2.47332,-0.520697 2.86384,0.781045 0.39052,1.301745 0.65087,1.236657 0.45561,2.798747 -0.19526,1.562092 -0.26035,2.473311 -0.71596,3.319446 -0.45561,0.846132 -0.97631,0.19526 -0.84613,2.798747 0.13017,2.603486 0.19526,3.059096 0.19526,3.970316 0,0.91122 0.5207,0.715957 -0.78105,2.212962 -1.30174,1.497004 -1.95261,2.278052 -2.47331,3.319446 -0.5207,1.041392 -0.91122,1.497002 -0.97631,2.863834 -0.0651,1.36683 2.27805,3.775054 3.5798,5.988016 1.30174,2.212964 1.29482,-0.434838 1.98517,-1.171215 0.69036,-0.736378 1.10457,-0.414213 1.51878,-0.506259 0.41421,-0.09205 0.32216,-0.828424 0.92047,-0.506259 0.59831,0.322164 0.82843,0.184094 1.47275,1.150588 0.64434,0.966496 0.92048,1.564801 1.05855,2.301179 0.13807,0.736375 0.13807,0.92047 0.5983,1.610823 0.46024,0.690354 0.73638,0.230119 0.73638,1.472756 0,1.242636 -1.19661,1.93299 -1.24263,2.439249 -0.046,0.506259 -0.0921,-0.552284 -0.73638,1.058542 -0.64433,1.610823 -0.82843,2.071061 -0.7824,2.761414 0.046,0.690353 0.13807,0.552281 0.36818,1.334683 0.23012,0.782399 6.21319,1.979012 6.67342,2.623343 0.46024,0.644328 0.92047,1.104558 1.38071,1.748888 0.46024,0.64434 0.82842,0.36819 0.46024,1.7489 -0.36819,1.38071 -0.64433,1.65685 -0.55229,2.85346 0.0921,1.19661 0.82843,1.5648 1.10457,2.20913 0.27614,0.64433 1.74889,4.78645 3.1296,5.24669 1.38071,0.46023 3.95802,2.39322 4.14212,3.86598 0.18409,1.47275 0.27614,2.20913 -0.36819,3.86598 -0.64433,1.65685 -1.01252,0.92047 -1.19661,3.22165 -0.18409,2.30117 -0.55228,3.22165 0.27614,4.41826 0.82842,1.19661 0.1841,1.28866 1.93299,2.57732 1.74889,1.28866 2.20913,1.93299 3.68188,2.57732 1.47276,0.64433 1.38071,0.46023 3.4978,1.19661 2.11708,0.73638 1.47275,0.0921 3.86597,1.84094 2.39323,1.7489 1.84095,2.30118 3.86598,2.66937 2.02504,0.36819 2.94551,0.36819 4.8785,0.36819 1.93299,0 1.10457,-0.73638 3.12961,0.092 2.02503,0.82843 2.66936,1.28866 3.22164,1.7489 0.55229,0.46024 2.66937,1.28866 2.48528,0.64433 -0.1841,-0.64433 -0.1841,-0.27614 -1.10457,-2.48527 -0.92047,-2.20913 -1.38071,-2.66937 -1.10457,-3.58984 0.27615,-0.92047 -0.36818,-0.36819 0.55229,-1.5648 0.92047,-1.19661 0.82842,0 1.28866,-2.02504 0.46023,-2.02504 0.18409,-1.47275 0.46023,-3.22165 0.27614,-1.74889 -1.10456,-2.20913 0.92048,-2.66936 2.02503,-0.46024 1.56479,0.82842 2.30117,-0.46024 0.73638,-1.28866 0.46024,-2.20913 0.46024,-4.41826 0,-2.20913 -1.10457,-3.86598 0.36819,-5.70692 1.47275,-1.84095 1.93299,-1.01252 2.66936,-3.22165 0.73638,-2.20913 0.55229,-3.12961 0.82843,-4.14212 0.27614,-1.01252 -0.27614,-0.64433 1.19661,-2.39323 1.47276,-1.74889 1.19661,-1.38071 1.84094,-2.20913 0.64433,-0.82842 1.01252,-0.92047 1.7489,-2.48527 0.73638,-1.5648 0.82842,-0.92047 1.28866,-2.761415 0.46023,-1.840942 0.18409,-2.485271 0.46023,-3.313697 0.27614,-0.828424 -0.27614,-1.840942 0.92047,-1.932988 1.19663,-0.09205 1.65685,0 2.76143,0.736375 1.10455,0.736378 0.92046,1.564802 2.48526,0.920472 1.56479,-0.644329 1.74889,-0.184094 2.30118,-1.288658 0.55229,-1.104567 0.27615,-3.58984 1.01251,-5.430782 0.73639,-1.840941 4.41828,-8.100147 5.33874,-10.401326 0.92048,-2.301177 1.65684,-0.460235 1.01253,-3.497789 -0.64434,-3.037557 -0.46024,-1.93299 -0.64434,-4.602358 -0.1841,-2.669366 -0.64434,-3.037555 -0.27615,-4.602356 0.3682,-1.564801 0.46025,-0.552283 0.73639,-2.301176 0.27615,-1.748896 1.10456,-0.552284 0.1841,-3.773935 -0.92049,-3.221649 -1.47278,-4.78645 -1.19663,-5.430779 0.27614,-0.644329 2.20914,-0.920472 3.58984,-1.012518 1.3807,-0.09205 1.3807,-0.644329 3.22164,-0.09205 1.84095,0.552283 1.28868,0.552283 3.12963,0.828426 1.84092,0.276141 2.48526,0.368189 3.86596,0.368189 h 7.73197 c 1.65685,0 1.93299,0.368187 3.1296,-0.09205 1.1966,-0.460235 3.86598,-1.012518 4.60234,-1.380707 0.73639,-0.368189 2.11709,-1.564802 2.94553,-1.564802 0.82841,0 1.01251,-0.27614 2.48526,-0.184094 1.47275,0.09205 1.1966,0.09205 2.20914,0.736378 1.01251,0.644329 1.1966,0.644329 2.39321,1.564801 1.19663,0.920472 1.65687,0.552283 2.48528,2.485271 0.82844,1.93299 2.39324,10.861561 2.20914,11.966128 -0.1841,1.104566 -0.27615,1.93299 -0.73639,3.129603 -0.46024,1.196612 -0.36819,0.460234 -1.3807,2.025036 -1.01251,1.564801 -1.5648,1.748895 -2.30119,3.405743 -0.73636,1.65685 -0.92046,3.405743 -0.92046,4.510309 0,1.104567 -0.36819,1.748896 -0.64434,2.30118 -0.27614,0.55228 -1.3807,1.196612 -1.93299,1.380706 -0.55226,0.184095 -1.74889,6.167157 -0.55226,5.983063 1.1966,-0.184094 2.11706,-1.380707 3.40574,0.09205 1.28865,1.472755 1.5648,2.301179 1.5648,3.037557 0,0.736375 0,0.552283 -0.27615,1.380707 -0.27614,0.828423 -0.73639,1.104564 -0.73639,2.025036 0,0.920472 0,1.012518 1.01254,2.20913 1.01251,1.19661 -5.33874,2.66937 -3.77394,4.60235 1.5648,1.93299 0.0921,2.85347 3.1296,3.95803 3.03755,1.10457 4.51032,1.84094 5.79898,1.28866 1.28865,-0.55228 -0.1841,-0.55228 2.11709,-1.28866 2.30116,-0.73638 1.93296,-1.01252 3.77391,-1.01252 1.84094,0 3.58984,-0.18409 4.97054,0.55228 1.38073,0.73638 2.48528,1.38071 3.22167,2.02504 0.73636,0.64433 0.92046,0.82843 2.02502,1.7489 1.10458,0.92047 5.15464,3.68188 6.35127,5.98306 1.1966,2.30118 1.1966,1.5648 1.93299,4.05007 0.73636,2.48527 0.92046,1.84095 1.01251,3.86598 0.092,2.02504 -0.0921,1.84095 -0.1841,3.86598 -0.0921,2.02504 -0.46024,2.48528 -0.0921,3.95803 0.3682,1.47275 1.3807,3.3137 1.5648,5.06259 0.1841,1.74889 0.46024,1.47275 -0.36817,4.32622 -0.82843,2.85346 -0.55229,2.85346 -1.93299,5.15464 -1.38073,2.30117 -1.38073,1.84094 -2.94553,4.05007 -1.5648,2.20913 -4.16282,4.36394 -4.55334,6.28401 -0.39053,1.92007 -0.74851,2.2455 -0.94375,3.84014 -0.19526,1.59464 -0.26035,1.33429 -0.39052,3.22181 -0.13018,1.88753 -0.42307,1.88753 -0.16272,2.89638 0.26035,1.00885 0.5207,1.23666 0.71594,1.95261 0.19526,0.71596 0.42306,2.18043 0.7485,3.28691 0.32544,1.10648 0.0326,1.10648 0.61833,2.11533 0.58579,1.00885 0.58579,1.46446 1.23667,1.46446 0.65087,0 0.65087,-0.19526 1.0414,-0.35798 0.39052,-0.16272 0.26035,-0.55324 0.78105,-0.16272 0.52067,0.39053 0.71593,0.48815 0.84611,1.10648 0.13017,0.61833 0.5207,4.42593 0.61833,5.27206 0.0976,0.84614 0.35798,1.39938 0.0651,1.95262 -0.2929,0.55324 -0.19527,0.0325 -0.65088,0.84613 -0.45561,0.81359 -0.71594,1.7899 -1.39935,2.21296 -0.68342,0.42307 -0.97632,0.61833 -1.46447,0.84614 -0.48816,0.2278 -1.00886,0.35798 -1.17158,0.61832 -0.16272,0.26035 0.0976,1.0414 -0.2278,2.37568 -0.32544,1.33429 -0.16272,0.84614 -0.61834,1.98516 -0.45561,1.13903 -0.55324,1.10648 -0.32543,1.85499 0.2278,0.7485 0.2278,0.58578 0.2278,1.36683 0,0.78104 -0.26035,2.08278 -0.26035,2.47331 0,0.39052 0.26035,0.39052 0,1.04139 -0.26032,0.65087 -0.55321,0.71596 -0.39049,1.39938 0.16271,0.68341 0,0.84613 0.42304,1.497 0.42307,0.65087 0.48815,1.07394 1.5621,1.13903 1.07394,0.0651 0.7485,0.32543 1.82245,-0.0326 1.07394,-0.35798 1.07394,-0.35798 1.30172,-0.42306 0.22781,-0.0651 0.55324,-0.37426 0.96004,-0.26035 0.4068,0.1139 1.0414,-0.48816 1.4482,-0.13018 0.4068,0.35798 0.6346,0.60206 0.79732,0.81359 0.16272,0.21154 0.22781,0.30917 0.4068,0.55324 0.17899,0.24408 0.26035,0.34171 0.43934,0.42307 0.17899,0.0814 0.56951,0.14645 0.92747,0.0488 0.35798,-0.0976 0.37425,0.0488 0.84614,-0.13017 0.47188,-0.17899 0.32543,-0.2278 0.61833,-0.19526 0.29289,0.0325 1.35056,0.34171 1.7899,0.45561 0.43934,0.1139 0.11391,-0.0976 0.8136,0.16272 0.69969,0.26035 1.0251,0.37425 1.139,0.61832 0.1139,0.24408 0.17899,0.24408 0.0164,0.56952 -0.16272,0.32543 -0.16272,0.47188 -0.27663,0.82986 -0.1139,0.35798 0.11391,1.23665 0.21154,1.56209 0.0976,0.32544 0.0976,0.4068 0.17899,0.69969 0.0814,0.29289 0.0976,-0.0814 0.0488,0.37425 -0.0488,0.45561 -0.0651,0.7485 -0.0325,0.99258 0.0325,0.24407 0.14645,0.43933 -0.26035,0.45561 -0.40677,0.0163 -0.43931,-0.17899 -0.66712,-0.0325 -0.22781,0.14645 -0.47188,0.35798 -0.48816,0.6346 -0.0164,0.27662 -0.0976,0.32544 0.0164,0.56952 0.1139,0.24407 0.0814,0.21153 0.2278,0.50442 0.14645,0.29289 0.2929,0.37425 0.32544,0.58579 0.0325,0.21153 -0.0488,0.29289 0.19526,0.63459 0.24406,0.34171 0.42305,0.27663 0.71594,0.6346 0.29289,0.35798 0.60206,0.9275 0.65088,1.0414 0.0488,0.1139 0.14644,0.0651 0.50442,0.55324 0.35798,0.48815 0.48816,0.30916 0.84614,0.84613 0.35798,0.53697 0.53697,0.42307 0.37425,0.86241 -0.16271,0.43934 -0.0814,0.40679 -0.42306,0.84613 -0.34171,0.43934 -0.45562,0.61833 -0.35799,1.05767 0.0976,0.43933 -0.0814,1.30174 -0.0325,1.78989 0.0488,0.48816 0.0976,0.53697 0.0814,1.05767 -0.0164,0.5207 -0.0488,0.43934 -0.24408,0.91122 -0.19526,0.47188 -0.35798,0.61833 -0.35798,0.92749 0,0.30916 0.0325,0.47188 0.22781,0.71596 0.19526,0.24408 0.43934,0.61833 0.5207,0.91122 0.0814,0.29289 0.43934,1.9038 0.43934,2.42449 0,0.5207 0.27662,1.20412 -0.0488,1.38311 -0.32544,0.17899 -0.42307,-0.0325 -0.55324,0.37425 -0.13018,0.40679 -0.21154,0.40679 -0.14645,0.76477 0.0651,0.35798 0.27003,4.21723 -0.0521,5.64396 -0.32215,1.42673 -0.96649,0.87445 -0.4142,2.20913 0.55229,1.33469 1.15059,1.5648 1.65684,2.16311 0.50626,0.59831 0.7824,0.41421 0.92049,1.51878 0.13806,1.10456 0.092,1.24264 0.046,1.88696 -0.046,0.64433 -0.046,0.82843 -0.046,1.88697 0,1.05854 0.18407,1.24264 0.55226,3.08358 0.3682,1.84094 0.64434,1.97901 0.41421,2.99153 -0.23011,1.01252 -0.55227,0.82842 -0.69035,1.7489 -0.13806,0.92047 -0.50626,1.33468 -0.046,2.11708 0.46024,0.7824 0.69035,1.19661 1.15059,1.5648 0.46022,0.36819 1.70286,2.57732 2.85345,3.1296 1.1506,0.55229 1.28866,0.41422 1.84095,1.15059 0.55229,0.73638 0.64434,0.59831 0.73639,1.70288 0.092,1.10455 0.092,1.10455 0.046,1.84094 -0.046,0.73636 1.33469,1.84095 2.25515,2.39321 0.92048,0.55229 1.47275,1.05855 1.65684,1.79494 0.1841,0.73636 -0.046,1.0125 0.32219,1.7949 0.36816,0.7824 0.64431,1.01254 0.87444,1.70289 0.23011,0.69035 0.41421,1.5648 0.69036,1.74889 0.27614,0.1841 0.55226,0.9665 1.51876,0.0921 0.96649,-0.87445 0.50628,-0.92048 1.93299,-1.5648 1.42674,-0.64434 1.33469,-0.73639 2.30119,-0.96649 0.96649,-0.23014 1.28865,0.046 2.30118,-0.46025 1.01251,-0.50625 1.24262,-1.0125 1.84092,-1.65684 0.59833,-0.64434 0.82844,-0.59831 1.65685,-0.3682 0.82844,0.23014 0.046,-0.23011 1.28868,0.41421 1.24264,0.64434 1.1966,0.50628 2.02504,0.92048 0.82841,0.41421 0.55226,0.55229 1.93297,0.55229 1.38072,0 1.61083,-0.18409 2.34722,0.64432 0.73636,0.82843 1.10456,0.92048 1.61081,1.61083 0.50625,0.69035 2.5313,1.7489 3.63588,2.48526 1.10455,0.73639 1.7949,0.3682 2.1631,1.47275 0.36819,1.10458 0.23011,1.47278 -0.27615,2.20914 -0.50625,0.73639 -1.0125,0.046 -0.5983,1.28865 0.41421,1.24264 0.69035,1.65685 1.15059,2.02504 0.46022,0.3682 0.55227,0.23014 1.28866,0.59831 0.73636,0.36819 1.28865,0.55229 1.61081,1.01253 0.32218,0.46024 0.50628,1.01251 0.59833,1.24264 0.092,0.23011 0.4142,0.32216 1.33466,1.28866 0.92049,0.96649 1.10458,1.24264 1.93299,1.88695 0.82844,0.64434 0.9665,0.64434 1.5648,1.51879 0.5983,0.87445 0.46024,0.7824 0.82844,1.3807 0.36819,0.5983 0.32216,1.47275 0.13806,1.61084 -0.1841,0.13806 -1.19661,2.1631 -0.32216,3.3597 0.87445,1.19661 0.7824,1.51879 1.65685,2.3472 0.87445,0.82844 6.76547,4.09609 7.73194,4.46429 0.9665,0.36819 3.17564,1.05854 4.23418,1.15059 1.05855,0.0921 1.24265,-0.13806 2.11709,0.13806 0.87445,0.27615 1.19661,0.82844 2.7154,0.9665 1.51876,0.13808 2.02504,0.32218 3.63585,0.59833 1.61083,0.27612 3.58984,0.50625 4.78644,1.0125 1.19663,0.50626 2.02504,0.73639 2.89949,1.1506 0.87445,0.4142 1.33469,0.73636 2.02504,1.05854 0.69035,0.32216 1.933,0.69035 2.43925,1.19661 0.50625,0.50625 0.7824,0.87445 1.24264,1.10455 0.46024,0.23014 0.7824,0.41423 1.3807,0.73639 0.59831,0.32216 0.64434,0.41421 1.65685,2.02504 1.01251,1.61081 1.33469,2.1631 1.979,3.26766 0.64434,1.10458 1.47278,2.39324 1.7489,2.85348 0.27615,0.46021 1.05855,2.02504 1.19663,2.85345 0.13806,0.82844 0.46022,2.43925 0.46022,3.03755 0,0.5983 0.36819,1.28868 -0.046,1.93299 -0.41421,0.64434 -0.13806,1.05855 -2.76141,1.33469 -2.62334,0.27615 -6.99558,0.13806 -7.91607,0.092 -0.92045,-0.046 -0.92045,0.046 -2.62334,-0.092 -1.70286,-0.13808 -2.48526,0.1841 -3.95803,-0.46024 -1.47275,-0.64431 -1.7489,-0.32216 -1.84092,-1.51876 -0.0921,-1.19663 -0.046,-1.56483 -0.55229,-2.02504 -0.50626,-0.46025 -0.50626,-0.7824 -1.1506,-1.05855 -0.64434,-0.27614 -1.47275,-0.50625 -1.88695,-0.13808 -0.41423,0.36819 0.27612,0.50628 -1.33469,0.46024 -1.61084,-0.046 -1.3807,0.4142 -2.30119,-0.32216 -0.92046,-0.73639 -1.05854,-1.1966 -1.47275,-1.1966 -0.4142,0 0,-0.046 -1.24264,-0.32219 -1.24262,-0.27614 -1.3807,0.59831 -2.43925,-0.87444 -1.05854,-1.47275 -0.50625,-1.24265 -1.61081,-2.39321 -1.10458,-1.1506 -0.092,-0.69035 -2.07108,-1.79494 -1.979,-1.10455 0.13809,-1.24264 -2.62334,-1.47275 -2.7614,-0.2301 -2.39321,-0.4142 -2.99151,-0.18409 -0.59833,0.2301 -1.65685,0.46024 -1.65685,0.46024 0,0 -2.34722,0.4142 -3.49779,0.73636 -1.15059,0.32218 -1.93299,0.69038 -3.45178,0.59833 -1.51879,-0.0921 0.36819,-0.13809 -3.58984,-0.32218 -3.95804,-0.1841 -3.7279,-0.3682 -5.38475,-0.3682 -1.65685,0 -1.61083,-0.27612 -3.58984,0.23014 -1.979,0.50625 -2.80744,0.5983 -3.58984,1.1966 -0.7824,0.5983 -1.15059,0.50626 -1.1966,1.51879 -0.046,1.01251 0.4142,1.88696 0.2301,2.02504 -0.18409,0.13806 -0.5983,0.50625 -1.1966,0.69035 -0.5983,0.1841 -0.32218,-0.27614 -2.02504,0.27615 -1.70289,0.55226 -2.1631,0.7824 -2.99154,0.7824 -0.82841,0 -0.092,-0.7824 -1.28865,-0.046 -1.19661,0.73639 -2.1631,-0.1841 -1.47275,1.79493 0.69035,1.97901 1.24264,2.71537 1.70286,2.99151 0.46024,0.27615 0.69035,0.69035 0.69035,1.63386 0,0.94348 0.39121,1.5648 -0.64432,1.88695 -1.03552,0.32216 -0.7594,0.1841 -2.00202,0.39122 -1.24264,0.20709 -1.17361,-0.23014 -2.00202,0.16108 -0.82844,0.39118 -0.64434,0.64431 -1.1506,1.12757 -0.50625,0.48324 -0.64434,0.27615 -0.94347,0.82841 -0.29917,0.55229 -0.69038,0.87445 -0.43723,1.28868 0.25313,0.41421 0.66733,0.73636 1.08154,0.94348 0.41421,0.20709 0.50625,0.39118 0.9665,0.0921 0.46024,-0.29917 0.11506,-0.41423 0.96649,-0.20712 0.85143,0.20712 0.98952,0.0921 1.61084,0.29917 0.62132,0.20708 1.08154,0.18409 1.33466,0.18409 0.25313,0 0.63363,0.13751 0.63363,0.13751 0,0 0.45561,0.13017 0.65087,0.26035 0.19527,0.13014 -0.0325,0.16269 0.8136,0.16269 0.84611,0 0.52067,-0.29287 1.23663,0 0.71596,0.29289 0.74851,0.19526 1.10649,0.5207 0.35798,0.32544 0.26035,0 0.68342,0.7485 0.42307,0.74851 0.5207,0.55325 0.58579,1.26921 0.0651,0.71596 -0.0976,1.43193 -0.35799,2.01771 -0.26035,0.58576 -0.32543,-0.0651 -0.58578,1.23664 -0.26035,1.30175 -0.2929,1.5621 -0.2929,1.85499 0,0.2929 -0.19526,2.31058 -0.0325,2.92891 0.16272,0.61834 0.35798,0.55325 0.48816,1.36684 0.13017,0.8136 0.16271,0.71596 0.16271,1.69228 0,0.97628 -0.13017,0.81359 -0.13017,1.59461 0,0.78105 -0.0651,1.07395 -0.0651,1.78991 0,0.71596 0,0.78105 -0.0651,1.26921 -0.0651,0.48815 0.19527,1.88751 0.48816,2.05023 0.29289,0.16272 0.91123,-0.0976 1.13903,0.55324 0.22781,0.65088 0.2929,0.65088 0.81357,1.59464 0.5207,0.94377 1.26921,1.49702 1.39938,1.52956 0.13018,0.0325 0.45561,0.55322 1.00886,0.65085 0.55324,0.0976 0.39052,-0.16272 0.91122,0.16272 0.5207,0.32543 0.5207,0.0651 0.91123,0.81359 0.39052,0.74851 0.48815,0.97631 0.58576,1.43193 0.0976,0.45561 0.0976,0.68341 0.0976,0.87868 0,0.19526 0.87868,0.7485 1.07394,1.33426 0.19527,0.58579 0.13018,0.87869 0.55325,1.26921 0.42307,0.39053 0.55324,0.42307 0.84613,0.81359 0.2929,0.39053 0.74851,0.45562 0.48816,1.20412 -0.26035,0.74851 -0.45561,0.5207 -0.5207,1.10649 -0.0651,0.58576 -0.13017,0.81357 0.0325,1.30172 0.16272,0.48816 0.97632,1.0414 1.30175,1.13904 0.32544,0.0976 0.13018,0.16271 0.74851,0.0325 0.61831,-0.13018 0.65085,1.20412 1.04137,1.46447 0.39053,0.26035 1.17158,1.20412 1.3343,1.72479 0.16272,0.5207 0.42307,0.5207 0.48815,1.33429 0.0651,0.8136 0.45562,1.72482 0.94377,2.0828 0.48816,0.35799 0.65088,0 0.97632,0.71597 0.32541,0.71593 0.74847,1.62716 0.94374,2.05023 0.19526,0.42306 0.32543,0.71596 0.5207,1.07394 0.19526,0.35798 0.58578,0.97631 0.91122,1.82245 0.32544,0.84611 0.39053,0.6183 0.39053,1.4319 0,0.81359 0.0651,1.62719 0.0976,2.18043 0.0325,0.55324 -0.2929,0.74851 0.45561,1.46447 0.74851,0.71593 0.97631,0.71593 1.20412,1.17155 0.22781,0.45561 0.26035,0.5207 0.39052,0.97631 0.13018,0.45561 0.0326,0.94377 0.0326,1.13903 0,0.19526 1.59462,1.69228 1.62716,2.14786 0.0325,0.45561 0.5207,0.61833 0,1.13903 -0.5207,0.5207 -0.97631,0.26035 -0.94377,1.07395 0.0325,0.81359 0.19526,1.17157 0.55324,1.69227 0.35799,0.5207 0.58579,0.78103 0.94377,0.97629 0.35798,0.19526 0.74851,0.26035 1.0414,0.5207 0.2929,0.26035 0.39053,0 1.00886,0.7485 0.61833,0.74851 0.87868,0.97632 1.17155,1.36684 0.29289,0.39053 0.58579,0.84614 0.58579,0.84614 0,0 -0.78105,-0.81359 0.26035,0.78105 1.0414,1.59462 1.39938,2.24549 1.62718,2.73365 0.22781,0.48815 0.32544,0 0.42307,1.10648 0.0976,1.10649 -0.0325,1.4319 0.0651,2.31058 0.0976,0.87869 0.13017,1.43193 0.58579,2.14789 0.45561,0.71596 0.65087,1.0414 0.84613,1.49701 0.19527,0.45559 0.58577,1.10647 0.87866,1.82243 0.29289,0.71596 0.55324,1.43192 0.91122,2.01771 0.35799,0.58579 0.8136,1.26921 1.13904,1.75734 0.32543,0.48815 0.13017,0.26035 0.78105,1.0414 0.65087,0.78105 0.84613,0.7485 1.49698,1.59464 0.65088,0.84614 0.78105,0.78105 0.94377,1.43193 0.16272,0.65084 0.84614,0.78102 0.16272,1.20409 -0.68342,0.42307 -0.74851,0.42307 -1.23664,0.61833 -0.48815,0.19526 -1.88753,-0.0651 -1.95262,0.35798 -0.0651,0.42307 -0.0976,0.87868 0.45561,1.43192 0.55324,0.55325 0.65088,0.74851 1.17158,1.07395 0.52067,0.32544 0.71593,0.35798 1.39935,0.68339 0.68342,0.32544 0.48816,0.42307 1.36684,0.65088 0.87868,0.2278 0.48815,-0.13018 1.46447,0.35798 0.97631,0.48815 1.20409,0.29289 1.85496,1.0414 0.65088,0.7485 1.98517,1.39938 2.50587,2.3106 0.5207,0.9112 0.74851,1.26918 1.36684,2.21295 0.6183,0.94377 1.20409,1.49701 1.56207,2.31061 0.35798,0.81359 2.57096,4.45847 2.96148,4.97917 0.39053,0.5207 0.39053,0.19526 1.49699,1.72479 1.10649,1.52955 1.36684,1.07394 1.75736,2.86385 0.39053,1.78988 0.45562,1.62716 0.65088,2.89636 0.19526,1.26921 0.39052,1.00886 0.2278,2.47333 -0.16271,1.46444 -0.2278,1.139 -0.5207,2.1804 -0.29289,1.0414 -0.13017,1.39939 -0.5207,1.95263 -0.39052,0.55324 1.30175,1.13903 -1.52955,1.26921 -2.83128,0.13014 -1.92006,0.0651 -4.06794,0.0651 -2.14787,0 -2.73365,-0.16272 -3.93777,0.32541 -1.20412,0.48816 -1.10649,2.63605 -4.06794,1.95263 -2.96148,-0.68342 -3.97031,-0.97631 -4.91408,-1.07394 -0.94377,-0.0976 -0.5207,-0.0326 -2.86385,-0.55325 -2.34313,-0.5207 -1.59462,-0.0651 -3.15672,-0.71593 -1.5621,-0.65088 0.58579,-0.0326 -2.31061,-0.97632 -2.89636,-0.94377 -2.92891,-0.26035 -3.61233,-1.13903 -0.68342,-0.87868 -1.23666,-1.49701 -1.39938,-1.65973 -0.16269,-0.16272 -0.94374,0.74851 -2.27803,-0.45561 -1.3343,-1.20409 -2.14789,-1.72479 -2.57096,-2.27804 -0.42304,-0.55324 -0.42304,-0.0976 -0.55322,-1.00885 -0.13017,-0.91123 0.0651,-1.10649 -0.39052,-1.65974 -0.45561,-0.55321 0.45561,1.23667 -0.74851,-0.91119 -1.20412,-2.14789 -0.71596,-2.44078 -1.46447,-3.80762 -0.7485,-1.36681 -0.78105,-0.94374 -0.94377,-2.96146 -0.16271,-2.01771 0,-1.62718 -0.32543,-4.13303 -0.32544,-2.50587 -0.2929,-1.88753 -0.22781,-3.67741 0.0651,-1.78991 -0.55322,-0.16272 0,-2.92894 0.55324,-2.76619 0.74851,-2.44076 0.58579,-3.22181 -0.16272,-0.78105 -0.22781,-1.33429 -0.22781,-1.33429 0,0 -2.80569,0.008 -5.19893,-1.55699 -2.39323,-1.5648 0.0921,0.0921 -3.40574,-2.30119 -3.49779,-2.39321 -2.9455,-1.84092 -3.95804,-2.85345 -1.0125,-1.01251 -0.64431,-1.47275 -2.48525,-2.02504 -1.84095,-0.55227 -2.66938,-0.27615 -3.68189,-0.73637 -1.01254,-0.46024 -0.92049,0.27615 -2.20914,-1.3807 -1.28865,-1.65687 -0.55229,-0.92048 -2.11709,-3.22167 -1.5648,-2.30116 -0.64431,-0.82841 -2.48526,-4.1421 -1.84094,-3.3137 -1.3807,-2.11709 -3.03757,-4.51033 -1.65685,-2.39321 -1.01251,-2.11706 -2.57731,-3.49779 -1.5648,-1.3807 -0.82844,-1.5648 -2.66935,-1.84092 -1.84095,-0.27615 -0.92049,-1.01253 -3.95804,-1.10458 -3.03755,-0.0921 -0.92048,-1.01251 -6.35124,-0.92046 -5.43079,0.0921 -6.81152,-1.65685 -7.27173,1.28865 -0.46024,2.9455 -0.3682,4.41825 0,4.5103 0.36819,0.092 0.55226,2.30119 -2.57733,0.73639 -3.1296,-1.5648 -3.40575,-1.93299 -5.33874,-2.66938 -1.93299,-0.73636 -3.49779,-2.30116 -4.3262,-2.48526 -0.82844,-0.1841 -1.5648,-0.82844 -4.97054,-0.73639 -3.40575,0.0921 -4.51033,-0.36817 -6.81149,0.0921 -2.30119,0.46024 -1.7489,0.27615 -4.87849,0.55229 -3.12963,0.27615 -3.77394,-0.092 -7.17968,0.27615 -3.40575,0.36819 -2.94553,-0.55229 -3.77394,0.36819 -0.82844,0.92046 -1.5648,-0.55229 -1.5648,2.30116 0,2.85348 1.01251,4.69442 1.28865,5.15464 0.27615,0.46024 0.82844,-0.1841 0.27615,0.92049 -0.55229,1.10455 -0.64434,0.73636 -2.11709,2.30116 -1.47275,1.5648 0.36819,4.69442 -2.66936,4.69442 -3.03757,0 -2.20913,0.73636 -6.44331,0 -4.23416,-0.73639 -4.14211,-1.01253 -6.62739,-1.28868 -2.48526,-0.27612 -3.3137,-0.55226 -4.78645,-0.82841 -1.47275,-0.27615 -1.74889,-0.55229 -2.9455,-1.28865 -1.19663,-0.73639 -0.82844,-1.84095 -2.76143,-1.01254 -1.93299,0.82844 -2.9455,1.84095 -3.58984,2.57734 -0.64431,0.73636 -0.0921,0.36819 -1.10455,0.73636 -1.01251,0.36819 -3.68189,2.11709 -7.73196,2.30118 -4.05008,0.1841 -3.3137,0.82841 -6.81149,0 -3.49779,-0.82843 -2.85346,-1.3807 -5.79897,-1.56479 -2.94551,-0.1841 -2.66937,-1.7489 -4.6944,0.46024 -2.02504,2.20911 -0.64433,2.48526 -3.03756,2.9455 -2.39322,0.46024 -2.9455,0 -5.06259,-0.0921 -2.11708,-0.092 -1.28866,0 -4.41826,-0.1841 -3.1296,-0.18409 -3.77393,-0.36819 -6.07511,-0.36819 -2.30118,0 -1.84094,-0.0921 -3.68189,0.27614 -1.84094,0.3682 0.46024,-0.092 -3.95802,0.3682 -4.41826,0.46024 -4.41826,0.46024 -5.24669,1.10455 -0.82842,0.64434 -1.19661,0.82844 -2.02503,1.10459 -0.82843,0.27612 0.27614,1.10455 -2.11709,0.27612 -2.39322,-0.82841 -2.85346,-1.19661 -3.68188,-2.02502 -0.82843,-0.82844 -0.1841,-0.82844 -1.84095,-1.65685 -1.65684,-0.82843 -2.9455,-1.38072 -3.58983,-1.56482 -0.64433,-0.18407 0.092,-0.46022 -2.39323,-0.82841 -2.48527,-0.3682 -3.49779,-0.64434 -3.95803,-0.64434 -0.46023,0 -5.61487,-0.46022 -8.46833,-1.28865 -2.85346,-0.82841 -2.66937,-0.73637 -5.61488,-1.5648 -2.9455,-0.82844 -3.86598,0.18409 -5.33873,-1.28866 -1.47275,-1.47275 -3.03756,-5.61488 -3.1296,-6.81148 -0.0921,-1.19663 -0.55228,-0.0921 -0.1841,-2.02504 0.36819,-1.933 0.0921,-1.7489 0.64433,-4.32623 0.55229,-2.57731 3.4978,-0.73636 -0.27614,-7.08761 -3.77393,-6.35127 -3.03755,-5.70693 -4.32621,-6.99558 -1.28866,-1.28868 -3.03756,-2.66938 -4.23417,-3.31372 -1.19661,-0.64432 -0.46024,-1.28865 -3.1296,-1.3807 -2.66937,-0.0921 -2.85346,-0.46022 -5.24669,-0.27615 -2.39322,0.1841 -5.43078,-0.27612 -6.07511,-0.18407 -0.64433,0.0921 -0.64433,0.36817 -2.57732,-0.27615 -1.93299,-0.64434 -3.22165,-0.73638 -3.77393,-1.28867 -0.55228,-0.55227 -0.46024,-0.73637 -1.19661,-1.7489 -0.73638,-1.01251 -1.38071,-1.5648 -2.39323,-1.74887 -1.01252,-0.1841 -1.5648,-0.92049 -3.49779,-1.01253 -1.93299,-0.0921 -3.1296,0.46024 -5.79897,-1.38071 -2.66937,-1.84094 -1.93299,-1.3807 -4.23417,-3.22164 -2.30117,-1.84095 -6.90353,-4.14213 -9.20471,-5.61488 -2.30118,-1.47275 -3.03755,-1.01251 -3.68189,-3.3137 -0.64432,-2.30118 -0.64432,-2.20914 -1.47275,-4.5103 -0.82842,-2.30118 -0.36819,-2.20914 -1.84094,-4.60237 -1.47276,-2.39321 -0.92047,-2.57731 -2.85346,-4.5103 -1.93299,-1.93299 -0.27614,-1.5648 -3.22165,-2.48528 -2.94551,-0.92046 -3.221649,-0.64432 -6.167158,-1.19661 -2.945508,-0.55229 -4.694404,-0.27614 -5.430782,-1.3807 -0.736375,-1.10458 -1.564801,-2.20914 -1.564801,-3.68189 0,-1.47275 -1.012518,-2.48528 1.012518,-2.39323 2.025039,0.092 1.472756,1.74889 3.681886,-0.1841 2.209131,-1.93297 2.85346,-1.5648 2.945508,-3.40575 0.09205,-1.84094 1.380707,-0.092 0,-2.66935 -1.380707,-2.57733 -0.460234,-2.30119 -2.853459,-3.58984 -2.393228,-1.28865 -1.380707,-0.55229 -4.23417,-2.20914 -2.853459,-1.65685 -2.393225,-1.5648 -4.602355,-3.95801 -2.209131,-2.39323 0,-2.57733 -2.669368,-3.12962 -2.669366,-0.55227 -1.196613,-1.5648 -3.497789,-0.46022 -2.301179,1.10456 -1.564802,0.3682 -2.669368,1.38071 -1.104564,1.0125 -0.552284,1.65684 -2.209131,0.55229 -1.656847,-1.10459 -1.93299,0.092 -2.20913,-1.84095 -0.276143,-1.93299 -1.564802,-1.47275 0.27614,-3.40574 1.840944,-1.93299 0.828424,-0.82844 3.129603,-3.12962 2.301179,-2.30117 3.221648,-3.40575 3.221648,-3.40575 0,0 5.798971,-2.7614 5.798971,-5.61485 0,-2.85348 0.92047,-2.11709 -1.65685,-5.70693 -2.577319,-3.58984 -1.840942,-2.11709 -3.773932,-5.15464 -1.93299,-3.03755 -2.025036,-3.58984 -2.577319,-5.70693 -0.552284,-2.11707 -1.196613,-2.57731 -5.062591,-6.0751 -3.86598,-3.49779 -6.167159,-1.5648 -6.259205,-5.52283 -0.09205,-3.95804 0.736378,-4.5103 0.184094,-7.82401 -0.552283,-3.31369 -1.288661,-2.11708 -1.748895,-6.90353 -0.460235,-4.78645 -0.828424,-4.97055 -0.552284,-6.62739 0.276143,-1.65685 -0.368189,-2.02504 1.104567,-3.4978 1.472753,-1.47275 1.012518,-3.1296 3.037554,-5.15463 2.025036,-2.02504 3.865981,-1.56481 1.93299,-5.43079 -1.93299,-3.86597 -0.09205,-2.9455 -2.669368,-4.51031 -2.577319,-1.56479 -3.313694,-0.82842 -3.405743,-3.40574 -0.09205,-2.57732 0.276143,-3.40574 -0.920469,-5.70692 -1.196615,-2.30118 -0.552284,-2.57732 -2.301179,-3.22165 -1.748896,-0.64433 -2.57732,0.46023 -3.313698,-2.02504 -0.736377,-2.48527 -0.184094,-3.03755 -2.853459,-4.97054 -2.669368,-1.93299 -0.920473,-2.39323 -4.326216,-3.86598 -3.405743,-1.47275 -3.589837,-1.01252 -5.430782,-3.95803 -1.840941,-2.94551 -1.104563,-1.65684 -2.301176,-4.60235 -1.196612,-2.94551 -2.117085,-0.92048 -1.748896,-4.78645 0.368189,-3.86598 -0.184094,-3.40575 0.736378,-4.97055 0.920469,-1.5648 1.288658,-1.5648 1.288658,-4.51031 0,-2.94551 -1.748895,-1.5648 0.09205,-4.14212 1.840942,-2.57732 2.577319,-4.51031 5.06259,-4.78645 2.485274,-0.27614 2.945509,-2.11708 3.958027,0.1841 1.012518,2.30117 -1.380707,2.20913 1.564801,2.66936 2.945508,0.46024 3.129603,0.27614 3.958026,0.46024 0.828424,0.18409 1.196613,0.18409 1.65685,0.18409 0.460235,0 1.656848,-0.092 3.221649,0.64433 1.564801,0.73638 1.196612,0.73638 3.037554,1.93299 1.840942,1.19661 2.761414,3.86598 4.326215,1.19661 1.564802,-2.66936 1.564802,-1.74889 1.564802,-3.1296 0,-1.3807 1.93299,-0.18409 0,-2.30118 -1.93299,-2.11708 -1.93299,-2.11708 -2.945509,-3.22164 -1.012518,-1.10457 -0.184094,-2.11709 -1.93299,-1.7489 -1.748896,0.36819 -0.920469,0.0921 -2.669365,0.36819 -1.748896,0.27614 -3.037557,-2.30118 0.552283,-4.05008 3.589838,-1.74889 1.380707,-0.82842 4.78645,-2.11708 3.405743,-1.28866 2.57732,-2.94551 5.614874,-1.65685 3.037557,1.28866 0.552283,0.73638 4.878498,1.5648 4.326216,0.82843 4.602356,1.19662 6.167157,0.82843 1.564802,-0.36819 2.669368,0.36819 2.85346,-2.20913 0.184095,-2.57732 -0.184092,-1.28867 0.276143,-3.40575 0.460235,-2.11708 -1.012518,-1.3807 1.196613,-2.94551 2.20913,-1.5648 2.761414,-1.5648 3.037554,-3.95802 0.276143,-2.39323 0.768104,-2.22916 1.418976,-3.17293 0.650872,-0.94376 0.260347,-0.13017 1.041395,-1.52954 0.781045,-1.39938 0.45561,-0.0325 0.943763,-1.82244 0.488154,-1.7899 0.19526,-1.72481 0.585785,-2.11534 0.390522,-0.39052 1.139023,-1.65972 1.854983,-2.70111 0.715957,-1.0414 0.162716,-0.68342 1.334286,-1.69227 1.171568,-1.00885 0.683418,-0.68341 1.594638,-1.46446 0.91122,-0.78104 0,0 1.59463,-1.39937 1.59464,-1.39938 1.69227,-3.18927 2.40823,-1.59464 0.71595,1.59464 0.61832,1.46446 0.71595,1.82244 0.0976,0.35798 0.0651,0.55324 0.61833,0.68342 0.55324,0.13017 0.13018,0.35798 1.13903,-0.0325 1.00885,-0.39052 0.68341,-0.45561 1.46446,-0.65087 0.78104,-0.19526 2.96146,-0.87867 3.54725,-0.71596 0.58578,0.16272 1.75735,0.39053 2.11533,0.5207 0.35798,0.13018 0.35798,0.61833 1.36683,0.16272 1.00885,-0.45561 0.45561,-0.19526 1.52955,-0.84613 1.07394,-0.65087 0.5207,-0.26035 1.65972,-0.68342 1.13902,-0.42307 1.69227,-0.55324 1.59463,-0.97631 -0.0976,-0.42306 0.0651,-0.52069 -0.71595,-1.23665 -0.78105,-0.71596 -0.84614,-0.91122 -1.07394,-1.0414 -0.2278,-0.13017 -0.48815,-0.29289 -0.48815,-1.04139 0,-0.7485 -0.39053,-0.91122 -0.5207,-1.49701 -0.13018,-0.58578 -0.65087,-0.35798 -0.0651,-1.20411 0.58579,-0.84613 0.65087,-1.07394 0.97631,-1.46446 0.32543,-0.39052 1.30174,-1.85498 1.46446,-3.18927 0.16272,-1.33429 0.29289,-1.17157 0.16272,-2.47331 -0.13018,-1.30174 -0.32544,-0.91122 -0.16272,-1.85498 0.16272,-0.94377 0.16272,-0.65087 0.19526,-1.49701 0.0325,-0.84613 -0.16272,-0.5207 0.0976,-1.23665 0.26035,-0.71596 3.35866,-2.76152 4.14106,-3.08368 0.7824,-0.32217 1.19661,-0.82843 2.76142,-0.82843 1.5648,0 1.15059,0.69035 2.9455,-0.46023 1.79492,-1.15059 2.11709,-0.64433 2.71539,-1.7489 0.59831,-1.10456 0.27615,-0.50626 0.82843,-1.65685 0.55228,-1.15059 -0.59831,-1.5648 1.05854,-1.79492 1.65685,-0.23011 2.25515,-0.73637 2.5313,-0.92047 0.27614,-0.18409 3.1296,0.50626 5.52283,-0.23012 2.39322,-0.73637 1.51877,0.046 3.31369,-1.05854 1.79492,-1.10456 1.24264,-0.41421 2.30118,-1.47275 1.05854,-1.05854 0.46023,-0.55228 1.38071,-1.47276 0.92047,-0.92047 0.87444,-1.19661 1.79492,-1.51877 0.92047,-0.32217 1.01251,-0.50626 2.20913,-0.46024 1.19661,0.046 1.33468,0.41421 1.79491,-0.13807 0.46024,-0.55228 0.19789,-1.67257 0.35248,-1.91664 0.15458,-0.24408 0.28475,-0.47189 0.45561,-0.62647 0.17085,-0.15458 0.66714,-0.49629 0.66714,-0.49629 z"
       id="path3"
       sodipodi:nodetypes="csssssssssssssssssssssssssssssssssssssssssssssssssscssssscssssssssssssssssssssssssssssssssssssssssssssssssssssssssssssssssssssssssssssssscsssssssssssssssssssssssssssssssssssssssssssscsssscssccssssssssssccsssssssssssssssssssssssssssssssssssssssssssssssssssssssssssssssssssssssssssssssssssssssscsssssssssssssssssssssssssscsssssssssssssssssssssssssssssssssssssssssssssssssssssscssssssssssssssssssssssssssssssssssssssssssssssssssssccssssssssssssssssssssssssssssssssssssssscsssssssssssssssssssssssssssssssssssssssssssssssssssssscsssssssssssssssssssssssssssssscsssssscsssssssssssssssssssscsssssssssssssssscssssssssssssssssscc" /></g><g
     inkscape:groupmode="layer"
     id="layer2"
     inkscape:label="Layer 4"><path
       style="fill:#e5df75;fill-opacity:1;stroke-width:0.1;stroke-dasharray:0.1, 0.1;paint-order:stroke fill markers"
       d="m 217.38373,164.21207 c -0.61365,-0.49091 -1.2273,-0.98183 -1.84094,-1.47275 -0.73638,-0.36819 -1.55657,-0.60259 -2.20913,-1.10457 -0.96301,-0.74077 -1.67425,-1.76455 -2.57732,-2.57732 -1.55349,-1.39814 -3.18778,-2.70382 -4.78645,-4.05007 -1.79085,-1.50808 -4.61406,-3.2509 -5.52283,-5.52283 -0.93653,-2.34132 0.80198,-5.56901 -0.73638,-7.36377 -0.51143,-0.59666 -1.31885,-0.8854 -1.84094,-1.47275 -0.47544,-0.53487 -0.63332,-1.30238 -1.10457,-1.84094 -0.73423,-0.83913 -3.97281,-3.30465 -4.41826,-4.41826 -0.44696,-1.11742 -0.31795,-2.63582 -0.73638,-3.68189 -0.16434,-0.41086 -0.62905,-0.67527 -0.73637,-1.10457 -0.26006,-1.04024 0.34806,-2.63769 0,-3.68188 -0.0388,-0.11643 -0.28141,0.0868 -0.36819,0 -0.0868,-0.0868 0.0868,-0.28141 0,-0.36819 -0.43391,-0.43391 -1.2273,0 -1.84095,0 -1.94293,0 -3.2181,1.03287 -4.78645,2.20913 -0.76743,0.57558 -1.59914,0.61877 -2.20913,1.47275 -0.67297,0.94217 -0.91468,2.25082 -1.84094,2.94551 -0.19637,0.14728 -0.51683,-0.10977 -0.73638,0 -0.21954,0.10978 0.17357,0.56281 0,0.73638 -0.0908,0.0908 -1.54965,0.91037 -1.84094,1.10457 -0.59268,0.39512 -4.19663,4.85793 -4.41826,5.52282 -0.95504,2.86511 1.11834,4.74514 0.36819,6.99558 -0.64846,1.94539 -2.89182,4.2508 -4.41826,5.52283 -1.91276,1.59396 -4.74417,1.27809 -6.99559,1.84094 -1.89589,0.47398 0.67286,0.37727 -1.84094,0.73638 -0.48598,0.0694 -0.99649,-0.11906 -1.47275,0 -1.48565,0.37141 -2.80046,1.42812 -4.05008,2.20913 -0.46543,0.2909 -1.11132,0.32332 -1.47275,0.73638 -0.99433,1.13639 -2.5593,4.87654 -2.20913,6.62739 0.20095,1.00475 0.95237,3.09771 0,4.05008 -0.0868,0.0868 -0.2814,-0.0868 -0.36819,0 -0.3129,0.3129 -0.42348,0.79166 -0.73638,1.10456 -0.6258,0.6258 -1.52924,0.90618 -2.20913,1.47276 -1.63786,1.36489 -3.41076,2.43625 -5.15464,3.68188 -0.20007,0.14291 -1.67759,1.57518 -2.20913,1.84094 -0.34713,0.17357 -0.77176,0.16851 -1.10456,0.36819 -2.1292,1.27752 0.52181,0.30674 -1.47276,1.10457 -0.25821,0.10329 -1.99369,0.52094 -2.20913,0.73637 -0.67582,0.67583 0.82472,4.83804 0.36819,5.52283 -0.32348,0.48522 -1.82738,2.19558 -2.20913,2.57732 -0.90975,0.90975 -2.42607,1.3215 -3.3137,2.20913 -0.0868,0.0868 0.10978,0.31331 0,0.36819 -2.53881,1.26941 -1.49035,0.23147 -2.94551,1.10457 -1.58289,0.94974 -3.24132,1.96224 -4.78645,2.9455 -0.51771,0.32946 -0.92389,0.83014 -1.47275,1.10457 -1.69001,0.84501 -1.23714,-0.23562 -2.57732,1.10457 -0.50602,0.50602 -0.7076,1.2455 -1.10456,1.84094 -1.36038,2.04057 -1.85419,3.64217 -1.10457,5.89102 0.28846,0.86537 0,2.79655 0,3.68188 0,0.73638 0.27348,1.52542 0,2.20913 -0.12892,0.3223 -0.6266,0.40706 -0.73638,0.73638 -0.15524,0.46572 0.15525,1.00703 0,1.47275 -0.10977,0.32932 -0.60745,0.41408 -0.73637,0.73638 -0.27349,0.68371 -0.2023,1.50108 0,2.20913 0.41874,1.4656 1.14278,1.87916 2.20913,2.94551 1.64119,1.64119 4.57541,4.49571 5.52282,6.62739 0.17028,0.38311 0.44283,3.89578 0.36819,4.41826 -0.31699,2.21899 -2.66118,2.88721 -3.68188,4.41827 -0.20423,0.30635 0.20423,0.79821 0,1.10456 -0.15223,0.22834 -0.61365,0.12273 -0.73638,0.36819 -0.0762,0.15247 -0.36819,4.31487 -0.36819,4.78645 0,1.82561 -0.18796,1.19081 0.73638,2.57732 0.0681,0.10212 -0.11643,0.32938 0,0.36819 1.03237,0.34412 2.61261,-0.15275 3.68188,0 0.38421,0.0549 0.724,0.29207 1.10457,0.36819 0.60173,0.12034 1.23346,-0.0868 1.84094,0 4.3444,0.62062 8.60568,1.86383 12.8866,2.57732 2.42278,0.40379 8.07352,-1.06853 9.94109,-0.36819 1.77742,0.66653 4.26075,3.62226 5.15464,5.15464 0.28898,0.49539 0.8796,4.19329 1.10456,4.41826 0.17357,0.17356 0.53215,-0.13616 0.73638,0 0.28883,0.19255 0.43872,0.55778 0.73638,0.73637 0.004,0.003 4.36298,1.40218 4.78645,1.47276 1.71821,0.28637 1.07388,-0.21478 2.57732,0 2.15254,0.3075 3.30833,1.51676 5.15464,2.20913 0.58595,0.21973 1.25499,0.14846 1.84094,0.36819 0.41433,0.15537 0.69784,0.56206 1.10457,0.73638 0.46511,0.19933 1.00764,0.16885 1.47275,0.36818 1.27489,0.54639 2.40699,1.66275 3.68189,2.20914 0.46511,0.19933 1.05171,0.0875 1.47275,0.36818 0.36819,0.24546 0.39643,0.82128 0.73638,1.10457 3.49984,2.91653 -0.61905,-1.72361 2.9455,1.84095 1.08748,1.08746 1.41501,2.06713 2.94551,2.5773 0.73638,0.24548 1.44072,0.62662 2.20913,0.73639 0.60748,0.0868 1.25318,-0.17634 1.84094,0 0.68546,0.20563 1.1765,0.83878 1.84095,1.10456 1.16208,0.46484 2.43995,0.58113 3.68188,0.73639 0.60891,0.0761 1.27119,-0.22792 1.84095,0 0.41086,0.16433 0.69783,0.56205 1.10456,0.73636 0.46511,0.19933 1.0334,0.11713 1.47276,0.36819 1.47963,0.8455 3.71276,4.34107 2.9455,6.25922 -0.16434,0.41085 -0.57203,0.69369 -0.73637,1.10456 -0.0912,0.22791 0.13615,0.53213 0,0.73636 -0.15223,0.22836 -0.54233,0.17415 -0.73638,0.36819 -0.19405,0.19408 -0.14864,0.57174 -0.36819,0.73639 -0.62097,0.46572 -1.49568,0.43061 -2.20913,0.73636 -0.50448,0.21622 -0.93455,0.62876 -1.47275,0.73639 -1.68485,0.33698 -3.4394,-0.10088 -5.15464,0 -8.0696,0.47469 1.73119,0.18595 -6.99559,1.10456 -1.09849,0.11565 -2.21083,-0.0612 -3.31369,0 -3.18548,0.17698 -5.19115,0.74451 -8.46834,1.47278 -0.49397,0.10974 -1.02015,0.14187 -1.47275,0.36816 -1.27393,0.63699 -1.45919,2.63197 -2.20913,3.68189 -0.30265,0.42371 -0.81574,0.67133 -1.10457,1.10458 -0.21528,0.3229 -0.0937,0.83013 -0.36818,1.10456 -0.27444,0.27443 -0.77177,0.16851 -1.10457,0.36819 -1.07552,0.6453 -1.83825,1.88527 -2.94551,2.57731 -1.77105,1.10691 -3.80582,1.71908 -5.52283,2.9455 -2.02891,1.44923 -3.83937,3.35031 -5.89101,4.78647 -0.96259,0.67382 -1.74648,0.64191 -2.57732,1.47275 -0.34713,0.34714 0,0.98185 0,1.47275 0,0.98185 -0.18094,1.98049 0,2.9455 0.1247,0.66511 2.34896,4.50678 1.84094,5.52284 -0.0838,0.16764 -2.03049,-0.0893 -2.94551,0.36819 -1.53023,0.76512 -2.9044,1.65661 -4.05007,2.9455 -0.52209,0.58735 -0.95808,1.24709 -1.47276,1.84095 -2.95106,3.40508 -6.62739,6.5977 -6.62739,11.41383 0,0.49093 -0.34713,1.12564 0,1.47278 0.0868,0.0868 0.26607,-0.0681 0.36819,0 0.78322,0.52212 1.8356,1.24756 2.57732,1.84091 2.39869,1.91897 3.72724,4.71289 5.15464,7.36378 0.86954,1.61486 3.38076,10.00816 3.68188,10.30928 0.2665,0.26651 3.21512,0 4.05008,0 3.92938,0 9.07415,-0.47654 12.8866,0 1.44576,0.18074 2.03943,1.04801 3.31369,1.47275 0.23286,0.0776 0.56281,-0.17357 0.73638,0 0.19405,0.19407 0.17413,0.54234 0.36819,0.73639 0.83396,0.83396 2.35835,1.20404 3.31369,1.84094 0.28883,0.19257 0.41408,0.60746 0.73638,0.73636 1.11864,0.44747 10.70227,0 12.51841,0 1.49913,0 2.93171,0.48864 4.41826,0.73639 3.00361,0.50059 7.45742,0.0414 10.30928,-0.73639 1.61505,-0.44045 1.48955,-1.12135 2.57732,-2.20911 1.1161,-1.11612 2.91675,-1.65325 4.41826,-1.84094 2.51865,-0.31483 5.78057,-0.29456 8.10015,0.73636 0.40437,0.17973 0.69023,0.58102 1.10456,0.73639 0.58596,0.21973 1.25499,0.14846 1.84095,0.36819 0.96847,0.36317 1.0698,1.08717 1.84094,1.47275 0.6865,0.34325 6.0264,0.0353 6.62739,0 2.80966,-0.16528 5.77369,-0.64362 8.46834,-1.47275 5.2324,-1.60999 -1.30768,0.25969 3.31369,-1.84094 0.8134,-0.36973 1.73763,-0.43104 2.57732,-0.73639 6.95367,-2.5286 9.75701,-3.89226 16.56849,0 8.4001,4.80007 -2.56841,-1.76752 4.41826,3.31369 0.66583,0.48424 1.55926,0.59913 2.20913,1.10459 0.48438,0.37674 0.63315,1.07989 1.10456,1.47275 1.58088,0.14073 1.00428,0.63605 1.47275,1.10455 0.0356,0.0355 2.16305,-0.8169 3.31369,-1.10455 3.27761,-0.81942 8.01966,-0.94475 11.04567,0.73636 1.70709,0.9484 3.25636,2.16614 4.78644,3.31369 0.49094,0.3682 0.55571,1.19833 1.10459,1.47278 0.3293,0.16465 0.76271,-0.13676 1.10455,0 0.32232,0.1289 0.41407,0.60746 0.73639,0.73636 0.34184,0.13674 0.77523,-0.16465 1.10456,0 0.46572,0.23286 0.66302,0.8286 1.10455,1.10458 0.56047,0.35029 1.2632,0.4154 1.84095,0.73637 0.53644,0.29802 0.93633,0.80655 1.47275,1.10455 0.57774,0.32099 1.31222,0.33983 1.84094,0.73639 0.77433,0.58073 4.10051,4.5494 5.52283,4.78644 1.40235,0.23374 1.59068,-0.12184 2.9455,-0.36819 3.31976,-0.60357 8.45273,-2.47155 11.78206,-1.47275 1.08691,0.3261 2.78363,1.51723 3.31369,2.57733 0.20805,0.41611 0.26483,1.73757 0.73637,2.20914 0.19404,0.19405 0.49093,0.24546 0.73638,0.36817 0.12272,0.36819 0.1156,0.80992 0.3682,1.10458 3.62183,4.22548 0.3788,-0.35756 2.9455,2.20911 0.52028,0.52031 0.74403,1.47659 1.47275,1.84095 2.30542,1.15271 8.83322,0.2346 11.41383,0 0.73337,-0.0666 1.49474,0.17859 2.20914,0 1.10628,-0.27657 1.45833,-0.88075 2.57733,-1.10456 1.03934,-0.20785 4.90538,-0.28162 5.891,0 0.52774,0.15079 0.94502,0.5856 1.47275,0.73639 0.71594,0.20455 1.15912,-0.13637 1.84095,0 0.38058,0.0761 0.72176,0.30438 1.10458,0.36817 1.46839,0.24474 2.08061,-0.11983 3.3137,-0.73636 0.34713,-0.17357 0.83013,-0.0938 1.10455,-0.3682 1.04968,-1.04968 0.73639,-4.36806 0.73639,-5.52283 0,-3.023 -0.25122,-5.28455 -2.20914,-7.73195 -0.54213,-0.67767 -1.32024,-1.14667 -1.84094,-1.84094 -1.17541,-1.56723 -2.52971,-4.0617 -3.3137,-5.89103 -1.02087,-2.38204 -0.36819,-5.93251 -0.36819,-8.46833 0,-3.48618 2.45806,-4.71038 4.05008,-7.36378 0.22768,-0.37944 0.62905,-0.67527 0.73636,-1.10455 0.336,-1.3439 0.18648,-7.6163 -0.36816,-8.83653 -1.61883,-3.5614 -3.31373,-5.88481 -3.31373,-9.94109 0,-1.1717 -0.23286,-2.26187 0.3682,-3.31369 0.79322,-1.38814 2.08714,-2.39432 2.94553,-3.68189 0.57144,-0.8572 0.674,-1.77858 1.47275,-2.57733 0.61364,-0.61365 1.18782,-1.26947 1.84094,-1.84092 0.333,-0.29141 0.70877,-0.53851 1.10456,-0.73639 0.10977,-0.0549 0.28141,0.0868 0.36819,0 0.68416,-0.68416 1.15676,-1.89314 1.84094,-2.57733 0.0868,-0.0868 0.36817,0.12274 0.36817,0 0,-0.4458 -0.45609,-0.82426 -0.73636,-1.10456 -1.10456,-1.10455 -2.169,-2.25075 -3.31369,-3.31369 -5.57607,-5.17779 -14.15841,-10.28036 -18.04125,-16.93667 -1.42836,-2.44861 -2.67581,-9.5518 -2.9455,-12.51841 -0.14007,-1.5407 0.1892,-4.50263 -0.73639,-5.89101 -0.74023,-1.11035 -1.7667,-2.66864 -2.57731,-3.68189 -1.76734,-2.20918 -4.15483,-4.02697 -5.89103,-6.25921 -1.07262,-1.37908 -0.44778,-1.26375 -1.10455,-2.57732 -0.19791,-0.39579 -0.61481,-0.67908 -0.73639,-1.10456 -0.13486,-0.47203 0.0609,-0.98563 0,-1.47276 -0.0628,-0.50211 -0.29662,-0.97181 -0.36817,-1.47275 -0.63629,-4.45394 0.88035,-8.58592 -1.10458,-12.8866 -0.25715,-0.55716 -0.78883,-0.94655 -1.10456,-1.47275 -1.87161,-3.11936 -0.19357,-1.36834 -2.57733,-4.05007 -0.80716,-0.90808 -1.87113,-1.58867 -2.5773,-2.57732 -0.31904,-0.44663 -0.41736,-1.02613 -0.73639,-1.47276 -0.30263,-0.42371 -0.81574,-0.67132 -1.10456,-1.10456 -0.45667,-0.68503 -0.68974,-1.49799 -1.10456,-2.20914 -1.9777,-3.39033 -4.26881,-6.54721 -5.52283,-10.30927 -1.01782,-3.05346 -1.02536,-6.76217 -0.73639,-9.94109 0.2471,-2.71798 0.92832,-5.50715 -0.36819,-8.10015 -0.28194,-0.56391 -0.65611,-0.28793 -1.10456,-0.73638 -0.19404,-0.19405 -0.12271,-0.61364 -0.36819,-0.73637 -0.55973,-0.27987 -1.2976,-0.0577 -1.84095,-0.36819 -0.72397,-0.41371 -3.01717,-4.26512 -3.31369,-5.15464 -0.95718,-2.87157 -0.73636,-5.85902 -0.73636,-8.83653 0,-5.15463 0,-10.30927 0,-15.46391 0,-2.01771 0.28472,-4.26622 0,-6.25921 -0.19003,-1.33019 -0.95454,-1.54088 -1.47275,-2.57732 -0.10978,-0.21954 0.0912,-0.50847 0,-0.73638 -0.65458,-1.63639 -0.69549,-0.69546 -1.84095,-1.84094 -0.62582,-0.6258 -0.90619,-1.52924 -1.47275,-2.20913 -0.33334,-0.40001 -0.80192,-0.68085 -1.10458,-1.10456 -0.31901,-0.44663 -0.41735,-1.02613 -0.73636,-1.47276 -1.00198,-1.40274 -1.32032,-0.95211 -2.57733,-2.20913 -0.86784,-0.86783 -1.52834,-1.92434 -2.20914,-2.94551 -0.24763,-0.37143 -0.51091,-1.61549 -0.73636,-1.84094 -0.43284,-0.43284 -1.80108,3.23681 -1.84095,3.3137 -11.104,21.41485 0.87466,-1.68601 -5.52283,10.30927 -0.38743,0.72644 -0.62603,1.53919 -1.10456,2.20914 -0.37364,0.52309 -2.12198,0.45925 -2.57733,0.36818 -0.26911,-0.0538 -0.47601,-0.2814 -0.73636,-0.36818 -2.15027,-0.71676 -5.48952,2.22259 -6.99559,2.9455 -4.33093,2.07886 -8.88343,3.82582 -13.62298,4.41827 -2.87814,0.35976 -5.94628,-0.19269 -8.83652,0 -2.09208,0.13947 -4.1794,0.52839 -6.25921,0.73638 -1.09908,0.1099 -2.21766,-0.13701 -3.31369,0 -1.56725,0.1959 -3.16707,0.59952 -4.78645,0.36818 -0.50094,-0.0716 -1.0334,-0.11713 -1.47276,-0.36818 -0.45209,-0.25834 -0.67132,-0.81574 -1.10456,-1.10457 -0.32293,-0.21528 -0.75744,-0.19462 -1.10457,-0.36819 -0.75098,-0.37549 -1.47806,-1.10722 -2.20913,-1.47275 -0.10977,-0.0549 -0.28141,0.0868 -0.36819,0 -0.0868,-0.0868 0.10977,-0.31331 0,-0.36819 -0.98298,-0.49149 -8.07149,0.97865 -9.20471,1.10456 z"
       id="path1" /><path
       style="fill:#e5df75;stroke-width:0.1;stroke-dasharray:0.1, 0.1;paint-order:stroke fill markers;fill-opacity:1"
       d="m 292.34167,107.14286 c -0.97952,1.93934 -2.40642,4.10282 -2.9455,6.2592 -0.2598,1.03919 0.23238,2.26794 0,3.3137 -0.19815,0.89166 -1.31742,3.25618 -0.73639,4.41826 0.0776,0.15524 0.3261,0.1998 0.36819,0.36819 0.0893,0.35719 -0.16465,0.77524 0,1.10456 0.12274,0.24546 0.54232,0.17414 0.73639,0.36819 0.0868,0.0868 -0.0681,0.26607 0,0.36819 0.57767,0.86649 1.52337,1.4254 2.20911,2.20913 0.0928,0.10602 1.36083,1.96907 1.84095,2.20913 0.21955,0.10977 0.56282,-0.17357 0.73639,0 0.17356,0.17357 -0.13616,0.53214 0,0.73638 0.42817,0.64226 1.48198,0.57539 1.84094,1.47275 0.33785,0.84463 -0.052,1.78889 0.73636,2.57732 0.89427,0.89426 0.54068,-0.10949 1.10458,0.73638 0.15222,0.22834 0.14865,0.57172 0.3682,0.73638 0.34843,0.26133 2.47943,1.23971 2.9455,1.47275 0.84169,0.42085 -0.22892,0.51413 1.10455,0.73638 0.96849,0.16141 1.96369,0 2.94553,0 1.10292,0 3.52833,0.52173 4.41825,-0.36819 0.32504,-0.32505 -0.11895,-5.43597 -0.73639,-6.25921 -0.16465,-0.21954 -0.63444,-0.11338 -0.73636,-0.36819 -0.18232,-0.4558 0.0488,-0.98427 0,-1.47275 -0.0743,-0.74283 -0.2939,-1.4663 -0.36819,-2.20913 -0.12949,-1.29476 -0.35523,-3.54314 0,-4.78645 0.12157,-0.42548 0.53848,-0.70878 0.73639,-1.10457 0.20288,-0.40578 -0.20913,-8.22972 -0.3682,-8.46833 -0.15224,-0.22834 -0.61365,-0.12273 -0.73639,-0.36819 -0.57779,-1.15559 0.31994,-3.13855 0,-4.41826 -0.17891,-0.71567 -0.76676,-1.16535 -1.10455,-1.84094 -0.10978,-0.21955 0.0481,-0.49569 0,-0.73638 -0.26686,-1.33427 -1.5212,-2.5216 -2.57734,-3.3137 -0.5725,-0.42938 -1.38279,-0.554801 -1.84094,-1.104563 -0.23569,-0.28285 0,-0.736378 0,-1.104567 -0.36817,-0.122729 -0.78163,-0.152905 -1.10456,-0.368188 -0.1021,-0.06808 0.0388,-0.251757 0,-0.368189 -1.17567,-3.52701 -0.12602,-5.784691 -0.73636,-8.836523 -0.22664,-1.133146 -3.10732,-1.310965 -4.05008,-0.368188 -0.55568,0.55568 -0.91707,1.285261 -1.47275,1.840941 -0.89845,0.898441 -2.04253,0.961292 -2.57733,2.209131 -0.8739,2.039069 -1.31723,4.164409 -1.84095,6.259205 -0.13451,0.538142 -0.92538,3.124701 -0.36817,3.681891 0.14738,0.14737 0.46789,0.1994 0.73637,0.73637 0.0549,0.10977 -0.0868,0.28141 0,0.36819 0.0868,0.0868 0.26606,-0.0681 0.36819,0 0.43326,0.28883 0.63884,0.8717 1.10456,1.10457 0.10977,0.0549 0.36819,-0.12273 0.36819,0 0,0.86782 -0.24545,1.71821 -0.36819,2.57732 z"
       id="path2" /><path
       style="fill:#e5df75;stroke-width:0.1;stroke-dasharray:0.1, 0.1;paint-order:stroke fill markers;fill-opacity:1"
       d="m 400.22092,407.95286 c -0.0614,-0.30681 -0.005,-0.66413 -0.1841,-0.92046 -0.27485,-0.39264 -0.77756,-0.5701 -1.10458,-0.92048 -0.53621,-0.57449 -0.97224,-1.23508 -1.47275,-1.84095 -2.41189,-2.91965 -4.83,-5.83713 -7.36378,-8.65243 -3.47586,-3.86207 -0.84331,-1.01722 -4.60235,-4.41825 -0.51483,-0.4658 -0.94276,-1.02431 -1.47275,-1.47275 -1.31379,-1.11167 -0.54372,0.0103 -1.47275,-1.10458 -0.78385,-0.94062 -0.27395,-2.05126 -0.1841,-3.1296 0.0459,-0.55036 0,-1.10456 0,-1.65685 0,-0.18409 0.0684,-0.38134 0,-0.55229 -0.16531,-0.41325 -1.31664,-0.80706 -1.65684,-0.92046 -0.73282,-0.24426 -1.08662,-0.18409 -1.84095,-0.18409 -2.80582,0 -4.21111,1.1879 -5.33873,3.86598 -0.50147,1.19097 -0.3682,4.32345 -0.3682,5.70693 0,3.81601 -0.30475,7.98103 1.65685,11.41384 0.45143,0.78996 1.4401,2.06462 2.20914,2.5773 0.27495,0.18331 0.63502,0.20169 0.92048,0.3682 0.45596,0.26598 0.82288,0.67206 1.28866,0.92048 0.46262,0.24673 0.9924,0.34213 1.47275,0.55227 2.54804,1.11479 0.41928,0.31945 2.9455,1.65684 1.06828,0.56558 2.27721,0.85088 3.31369,1.47275 0.41098,0.2466 0.71194,0.64564 1.10458,0.92049 0.31062,0.43849 0.8998,0.29305 1.28866,0.55229 0.36102,0.24069 0.5484,0.6972 0.92046,0.92046 0.16639,0.0999 0.39706,0.0676 0.55229,0.1841 0.10977,0.0823 0.0664,0.2976 0.18409,0.36819 2.40898,1.44537 -1.01533,-1.22494 1.47275,0.55227 0.70657,0.50469 1.35935,1.27034 2.02505,1.84094 0.32945,0.28239 0.53236,0.72644 0.92045,0.92049 0.10978,0.0549 0.28142,-0.0868 0.3682,0 0.13721,0.13721 0.0289,0.43584 0.1841,0.55229 0.14726,0.11043 0.40854,-0.11502 0.55229,0 1.79776,1.43819 -0.93295,0.17785 0.92046,1.10455 0.69225,0.34613 1.35673,-0.0387 2.02504,0.1841 0.20989,0.07 0.34512,0.29049 0.55229,0.36819 0.29297,0.10986 0.64061,0.0442 0.92046,0.18407 0.34549,0.17275 2.23215,1.92728 2.39323,2.20914 0.26874,0.4703 0.19987,1.15195 0.3682,1.65685 0.0794,0.23818 -0.16873,0.93586 0,1.10458 0.022,0.022 1.0315,0.073 1.10455,0 0.84109,-0.84108 0.73637,-2.63723 0.73637,-3.68189 0,-1.39297 0.23032,-3.03635 0,-4.41827 -0.0298,-0.17865 -1.81184,-3.39762 -2.02502,-3.68189 -0.10414,-0.13885 -0.31332,-0.20352 -0.36819,-0.36817 -0.0776,-0.23286 0.0674,-0.50038 0,-0.73639 -0.16211,-0.56737 -0.77007,-1.05524 -0.92049,-1.65684 -0.0298,-0.11907 0.0298,-0.24914 0,-0.3682 -0.0376,-0.15049 -0.64839,-1.25566 -0.73636,-1.28865 -0.4063,-0.15235 -0.8591,-0.12274 -1.28865,-0.1841 z"
       id="path5" /><path
       style="fill:#e5df75;stroke-width:0.1;stroke-dasharray:0.1, 0.1;paint-order:stroke fill markers;fill-opacity:1"
       d="m 416.2371,437.22385 c -1.96109,0.23762 -3.80683,-0.45136 -5.70691,-0.73636 -0.72824,-0.10925 -1.47277,0 -2.20913,0 -0.30684,0 -0.61961,-0.0602 -0.92049,0 -2.5481,0.50961 -3.22522,5.18287 -2.39321,7.17965 0.59214,1.42113 1.77324,1.87005 3.1296,2.20914 0.91429,0.22857 0.23492,0.15713 1.28865,0.55229 0.67601,0.2535 0.76637,0.03 1.28865,0.55226 1.17227,1.17227 1.72207,2.94897 2.94553,4.05009 0.3289,0.29601 0.73306,0.49598 1.10456,0.73638 2.5613,1.6573 2.73756,1.90429 5.70693,1.65685 1.94384,-0.162 3.12518,-1.32651 3.49779,-3.31369 0.18095,-0.96504 0,-1.96369 0,-2.94553 0,-0.68831 0.20571,-2.73764 0,-3.31369 -0.19471,-0.54518 -0.58849,-0.99849 -0.92049,-1.47275 -0.24881,-0.35547 -0.66825,-0.56738 -0.92046,-0.92046 -0.182,-0.2548 -0.83433,-1.45418 -1.10455,-1.65685 -1.33218,-0.99912 0.0614,0.30681 -0.92049,-0.1841 -0.38809,-0.19407 -0.54115,-0.70974 -0.92046,-0.92048 -0.33927,-0.18847 -0.75745,-0.19463 -1.10458,-0.3682 -0.15523,-0.0776 -0.24545,-0.24545 -0.36819,-0.36816 -0.51454,-0.51457 -0.10433,-0.14992 -1.47275,-0.73639 z"
       id="path6" /></g><g
     inkscape:groupmode="layer"
     id="layer4"
     inkscape:label="Layer 6" /><g
     inkscape:groupmode="layer"
     id="layer3"
     inkscape:label="Layer 5"><path
       style="fill:#a44009;fill-opacity:1;stroke-width:0.1;stroke-dasharray:0.1, 0.1;paint-order:stroke fill markers"
       d="m 191.48639,214.26689 c 4.94662,-2.99401 4.81645,0.5207 7.94063,-4.16558 3.12418,-4.68627 1.95261,-4.0354 3.90523,-7.68028 1.95261,-3.64488 1.95261,-6.63889 5.33714,-6.63889 3.38454,0 16.01144,-7.41994 17.18301,-10.93464 1.17157,-3.51471 1.95261,-3.25436 0.5207,-5.85785 -1.43192,-2.60348 -3.25436,-4.29575 2.73366,-4.42592 5.98801,-0.13018 6.11819,-2.86384 8.72168,0.91122 2.60348,3.77505 3.64487,4.94662 4.81644,5.46732 1.17157,0.5207 6.50872,7.41993 13.40796,4.81645 6.89923,-2.60349 7.28976,-0.78105 9.50273,-4.0354 2.21295,-3.25436 1.4319,-1.5621 4.5561,-6.1182 3.12417,-4.5561 0.65087,-3.77505 4.03539,-5.72767 3.38453,-1.95261 5.33715,-3.38453 5.33715,-3.38453 0,0 7.68028,16.92266 5.72768,20.43737 -1.95263,3.5147 -1.5621,1.69226 -4.29575,6.76906 -2.73368,5.0768 -4.03543,3.38453 -2.21298,8.46133 1.82245,5.0768 4.68628,11.97603 5.72768,18.2244 1.0414,6.24837 4.0354,6.11819 1.9526,9.89325 -2.08278,3.77505 -2.08278,2.86383 -4.0354,5.46732 -1.9526,2.60348 -2.34313,3.64488 -2.4733,5.72766 -0.13018,2.08279 0.91122,3.38454 1.69225,4.29576 0.78105,0.91122 5.33715,7.55011 7.28977,9.50272 1.95263,1.95262 0.39053,2.21297 4.94662,3.12418 4.5561,0.91122 8.20098,1.17157 9.6329,4.29576 1.43193,3.12419 1.17158,2.21296 0.91123,6.37854 -0.26035,4.16557 -0.91123,5.46732 0.91122,7.28977 1.82242,1.82242 2.994,2.4733 4.5561,3.90522 1.56207,1.4319 1.56207,-2.0828 2.34312,2.21295 0.78105,4.29575 -1.69225,7.1596 -2.4733,8.33118 -0.78105,1.17154 4.94663,6.89922 6.5087,7.41992 1.5621,0.5207 2.86385,0.26035 3.90525,1.0414 1.04137,0.78105 1.82242,-0.13018 0.78102,2.60347 -1.04137,2.73368 -1.69224,4.5561 -2.73364,5.72767 -1.0414,1.17158 -2.86383,12.88725 1.0414,16.53215 3.90522,3.64487 4.68627,3.64487 7.81044,7.28975 3.1242,3.6449 5.72768,5.46732 4.16558,9.63289 -1.56208,4.16558 -6.24835,1.30175 -1.30173,7.02943 4.94663,5.72767 5.72765,11.45532 3.12418,11.97602 -2.6035,0.5207 -0.78105,2.34315 -9.1122,-0.26035 -8.33117,-2.60348 -9.6329,-1.30173 -11.7157,-5.4673 -2.08277,-4.1656 1.82245,-2.0828 -2.60347,-5.98802 -4.42592,-3.90523 -15.36057,-6.76908 -19.52614,-9.89325 -4.16558,-3.1242 1.30172,-2.6035 -6.76908,-5.72767 -8.0708,-3.12418 -3.64487,-7.28978 -13.53812,-3.64488 -9.89325,3.64488 -23.58712,2.47312 -25.24397,2.84131 -1.65685,0.36819 -4.05008,-1.84094 -6.25921,-4.60235 -2.20913,-2.7614 -2.02504,-3.12959 -3.1296,-4.05008 -1.10457,-0.92046 -1.47275,-2.7614 -3.68189,-2.9455 -2.20913,-0.1841 -1.47275,-1.10456 -6.44329,-0.55229 -4.97055,0.55229 -10.86156,2.20914 -10.86156,2.20914 0,0 -0.1841,0.92046 -1.47276,1.65684 -1.28866,0.73639 0.92047,0.92049 -3.3137,1.28866 -4.23416,0.36819 -4.97054,0.55229 -7.36377,0.36819 -2.39322,-0.1841 -2.02503,-0.36819 -7.73195,-0.36819 -5.70693,0 -3.86598,-1.10456 -7.36377,0.36819 -3.4978,1.47275 -4.23417,1.47275 -5.52283,1.65685 -1.28866,0.1841 -1.10457,3.49779 -7.73196,4.41828 -6.62739,0.92045 -15.83211,-2.02505 -15.83211,-4.78648 0,-2.7614 -2.02503,-4.97054 2.76142,-7.91604 4.78645,-2.9455 3.3137,-2.02504 7.17967,-3.49779 3.86598,-1.47275 3.86598,-0.73639 6.6274,-2.39323 2.76141,-1.65685 4.41826,-2.94551 6.2592,-5.52281 1.84095,-2.57733 -1.47275,-3.68189 3.68189,-4.23418 5.15464,-0.55229 4.97054,0.92046 10.67746,0.1841 5.70693,-0.73639 6.4433,0.36819 11.04566,-2.9455 4.60235,-3.3137 0.73637,-3.3137 6.81149,-4.97055 6.07511,-1.65687 5.70692,0.92046 7.54786,-2.20913 1.84094,-3.1296 2.39322,-2.57734 2.20913,-5.33874 -0.18409,-2.7614 -2.57732,-3.86599 0.55228,-5.52283 3.12961,-1.65685 -0.55228,-6.4433 2.76142,-9.94109 3.31369,-3.49779 7.36377,-2.39323 4.41826,-6.44329 -2.94551,-4.05008 1.47275,-5.52284 -4.78645,-4.41827 -6.2592,1.10457 -5.33874,0.55228 -9.757,2.02503 -4.41826,1.47275 -3.86597,2.02505 -7.54786,1.84095 -3.68189,-0.1841 -4.05008,0.92046 -6.81149,-2.39323 -2.76141,-3.31369 -2.57732,-3.1296 -3.68188,-4.60235 -1.10457,-1.47276 1.84094,0 -2.20913,-3.68189 -4.05008,-3.68188 1.47275,-3.68188 -6.99559,-5.52283 -8.46833,-1.84094 -7.91605,-1.47275 -8.65242,-2.20913 -0.73638,-0.73637 -1.47276,-0.73637 -2.94551,-2.20913 -1.47276,-1.47275 -2.02504,-2.57732 -2.39323,-3.49779 -0.36819,-0.92047 -1.28866,-2.76141 -3.31369,-3.1296 -2.02504,-0.36819 -1.65685,-0.1841 -5.52283,-1.65685 -3.86598,-1.47275 -5.52283,-1.10456 -6.99559,-3.68188 -1.47275,-2.57732 -2.02503,-3.68189 -2.57732,-4.97055 -0.55228,-1.28866 1.28867,-0.92047 -1.65684,-2.94551 -2.94551,-2.02504 0,-3.1296 -4.60236,-2.39322 -4.60235,0.73637 -1.84094,0.55228 -6.81149,1.10456 -4.97054,0.55229 -7.73196,0.92047 -9.75699,-0.55228 -2.02504,-1.47275 -3.1296,-1.65685 -3.49779,-3.1296 -0.36819,-1.47276 -5.33874,-1.10457 -0.73638,-4.97055 4.60236,-3.86598 1.47275,-3.1296 7.36377,-4.60235 5.89102,-1.47276 11.22975,-13.62298 15.09573,-10.49338 3.86598,3.12961 2.39322,4.97055 5.70692,6.99558 3.3137,2.02504 2.57732,5.70693 6.4433,3.12961 3.86598,-2.57732 5.15464,1.47275 5.15464,-4.78645 0,-6.25921 -0.18409,-3.49779 -0.36819,-8.46834 -0.18409,-4.97054 -1.47275,-5.70692 0,-8.28424 1.47275,-2.57732 -2.76141,-8.46833 3.3137,-3.1296 6.07511,5.33873 6.2592,3.31369 7.17967,8.46833 0.92048,5.15464 0.92048,4.05008 0.92048,9.02062 0,4.97055 1.65684,7.54787 5.33873,9.94109 3.68188,2.39323 6.28757,1.63803 6.28757,1.63803 z"
       id="path4" /></g></svg>
