<?xml version="1.0" encoding="UTF-8" standalone="no"?>
<!-- Created with Inkscape (http://www.inkscape.org/) -->

<svg
   width="500mm"
   height="500mm"
   viewBox="0 0 500 500"
   version="1.1"
   id="svg1"
   inkscape:version="1.4 (86a8ad7, 2024-10-11)"
   sodipodi:docname="central-island.svg"
   xmlns:inkscape="http://www.inkscape.org/namespaces/inkscape"
   xmlns:sodipodi="http://sodipodi.sourceforge.net/DTD/sodipodi-0.dtd"
   xmlns="http://www.w3.org/2000/svg"
   xmlns:svg="http://www.w3.org/2000/svg">
  <sodipodi:namedview
     id="namedview1"
     pagecolor="#ffffff"
     bordercolor="#000000"
     borderopacity="0.25"
     inkscape:showpageshadow="2"
     inkscape:pageopacity="0.0"
     inkscape:pagecheckerboard="true"
     inkscape:deskcolor="#d1d1d1"
     inkscape:document-units="mm"
     inkscape:zoom="0.50813283"
     inkscape:cx="1245.7373"
     inkscape:cy="855.09138"
     inkscape:window-width="2560"
     inkscape:window-height="1351"
     inkscape:window-x="-9"
     inkscape:window-y="-9"
     inkscape:window-maximized="1"
     inkscape:current-layer="layer2"
     showguides="false"
     showborder="true">
    <sodipodi:guide
       position="224.59499,720.9131"
       orientation="0,-1"
       id="guide1"
       inkscape:locked="false" />
  </sodipodi:namedview>
  <defs
     id="defs1" />
  <g
     inkscape:groupmode="layer"
     id="layer2"
     inkscape:label="Layer 2">
    <circle
       id="path1"
       style="fill:#000000;stroke:none;stroke-width:0.264583"
       cx="320.22876"
       cy="205.15469"
       r="0.14999999" />
    <path
       style="fill:#000000;stroke-width:0.1;stroke-dasharray:0.1, 0.1;paint-order:stroke fill markers"
       d="m 223.37909,414.47495 c -13.20618,-3.40577 -25.85082,-3.40995 -39.05229,-7.81045 -0.86277,-0.2876 -10.3775,-3.64958 -11.97603,-5.72767 -2.50504,-3.25655 -0.60138,-9.40917 0,-13.01743 0.71913,-4.31477 -7.92003,-11.79282 -10.93464,-13.53812 -2.12055,-1.22769 -6.77398,-2.6911 -9.37255,-3.1242 -0.2168,-0.0361 -6.47521,-0.46913 -7.81046,-1.0414 -0.45123,-0.19335 -0.60231,-0.82184 -1.04139,-1.04137 -0.98184,-0.49093 -2.1605,-0.51575 -3.12419,-1.0414 -0.97566,-0.53218 -1.59639,-1.61282 -2.60349,-2.0828 -1.64207,-0.76629 -3.5181,-0.9053 -5.20697,-1.56207 -4.21759,-1.64018 -8.04825,-4.10597 -11.97603,-6.24838 -0.82055,-0.44757 -1.83777,-0.50538 -2.60349,-1.0414 -4.69932,-3.28951 -7.31679,-9.53222 -10.41394,-14.05882 -1.82309,-2.66451 -3.68325,-5.31172 -5.72767,-7.81044 -4.340621,-5.30522 -18.276085,-16.06217 -19.786493,-21.3486 -1.070134,-3.74547 1.833848,-9.84813 3.644882,-13.01742 0.601006,-1.05177 1.643917,-1.61787 1.041394,-3.1242 -0.232418,-0.58102 -0.737481,-1.01505 -1.041394,-1.56207 -2.396189,-4.31316 -0.801812,-2.52444 -4.165579,-7.28977 -1.14123,-1.61674 -2.510026,-3.06504 -3.644879,-4.68628 -1.297757,-1.85393 -2.339835,-3.87884 -3.644881,-5.72767 -2.114484,-2.99551 -3.406934,-3.42614 -5.206971,-6.76905 -0.520433,-0.96652 -0.515747,-2.16051 -1.041395,-3.1242 -0.532178,-0.97565 -1.522807,-1.64351 -2.082789,-2.60347 -1.332072,-2.28356 -2.518678,-4.71637 -3.124184,-7.28977 -0.658861,-2.80016 -0.520695,-6.47838 -0.520695,-9.37255 0,-5.5541 0,-11.10821 0,-16.66231 0,-2.08279 0.258336,-4.18166 0,-6.24837 -0.551696,-4.41356 -4.189685,-8.5906 -6.769066,-11.97603 -1.093126,-4.7662 -5.684281,-6.49013 -8.331155,-9.89325 -0.476546,-0.6127 -0.590229,-1.45116 -1.041394,-2.08279 -1.336913,-1.87168 -3.108719,-3.61395 -4.165576,-5.72767 -1.506763,-3.01352 -2.08279,-8.23664 -2.08279,-11.45533 0,-2.97697 -0.272312,-4.1257 0.520698,-6.76907 1.083376,-3.61125 4.186957,-5.74904 6.769062,-8.33115 5.174234,-5.17423 8.759204,-10.72818 16.66231,-11.97604 7.940106,-1.2537 15.115328,3.72857 22.389981,-1.56209 1.383115,-1.0059 5.286367,-4.40492 6.248365,-5.72767 0.549752,-0.75591 0.654622,-1.75258 1.041395,-2.60348 2.312691,-5.08793 4.838957,-13.13618 9.372554,-16.66231 3.3171,-2.57997 6.55279,-2.17447 10.41394,-2.60349 0.92896,-0.10322 1.69671,-0.8147 2.60348,-1.04139 0.16839,-0.0421 0.39797,0.12273 0.5207,0 0.44251,-0.44251 0.65046,-1.07343 1.0414,-1.56209 0.30667,-0.38335 0.82184,-0.60231 1.04139,-1.0414 1.40501,-2.81001 0.3293,-17.23817 1.56209,-18.2244 1.93753,-1.55003 9.42054,-2.61308 11.97604,-3.12418 8.86707,-1.77342 11.11857,-2.89825 21.34858,-6.769068 1.5988,-0.604951 3.25109,-1.154141 4.68628,-2.082786 1.54903,-1.002316 2.92447,-2.279672 4.16557,-3.644882 1.5811,-1.739212 1.93191,-5.795722 2.60349,-7.810457 0.46895,-1.406848 1.15469,-2.739689 1.56209,-4.165579 0.35186,-2.111169 0.45883,-3.26508 1.0414,-5.206971 0.31542,-1.05143 0.86092,-2.041393 1.04139,-3.124184 0.1712,-1.027224 -0.27401,-2.119482 0,-3.124182 1.70219,-6.241383 11.50858,-10.825638 16.66231,-13.538128 1.58132,-0.832273 2.9645,-2.125213 4.68627,-2.603484 1.50511,-0.418084 3.12419,0 4.68628,0 1.56209,0 3.23591,-0.580147 4.68627,0 3.12219,1.248873 4.16558,7.173193 4.16558,9.893247 0,1.499362 -1.60738,8.195275 -1.04139,9.893244 0.10977,0.329319 0.9572,-0.336767 1.04139,0 0.16839,0.673534 -0.19073,1.415241 0,2.08279 0.17192,0.601723 0.71942,1.025472 1.04139,1.562092 2.2099,3.683161 4.30114,7.409029 6.76907,10.934641 0.48684,0.695489 2.74918,2.707386 3.12418,3.644879 1.10714,2.767841 2.39808,5.947436 3.12419,8.851852 0.12628,0.505151 -0.12629,1.056942 0,1.562096 0.6352,2.54084 2.28713,3.19689 2.60348,5.72766 0.59444,4.75549 1.41691,9.50609 3.12418,14.05883 0.31075,0.82866 0.12491,1.8119 0.5207,2.60348 0.61804,1.23608 2.61268,2.08739 3.64488,2.60349 2.09256,1.04628 13.11929,7.23883 15.10022,6.24837 3.27483,-1.63742 3.80049,-6.25942 5.72767,-9.37255 0.58497,-0.94495 1.29694,-1.81763 2.08279,-2.60349 0.12273,-0.12273 0.46581,0.16466 0.52069,0 0.16466,-0.49397 -0.0736,-1.04663 0,-1.56209 0.48507,-3.39546 0.68987,-0.81949 1.0414,-4.68628 0.33604,-3.69643 -0.0218,-8.49153 1.56209,-11.97603 1.33264,-2.931807 4.34025,-5.94907 7.28976,-7.289759 4.14452,-1.883873 2.23169,-0.04742 6.24838,-2.603487 1.86438,-0.262313 2.31344,-2.236555 3.64487,-3.124184 0.14441,-0.09628 0.39796,0.12273 0.5207,0 1.06823,-1.068245 1.02537,-7.107515 1.56207,-8.851852 0.38876,-1.263383 1.11753,-2.400049 1.5621,-3.644879 2.19033,-6.132891 0.41606,-1.245627 1.0414,-6.248366 0.18394,-1.471496 1.1547,-2.739689 1.5621,-4.165578 0.84712,-2.964993 -0.58113,-8.259231 0,-11.455339 0.19635,-1.080019 0.84503,-2.044163 1.04138,-3.124182 0.205,-1.127374 -0.53427,-3.898437 1.0414,-4.686276 0.8918,-0.445897 9.07761,0 9.89325,0 5.5541,0 11.10821,0 16.66232,0 0.69643,0 0.76012,-0.640413 1.56207,-1.041392 2.92473,-1.462357 6.70634,-2.836862 9.89325,-1.562092 1.08106,0.432414 2.30089,0.738796 3.1242,1.562092 0.54885,0.548862 0.64203,1.417193 1.0414,2.082787 1.37718,2.295313 2.53206,3.161871 3.12417,5.727671 1.00198,4.341868 1.00602,12.386688 0,16.662309 -0.30276,1.286698 -1.2415,2.36251 -1.5621,3.644879 -0.21048,0.841918 0.14266,1.747465 0,2.603487 -0.0403,0.242117 -0.44307,0.287835 -0.5207,0.520697 -0.78071,2.342126 -0.67196,6.734204 -0.5207,8.851853 0.21481,3.007399 1.85716,4.623797 3.6449,6.769062 1.29762,1.557158 0.77801,1.846356 2.60347,3.124185 4.11279,2.878952 9.00261,4.799344 13.01742,7.810454 0.76944,0.57708 5.26564,4.59089 5.72768,5.20697 2.85697,3.8093 6.33902,12.45249 6.76907,17.18301 0.60119,6.61301 -1.15001,15.16986 -4.68627,20.82789 -2.21528,3.54443 -5.40219,6.70378 -6.24838,10.93464 -0.78038,3.90196 0.65249,8.33765 1.5621,11.97604 1.0414,4.16557 -0.17356,-1.90923 1.5621,1.56208 0.33015,0.6603 0.60095,7.48939 0.52068,7.81046 -0.49469,1.97884 -1.62079,2.44587 -2.60348,4.16558 -0.57766,1.01091 -1.12966,2.04315 -1.5621,3.12418 -0.21013,0.52537 -0.20537,6.67365 0,7.28977 1.02439,3.07313 2.85504,2.78308 5.72768,3.64487 0.74348,0.22305 1.35601,0.76885 2.0828,1.0414 1.34011,0.50255 2.83667,0.50984 4.16557,1.04139 1.45195,0.58078 2.1989,3.053 2.60347,4.16558 3.02062,8.30668 1.21907,17.39759 2.0828,26.03486 0.31856,3.18568 1.68895,6.22179 2.08278,9.37255 0.73692,5.89518 -0.9031,5.77846 2.0828,12.49673 0.73459,1.65284 0.63738,2.68127 2.0828,3.64488 0.64585,0.43057 1.46182,0.57567 2.08277,1.0414 4.07003,3.05252 0.28128,1.20212 3.64487,3.12418 2.34596,1.34055 4.87045,2.08733 7.28978,3.12418 0.5752,0.24652 0.96036,0.86947 1.5621,1.0414 1.36731,0.39066 3.92599,-0.64048 5.20697,0 5.91172,2.95586 11.27985,6.86368 16.1416,11.45533 3.63529,3.43334 4.61904,5.07249 6.76907,9.37255 0.41799,0.83601 0.57766,1.79197 1.0414,2.6035 0.24355,0.42622 0.88614,0.57566 1.04137,1.04138 0.0776,0.23286 -0.44307,0.28784 -0.52067,0.5207 -0.12491,0.3747 -0.0859,3.49456 0,3.64487 0.49919,0.87363 3.99812,3.72769 4.68627,4.1656 4.75139,3.0236 12.68609,4.73789 18.2244,6.24835 2.72589,0.74342 5.60527,0.81867 8.33114,1.5621 3.66178,0.99867 0.61521,0.87092 3.64488,2.0828 0.32231,0.1289 0.73091,-0.15526 1.0414,0 0.4391,0.21952 0.65804,0.73472 1.0414,1.04137 3.90644,3.12515 5.52317,5.33768 6.24837,10.41395 0.10403,0.72829 0.31901,5.823 0,6.24837 -1.14279,1.52374 -4.62862,1.83359 -6.24837,2.0828 -6.56027,1.00925 -13.92555,2.21427 -20.3072,-0.5207 -3.67704,-1.57589 -7.43696,-3.5691 -10.41394,-6.24837 -1.64203,-1.47783 -2.76821,-3.59024 -4.68628,-4.68628 -4.85984,0 -0.5207,0.5207 -1.56207,-0.5207 -0.35049,-0.35046 -10.30187,0 -10.93465,0 -0.36679,0 -8.39266,-0.48995 -9.37255,0 -0.4391,0.21955 -0.65807,0.73472 -1.0414,1.0414 -0.48865,0.39092 -1.11958,0.59889 -1.5621,1.0414 -0.27442,0.27443 -0.19777,0.82611 -0.5207,1.04138 -0.28881,0.19256 -0.75255,-0.19254 -1.04137,0 -0.32292,0.21529 -0.19777,0.82613 -0.5207,1.0414 -0.28884,0.19256 -0.71911,-0.12891 -1.0414,0 -2.0452,0.81809 -1.51799,1.51799 -3.12417,3.1242 -0.73824,0.73821 -2.31818,1.09135 -1.5621,2.60347 0.38809,0.77621 1.11559,1.33863 1.5621,2.0828 1.40031,2.33384 2.8195,5.06854 3.12417,7.81045 0.39831,3.58476 -0.19997,7.33499 0,10.93464 0.0872,1.56927 0.4087,3.11857 0.5207,4.68628 0.0865,1.21187 -0.54335,2.55817 0,3.64487 1.05569,2.11138 4.48151,3.88811 5.72767,5.72767 1.57539,2.32559 8.54787,13.97159 10.93463,18.7451 1.64123,3.28247 2.8099,7.28662 4.68627,10.41394 1.31582,1.31583 0.82185,0.6023 1.5621,2.0828 1.63745,3.27489 -1.29662,-2.84845 1.0414,4.16558 0.73636,2.20911 2.16059,4.12845 3.12417,6.24835 1.11686,2.45707 2.34889,5.22618 3.1242,7.81047 0.25429,0.84767 0.21823,1.77175 0.5207,2.60347 0.71671,1.97094 1.66558,3.85189 2.60348,5.72768 1.05735,2.1147 1.60149,1.49357 2.60347,4.16557 0.80841,2.15572 -2.02808,1.64415 -1.04137,3.1242 1.78178,2.67266 4.07209,2.8321 6.76904,4.68627 5.0106,3.44477 18.10549,21.69218 10.41395,27.07624 -3.61929,2.53352 -16.78654,3.52343 -21.34857,2.0828 -5.28608,-1.66931 -13.47819,-5.60776 -16.14162,-10.93464 -0.2036,-0.40717 -3.01985,-9.21499 -3.1242,-9.89325 -0.42225,-2.74476 0,-5.55411 0,-8.33115 0,-1.21496 0,-2.42993 0,-3.6449 0,-0.17356 0.13703,-0.41412 0,-0.5207 -5.91262,-4.59869 -13.28629,-5.92931 -19.26579,-10.41392 -1.20666,-0.905 -3.50954,-3.9706 -4.16558,-4.68627 -3.15055,-3.43699 -6.86024,-7.04435 -10.93464,-9.37257 -3.70824,-2.119 -7.75052,-3.02602 -11.97602,-2.60348 -1.83028,0.18304 -3.39204,1.30067 -5.20698,1.0414 -4.95644,-0.70808 -9.6226,-3.71496 -14.57952,-4.16557 -6.49914,-0.59084 -11.03124,0.99716 -17.18302,2.08277 -1.37803,0.24318 -2.81553,0.15251 -4.16557,0.5207 -2.46753,0.67297 -2.75151,5.6147 -3.64487,7.28978 0.15081,2.67401 -2.54715,3.03966 -3.64488,4.68627 -0.0963,0.14441 0.16838,0.4786 0,0.5207 -1.17522,0.29379 -6.04358,-0.5061 -6.24837,-0.5207 -3.07756,-0.21984 -6.79799,-0.30954 -9.89325,0 -0.88061,0.088 -1.72389,0.42296 -2.60347,0.5207 -0.69003,0.0767 -1.40928,-0.16841 -2.0828,0 -0.75303,0.18825 -1.33644,0.82814 -2.0828,1.04137 -0.50065,0.14306 -1.04847,-0.0856 -1.56208,0 -1.89417,0.3157 -3.79457,0.82661 -5.72767,1.0414 -0.86251,0.0958 -1.73866,-0.0721 -2.6035,0 -3.34278,0.27858 -6.59962,1.19613 -9.89323,1.5621 -2.76008,0.30668 -6.15873,-0.67328 -8.85185,0 -0.96465,0.24117 -2.2125,1.2582 -3.12419,1.5621 -1.00253,0.33417 -2.57642,0 -3.64488,0 -4.283,0 -8.73455,-0.30594 -13.01743,0 -1.73988,0.12428 -3.47131,0.34711 -5.20697,0.52068 z"
       id="path2" />
  </g>
</svg>
