<?xml version="1.0" encoding="UTF-8" standalone="no"?>
<!-- Created with Inkscape (http://www.inkscape.org/) -->

<svg
   width="500mm"
   height="500mm"
   viewBox="0 0 500 500"
   version="1.1"
   id="svg1"
   inkscape:version="1.4 (86a8ad7, 2024-10-11)"
   sodipodi:docname="central_island.svg"
   xmlns:inkscape="http://www.inkscape.org/namespaces/inkscape"
   xmlns:sodipodi="http://sodipodi.sourceforge.net/DTD/sodipodi-0.dtd"
   xmlns="http://www.w3.org/2000/svg"
   xmlns:svg="http://www.w3.org/2000/svg">
  <sodipodi:namedview
     id="namedview1"
     pagecolor="#ffffff"
     bordercolor="#000000"
     borderopacity="0.25"
     inkscape:showpageshadow="2"
     inkscape:pageopacity="0.0"
     inkscape:pagecheckerboard="true"
     inkscape:deskcolor="#d1d1d1"
     inkscape:document-units="mm"
     inkscape:zoom="0.50813283"
     inkscape:cx="718.31611"
     inkscape:cy="1028.2744"
     inkscape:window-width="2560"
     inkscape:window-height="1351"
     inkscape:window-x="-9"
     inkscape:window-y="-9"
     inkscape:window-maximized="1"
     inkscape:current-layer="layer2"
     showguides="true"
     showborder="true" />
  <defs
     id="defs1" />
  <g
     inkscape:groupmode="layer"
     id="layer1"
     inkscape:label="Layer 3"
     style="fill:#000000">
    <path
       style="fill:#477544;fill-opacity:1;stroke-width:0.1;stroke-dasharray:0.1, 0.1;paint-order:stroke fill markers"
       d="m 157.77125,100.55964 c 3.05909,-0.19526 3.44961,1.95262 5.14188,-0.976306 1.69227,-2.928922 2.0177,-3.514704 2.0177,-3.970314 0,-0.455609 0.13018,-0.585784 -0.58578,-1.301744 -0.71596,-0.715958 -0.84614,-0.520698 -0.78105,-1.497005 0.0651,-0.976307 0.58578,-0.520697 0.0651,-2.147874 -0.5207,-1.62718 -0.91122,-0.390525 -1.17157,-3.319447 -0.26035,-2.928921 -0.13018,-5.922928 -0.0651,-6.769063 0.0651,-0.846132 2.14788,-2.212961 2.92892,-1.692264 0.78105,0.520697 1.49701,1.301742 2.01771,1.952614 0.52069,0.65087 0.32543,0.45561 0.91122,1.106483 0.58578,0.650869 0.84613,1.236654 1.62717,1.106479 0.78105,-0.130172 0.84614,0.06509 1.10649,-0.325435 0.26034,-0.390522 0.78104,-0.650872 0.39052,-1.692267 -0.39052,-1.041392 -0.45561,-0.650869 -0.45561,-1.497004 0,-0.846132 -0.0651,-0.45561 0.19526,-1.692265 0.26035,-1.236657 1.04139,-0.130175 0.32544,-1.692267 -0.71596,-1.562089 -0.97631,-1.366829 -1.0414,-2.343136 -0.0651,-0.976308 -0.13017,-0.390523 -0.0651,-1.301742 0.0651,-0.91122 0.19527,-1.23666 0.0651,-1.82244 -0.0844,-0.379705 1.23618,-2.079734 3.35351,-3.095923 1.14916,-0.551524 3.28002,-0.862066 3.80608,-0.809306 1.27567,0.127939 2.40822,0 3.5147,0.65087 1.10649,0.650872 3.51471,2.408224 2.86384,2.668574 -0.65087,0.260348 -1.82245,0.406793 -3.0591,0.79732 -1.23666,0.390522 1.30175,2.196691 1.69227,3.042824 0.39052,0.846132 -1.36683,1.171567 1.56209,1.887526 2.92892,0.71596 3.38453,1.887527 4.62119,0.260348 1.23665,-1.627177 0.9763,-0.520695 1.95261,-2.668572 0.97631,-2.147877 1.0414,-1.041394 1.30175,-3.059096 0.26034,-2.017702 0.19526,-0.91122 0.32543,-2.994009 0.13018,-2.082787 0,-1.627177 0.32544,-3.775054 0.32543,-2.147877 2.08278,-4.816449 2.79874,-5.337146 0.71596,-0.520697 0.26204,-0.930283 1.36683,-0.91122 2.0835,0.03595 2.47332,-0.520697 2.86384,0.781045 0.39052,1.301745 0.65087,1.236657 0.45561,2.798747 -0.19526,1.562092 -0.26035,2.473311 -0.71596,3.319446 -0.45561,0.846132 -0.97631,0.19526 -0.84613,2.798747 0.13017,2.603486 0.19526,3.059096 0.19526,3.970316 0,0.91122 0.5207,0.715957 -0.78105,2.212962 -1.30174,1.497004 -1.95261,2.278052 -2.47331,3.319446 -0.5207,1.041392 -0.91122,1.497002 -0.97631,2.863834 -0.0651,1.36683 2.27805,3.775054 3.5798,5.988016 1.30174,2.212964 1.29482,-0.434838 1.98517,-1.171215 0.69036,-0.736378 1.10457,-0.414213 1.51878,-0.506259 0.41421,-0.09205 0.32216,-0.828424 0.92047,-0.506259 0.59831,0.322164 0.82843,0.184094 1.47275,1.150588 0.64434,0.966496 0.92048,1.564801 1.05855,2.301179 0.13807,0.736375 0.13807,0.92047 0.5983,1.610823 0.46024,0.690354 0.73638,0.230119 0.73638,1.472756 0,1.242636 -1.19661,1.93299 -1.24263,2.439249 -0.046,0.506259 -0.0921,-0.552284 -0.73638,1.058542 -0.64433,1.610823 -0.82843,2.071061 -0.7824,2.761414 0.046,0.690353 0.13807,0.552281 0.36818,1.334683 0.23012,0.782399 6.21319,1.979012 6.67342,2.623343 0.46024,0.644328 0.92047,1.104558 1.38071,1.748888 0.46024,0.64434 0.82842,0.36819 0.46024,1.7489 -0.36819,1.38071 -0.64433,1.65685 -0.55229,2.85346 0.0921,1.19661 0.82843,1.5648 1.10457,2.20913 0.27614,0.64433 1.74889,4.78645 3.1296,5.24669 1.38071,0.46023 3.95802,2.39322 4.14212,3.86598 0.18409,1.47275 0.27614,2.20913 -0.36819,3.86598 -0.64433,1.65685 -1.01252,0.92047 -1.19661,3.22165 -0.18409,2.30117 -0.55228,3.22165 0.27614,4.41826 0.82842,1.19661 0.1841,1.28866 1.93299,2.57732 1.74889,1.28866 2.20913,1.93299 3.68188,2.57732 1.47276,0.64433 1.38071,0.46023 3.4978,1.19661 2.11708,0.73638 1.47275,0.0921 3.86597,1.84094 2.39323,1.7489 1.84095,2.30118 3.86598,2.66937 2.02504,0.36819 2.94551,0.36819 4.8785,0.36819 1.93299,0 1.10457,-0.73638 3.12961,0.092 2.02503,0.82843 2.66936,1.28866 3.22164,1.7489 0.55229,0.46024 2.66937,1.28866 2.48528,0.64433 -0.1841,-0.64433 -0.1841,-0.27614 -1.10457,-2.48527 -0.92047,-2.20913 -1.38071,-2.66937 -1.10457,-3.58984 0.27615,-0.92047 -0.36818,-0.36819 0.55229,-1.5648 0.92047,-1.19661 0.82842,0 1.28866,-2.02504 0.46023,-2.02504 0.18409,-1.47275 0.46023,-3.22165 0.27614,-1.74889 -1.10456,-2.20913 0.92048,-2.66936 2.02503,-0.46024 1.56479,0.82842 2.30117,-0.46024 0.73638,-1.28866 0.46024,-2.20913 0.46024,-4.41826 0,-2.20913 -1.10457,-3.86598 0.36819,-5.70692 1.47275,-1.84095 1.93299,-1.01252 2.66936,-3.22165 0.73638,-2.20913 0.55229,-3.12961 0.82843,-4.14212 0.27614,-1.01252 -0.27614,-0.64433 1.19661,-2.39323 1.47276,-1.74889 1.19661,-1.38071 1.84094,-2.20913 0.64433,-0.82842 1.01252,-0.92047 1.7489,-2.48527 0.73638,-1.5648 0.82842,-0.92047 1.28866,-2.761415 0.46023,-1.840942 0.18409,-2.485271 0.46023,-3.313697 0.27614,-0.828424 -0.27614,-1.840942 0.92047,-1.932988 1.19663,-0.09205 1.65685,0 2.76143,0.736375 1.10455,0.736378 0.92046,1.564802 2.48526,0.920472 1.56479,-0.644329 1.74889,-0.184094 2.30118,-1.288658 0.55229,-1.104567 0.27615,-3.58984 1.01251,-5.430782 0.73639,-1.840941 4.41828,-8.100147 5.33874,-10.401326 0.92048,-2.301177 1.65684,-0.460235 1.01253,-3.497789 -0.64434,-3.037557 -0.46024,-1.93299 -0.64434,-4.602358 -0.1841,-2.669366 -0.64434,-3.037555 -0.27615,-4.602356 0.3682,-1.564801 0.46025,-0.552283 0.73639,-2.301176 0.27615,-1.748896 1.10456,-0.552284 0.1841,-3.773935 -0.92049,-3.221649 -1.47278,-4.78645 -1.19663,-5.430779 0.27614,-0.644329 2.20914,-0.920472 3.58984,-1.012518 1.3807,-0.09205 1.3807,-0.644329 3.22164,-0.09205 1.84095,0.552283 1.28868,0.552283 3.12963,0.828426 1.84092,0.276141 2.48526,0.368189 3.86596,0.368189 h 7.73197 c 1.65685,0 1.93299,0.368187 3.1296,-0.09205 1.1966,-0.460235 3.86598,-1.012518 4.60234,-1.380707 0.73639,-0.368189 2.11709,-1.564802 2.94553,-1.564802 0.82841,0 1.01251,-0.27614 2.48526,-0.184094 1.47275,0.09205 1.1966,0.09205 2.20914,0.736378 1.01251,0.644329 1.1966,0.644329 2.39321,1.564801 1.19663,0.920472 1.65687,0.552283 2.48528,2.485271 0.82844,1.93299 2.39324,10.861561 2.20914,11.966128 -0.1841,1.104566 -0.27615,1.93299 -0.73639,3.129603 -0.46024,1.196612 -0.36819,0.460234 -1.3807,2.025036 -1.01251,1.564801 -1.5648,1.748895 -2.30119,3.405743 -0.73636,1.65685 -0.92046,3.405743 -0.92046,4.510309 0,1.104567 -0.36819,1.748896 -0.64434,2.30118 -0.27614,0.55228 -1.3807,1.196612 -1.93299,1.380706 -0.55226,0.184095 -1.74889,6.167157 -0.55226,5.983063 1.1966,-0.184094 2.11706,-1.380707 3.40574,0.09205 1.28865,1.472755 1.5648,2.301179 1.5648,3.037557 0,0.736375 0,0.552283 -0.27615,1.380707 -0.27614,0.828423 -0.73639,1.104564 -0.73639,2.025036 0,0.920472 0,1.012518 1.01254,2.20913 1.01251,1.19661 -5.33874,2.66937 -3.77394,4.60235 1.5648,1.93299 0.0921,2.85347 3.1296,3.95803 3.03755,1.10457 4.51032,1.84094 5.79898,1.28866 1.28865,-0.55228 -0.1841,-0.55228 2.11709,-1.28866 2.30116,-0.73638 1.93296,-1.01252 3.77391,-1.01252 1.84094,0 3.58984,-0.18409 4.97054,0.55228 1.38073,0.73638 2.48528,1.38071 3.22167,2.02504 0.73636,0.64433 0.92046,0.82843 2.02502,1.7489 1.10458,0.92047 5.15464,3.68188 6.35127,5.98306 1.1966,2.30118 1.1966,1.5648 1.93299,4.05007 0.73636,2.48527 0.92046,1.84095 1.01251,3.86598 0.092,2.02504 -0.0921,1.84095 -0.1841,3.86598 -0.0921,2.02504 -0.46024,2.48528 -0.0921,3.95803 0.3682,1.47275 1.3807,3.3137 1.5648,5.06259 0.1841,1.74889 0.46024,1.47275 -0.36817,4.32622 -0.82843,2.85346 -0.55229,2.85346 -1.93299,5.15464 -1.38073,2.30117 -1.38073,1.84094 -2.94553,4.05007 -1.5648,2.20913 -4.16282,4.36394 -4.55334,6.28401 -0.39053,1.92007 -0.74851,2.2455 -0.94375,3.84014 -0.19526,1.59464 -0.26035,1.33429 -0.39052,3.22181 -0.13018,1.88753 -0.42307,1.88753 -0.16272,2.89638 0.26035,1.00885 0.5207,1.23666 0.71594,1.95261 0.19526,0.71596 0.42306,2.18043 0.7485,3.28691 0.32544,1.10648 0.0326,1.10648 0.61833,2.11533 0.58579,1.00885 0.58579,1.46446 1.23667,1.46446 0.65087,0 0.65087,-0.19526 1.0414,-0.35798 0.39052,-0.16272 0.26035,-0.55324 0.78105,-0.16272 0.52067,0.39053 0.71593,0.48815 0.84611,1.10648 0.13017,0.61833 0.5207,4.42593 0.61833,5.27206 0.0976,0.84614 0.35798,1.39938 0.0651,1.95262 -0.2929,0.55324 -0.19527,0.0325 -0.65088,0.84613 -0.45561,0.81359 -0.71594,1.7899 -1.39935,2.21296 -0.68342,0.42307 -0.97632,0.61833 -1.46447,0.84614 -0.48816,0.2278 -1.00886,0.35798 -1.17158,0.61832 -0.16272,0.26035 0.0976,1.0414 -0.2278,2.37568 -0.32544,1.33429 -0.16272,0.84614 -0.61834,1.98516 -0.45561,1.13903 -0.55324,1.10648 -0.32543,1.85499 0.2278,0.7485 0.2278,0.58578 0.2278,1.36683 0,0.78104 -0.26035,2.08278 -0.26035,2.47331 0,0.39052 0.26035,0.39052 0,1.04139 -0.26032,0.65087 -0.55321,0.71596 -0.39049,1.39938 0.16271,0.68341 0,0.84613 0.42304,1.497 0.42307,0.65087 0.48815,1.07394 1.5621,1.13903 1.07394,0.0651 0.7485,0.32543 1.82245,-0.0326 1.07394,-0.35798 1.07394,-0.35798 1.30172,-0.42306 0.22781,-0.0651 0.55324,-0.37426 0.96004,-0.26035 0.4068,0.1139 1.0414,-0.48816 1.4482,-0.13018 0.4068,0.35798 0.6346,0.60206 0.79732,0.81359 0.16272,0.21154 0.22781,0.30917 0.4068,0.55324 0.17899,0.24408 0.26035,0.34171 0.43934,0.42307 0.17899,0.0814 0.56951,0.14645 0.92747,0.0488 0.35798,-0.0976 0.37425,0.0488 0.84614,-0.13017 0.47188,-0.17899 0.32543,-0.2278 0.61833,-0.19526 0.29289,0.0325 1.35056,0.34171 1.7899,0.45561 0.43934,0.1139 0.11391,-0.0976 0.8136,0.16272 0.69969,0.26035 1.0251,0.37425 1.139,0.61832 0.1139,0.24408 0.17899,0.24408 0.0164,0.56952 -0.16272,0.32543 -0.16272,0.47188 -0.27663,0.82986 -0.1139,0.35798 0.11391,1.23665 0.21154,1.56209 0.0976,0.32544 0.0976,0.4068 0.17899,0.69969 0.0814,0.29289 0.0976,-0.0814 0.0488,0.37425 -0.0488,0.45561 -0.0651,0.7485 -0.0325,0.99258 0.0325,0.24407 0.14645,0.43933 -0.26035,0.45561 -0.40677,0.0163 -0.43931,-0.17899 -0.66712,-0.0325 -0.22781,0.14645 -0.47188,0.35798 -0.48816,0.6346 -0.0164,0.27662 -0.0976,0.32544 0.0164,0.56952 0.1139,0.24407 0.0814,0.21153 0.2278,0.50442 0.14645,0.29289 0.2929,0.37425 0.32544,0.58579 0.0325,0.21153 -0.0488,0.29289 0.19526,0.63459 0.24406,0.34171 0.42305,0.27663 0.71594,0.6346 0.29289,0.35798 0.60206,0.9275 0.65088,1.0414 0.0488,0.1139 0.14644,0.0651 0.50442,0.55324 0.35798,0.48815 0.48816,0.30916 0.84614,0.84613 0.35798,0.53697 0.53697,0.42307 0.37425,0.86241 -0.16271,0.43934 -0.0814,0.40679 -0.42306,0.84613 -0.34171,0.43934 -0.45562,0.61833 -0.35799,1.05767 0.0976,0.43933 -0.0814,1.30174 -0.0325,1.78989 0.0488,0.48816 0.0976,0.53697 0.0814,1.05767 -0.0164,0.5207 -0.0488,0.43934 -0.24408,0.91122 -0.19526,0.47188 -0.35798,0.61833 -0.35798,0.92749 0,0.30916 0.0325,0.47188 0.22781,0.71596 0.19526,0.24408 0.43934,0.61833 0.5207,0.91122 0.0814,0.29289 0.43934,1.9038 0.43934,2.42449 0,0.5207 0.27662,1.20412 -0.0488,1.38311 -0.32544,0.17899 -0.42307,-0.0325 -0.55324,0.37425 -0.13018,0.40679 -0.21154,0.40679 -0.14645,0.76477 0.0651,0.35798 0.27003,4.21723 -0.0521,5.64396 -0.32215,1.42673 -0.96649,0.87445 -0.4142,2.20913 0.55229,1.33469 1.15059,1.5648 1.65684,2.16311 0.50626,0.59831 0.7824,0.41421 0.92049,1.51878 0.13806,1.10456 0.092,1.24264 0.046,1.88696 -0.046,0.64433 -0.046,0.82843 -0.046,1.88697 0,1.05854 0.18407,1.24264 0.55226,3.08358 0.3682,1.84094 0.64434,1.97901 0.41421,2.99153 -0.23011,1.01252 -0.55227,0.82842 -0.69035,1.7489 -0.13806,0.92047 -0.50626,1.33468 -0.046,2.11708 0.46024,0.7824 0.69035,1.19661 1.15059,1.5648 0.46022,0.36819 1.70286,2.57732 2.85345,3.1296 1.1506,0.55229 1.28866,0.41422 1.84095,1.15059 0.55229,0.73638 0.64434,0.59831 0.73639,1.70288 0.092,1.10455 0.092,1.10455 0.046,1.84094 -0.046,0.73636 1.33469,1.84095 2.25515,2.39321 0.92048,0.55229 1.47275,1.05855 1.65684,1.79494 0.1841,0.73636 -0.046,1.0125 0.32219,1.7949 0.36816,0.7824 0.64431,1.01254 0.87444,1.70289 0.23011,0.69035 0.41421,1.5648 0.69036,1.74889 0.27614,0.1841 0.55226,0.9665 1.51876,0.0921 0.96649,-0.87445 0.50628,-0.92048 1.93299,-1.5648 1.42674,-0.64434 1.33469,-0.73639 2.30119,-0.96649 0.96649,-0.23014 1.28865,0.046 2.30118,-0.46025 1.01251,-0.50625 1.24262,-1.0125 1.84092,-1.65684 0.59833,-0.64434 0.82844,-0.59831 1.65685,-0.3682 0.82844,0.23014 0.046,-0.23011 1.28868,0.41421 1.24264,0.64434 1.1966,0.50628 2.02504,0.92048 0.82841,0.41421 0.55226,0.55229 1.93297,0.55229 1.38072,0 1.61083,-0.18409 2.34722,0.64432 0.73636,0.82843 1.10456,0.92048 1.61081,1.61083 0.50625,0.69035 2.5313,1.7489 3.63588,2.48526 1.10455,0.73639 1.7949,0.3682 2.1631,1.47275 0.36819,1.10458 0.23011,1.47278 -0.27615,2.20914 -0.50625,0.73639 -1.0125,0.046 -0.5983,1.28865 0.41421,1.24264 0.69035,1.65685 1.15059,2.02504 0.46022,0.3682 0.55227,0.23014 1.28866,0.59831 0.73636,0.36819 1.28865,0.55229 1.61081,1.01253 0.32218,0.46024 0.50628,1.01251 0.59833,1.24264 0.092,0.23011 0.4142,0.32216 1.33466,1.28866 0.92049,0.96649 1.10458,1.24264 1.93299,1.88695 0.82844,0.64434 0.9665,0.64434 1.5648,1.51879 0.5983,0.87445 0.46024,0.7824 0.82844,1.3807 0.36819,0.5983 0.32216,1.47275 0.13806,1.61084 -0.1841,0.13806 -1.19661,2.1631 -0.32216,3.3597 0.87445,1.19661 0.7824,1.51879 1.65685,2.3472 0.87445,0.82844 6.76547,4.09609 7.73194,4.46429 0.9665,0.36819 3.17564,1.05854 4.23418,1.15059 1.05855,0.0921 1.24265,-0.13806 2.11709,0.13806 0.87445,0.27615 1.19661,0.82844 2.7154,0.9665 1.51876,0.13808 2.02504,0.32218 3.63585,0.59833 1.61083,0.27612 3.58984,0.50625 4.78644,1.0125 1.19663,0.50626 2.02504,0.73639 2.89949,1.1506 0.87445,0.4142 1.33469,0.73636 2.02504,1.05854 0.69035,0.32216 1.933,0.69035 2.43925,1.19661 0.50625,0.50625 0.7824,0.87445 1.24264,1.10455 0.46024,0.23014 0.7824,0.41423 1.3807,0.73639 0.59831,0.32216 0.64434,0.41421 1.65685,2.02504 1.01251,1.61081 1.33469,2.1631 1.979,3.26766 0.64434,1.10458 1.47278,2.39324 1.7489,2.85348 0.27615,0.46021 1.05855,2.02504 1.19663,2.85345 0.13806,0.82844 0.46022,2.43925 0.46022,3.03755 0,0.5983 0.36819,1.28868 -0.046,1.93299 -0.41421,0.64434 -0.13806,1.05855 -2.76141,1.33469 -2.62334,0.27615 -6.99558,0.13806 -7.91607,0.092 -0.92045,-0.046 -0.92045,0.046 -2.62334,-0.092 -1.70286,-0.13808 -2.48526,0.1841 -3.95803,-0.46024 -1.47275,-0.64431 -1.7489,-0.32216 -1.84092,-1.51876 -0.0921,-1.19663 -0.046,-1.56483 -0.55229,-2.02504 -0.50626,-0.46025 -0.50626,-0.7824 -1.1506,-1.05855 -0.64434,-0.27614 -1.47275,-0.50625 -1.88695,-0.13808 -0.41423,0.36819 0.27612,0.50628 -1.33469,0.46024 -1.61084,-0.046 -1.3807,0.4142 -2.30119,-0.32216 -0.92046,-0.73639 -1.05854,-1.1966 -1.47275,-1.1966 -0.4142,0 0,-0.046 -1.24264,-0.32219 -1.24262,-0.27614 -1.3807,0.59831 -2.43925,-0.87444 -1.05854,-1.47275 -0.50625,-1.24265 -1.61081,-2.39321 -1.10458,-1.1506 -0.092,-0.69035 -2.07108,-1.79494 -1.979,-1.10455 0.13809,-1.24264 -2.62334,-1.47275 -2.7614,-0.2301 -2.39321,-0.4142 -2.99151,-0.18409 -0.59833,0.2301 -1.65685,0.46024 -1.65685,0.46024 0,0 -2.34722,0.4142 -3.49779,0.73636 -1.15059,0.32218 -1.93299,0.69038 -3.45178,0.59833 -1.51879,-0.0921 0.36819,-0.13809 -3.58984,-0.32218 -3.95804,-0.1841 -3.7279,-0.3682 -5.38475,-0.3682 -1.65685,0 -1.61083,-0.27612 -3.58984,0.23014 -1.979,0.50625 -2.80744,0.5983 -3.58984,1.1966 -0.7824,0.5983 -1.15059,0.50626 -1.1966,1.51879 -0.046,1.01251 0.4142,1.88696 0.2301,2.02504 -0.18409,0.13806 -0.5983,0.50625 -1.1966,0.69035 -0.5983,0.1841 -0.32218,-0.27614 -2.02504,0.27615 -1.70289,0.55226 -2.1631,0.7824 -2.99154,0.7824 -0.82841,0 -0.092,-0.7824 -1.28865,-0.046 -1.19661,0.73639 -2.1631,-0.1841 -1.47275,1.79493 0.69035,1.97901 1.24264,2.71537 1.70286,2.99151 0.46024,0.27615 0.69035,0.69035 0.69035,1.63386 0,0.94348 0.39121,1.5648 -0.64432,1.88695 -1.03552,0.32216 -0.7594,0.1841 -2.00202,0.39122 -1.24264,0.20709 -1.17361,-0.23014 -2.00202,0.16108 -0.82844,0.39118 -0.64434,0.64431 -1.1506,1.12757 -0.50625,0.48324 -0.64434,0.27615 -0.94347,0.82841 -0.29917,0.55229 -0.69038,0.87445 -0.43723,1.28868 0.25313,0.41421 0.66733,0.73636 1.08154,0.94348 0.41421,0.20709 0.50625,0.39118 0.9665,0.0921 0.46024,-0.29917 0.11506,-0.41423 0.96649,-0.20712 0.85143,0.20712 0.98952,0.0921 1.61084,0.29917 0.62132,0.20708 1.08154,0.18409 1.33466,0.18409 0.25313,0 0.63363,0.13751 0.63363,0.13751 0,0 0.45561,0.13017 0.65087,0.26035 0.19527,0.13014 -0.0325,0.16269 0.8136,0.16269 0.84611,0 0.52067,-0.29287 1.23663,0 0.71596,0.29289 0.74851,0.19526 1.10649,0.5207 0.35798,0.32544 0.26035,0 0.68342,0.7485 0.42307,0.74851 0.5207,0.55325 0.58579,1.26921 0.0651,0.71596 -0.0976,1.43193 -0.35799,2.01771 -0.26035,0.58576 -0.32543,-0.0651 -0.58578,1.23664 -0.26035,1.30175 -0.2929,1.5621 -0.2929,1.85499 0,0.2929 -0.19526,2.31058 -0.0325,2.92891 0.16272,0.61834 0.35798,0.55325 0.48816,1.36684 0.13017,0.8136 0.16271,0.71596 0.16271,1.69228 0,0.97628 -0.13017,0.81359 -0.13017,1.59461 0,0.78105 -0.0651,1.07395 -0.0651,1.78991 0,0.71596 0,0.78105 -0.0651,1.26921 -0.0651,0.48815 0.19527,1.88751 0.48816,2.05023 0.29289,0.16272 0.91123,-0.0976 1.13903,0.55324 0.22781,0.65088 0.2929,0.65088 0.81357,1.59464 0.5207,0.94377 1.26921,1.49702 1.39938,1.52956 0.13018,0.0325 0.45561,0.55322 1.00886,0.65085 0.55324,0.0976 0.39052,-0.16272 0.91122,0.16272 0.5207,0.32543 0.5207,0.0651 0.91123,0.81359 0.39052,0.74851 0.48815,0.97631 0.58576,1.43193 0.0976,0.45561 0.0976,0.68341 0.0976,0.87868 0,0.19526 0.87868,0.7485 1.07394,1.33426 0.19527,0.58579 0.13018,0.87869 0.55325,1.26921 0.42307,0.39053 0.55324,0.42307 0.84613,0.81359 0.2929,0.39053 0.74851,0.45562 0.48816,1.20412 -0.26035,0.74851 -0.45561,0.5207 -0.5207,1.10649 -0.0651,0.58576 -0.13017,0.81357 0.0325,1.30172 0.16272,0.48816 0.97632,1.0414 1.30175,1.13904 0.32544,0.0976 0.13018,0.16271 0.74851,0.0325 0.61831,-0.13018 0.65085,1.20412 1.04137,1.46447 0.39053,0.26035 1.17158,1.20412 1.3343,1.72479 0.16272,0.5207 0.42307,0.5207 0.48815,1.33429 0.0651,0.8136 0.45562,1.72482 0.94377,2.0828 0.48816,0.35799 0.65088,0 0.97632,0.71597 0.32541,0.71593 0.74847,1.62716 0.94374,2.05023 0.19526,0.42306 0.32543,0.71596 0.5207,1.07394 0.19526,0.35798 0.58578,0.97631 0.91122,1.82245 0.32544,0.84611 0.39053,0.6183 0.39053,1.4319 0,0.81359 0.0651,1.62719 0.0976,2.18043 0.0325,0.55324 -0.2929,0.74851 0.45561,1.46447 0.74851,0.71593 0.97631,0.71593 1.20412,1.17155 0.22781,0.45561 0.26035,0.5207 0.39052,0.97631 0.13018,0.45561 0.0326,0.94377 0.0326,1.13903 0,0.19526 1.59462,1.69228 1.62716,2.14786 0.0325,0.45561 0.5207,0.61833 0,1.13903 -0.5207,0.5207 -0.97631,0.26035 -0.94377,1.07395 0.0325,0.81359 0.19526,1.17157 0.55324,1.69227 0.35799,0.5207 0.58579,0.78103 0.94377,0.97629 0.35798,0.19526 0.74851,0.26035 1.0414,0.5207 0.2929,0.26035 0.39053,0 1.00886,0.7485 0.61833,0.74851 0.87868,0.97632 1.17155,1.36684 0.29289,0.39053 0.58579,0.84614 0.58579,0.84614 0,0 -0.78105,-0.81359 0.26035,0.78105 1.0414,1.59462 1.39938,2.24549 1.62718,2.73365 0.22781,0.48815 0.32544,0 0.42307,1.10648 0.0976,1.10649 -0.0325,1.4319 0.0651,2.31058 0.0976,0.87869 0.13017,1.43193 0.58579,2.14789 0.45561,0.71596 0.65087,1.0414 0.84613,1.49701 0.19527,0.45559 0.58577,1.10647 0.87866,1.82243 0.29289,0.71596 0.55324,1.43192 0.91122,2.01771 0.35799,0.58579 0.8136,1.26921 1.13904,1.75734 0.32543,0.48815 0.13017,0.26035 0.78105,1.0414 0.65087,0.78105 0.84613,0.7485 1.49698,1.59464 0.65088,0.84614 0.78105,0.78105 0.94377,1.43193 0.16272,0.65084 0.84614,0.78102 0.16272,1.20409 -0.68342,0.42307 -0.74851,0.42307 -1.23664,0.61833 -0.48815,0.19526 -1.88753,-0.0651 -1.95262,0.35798 -0.0651,0.42307 -0.0976,0.87868 0.45561,1.43192 0.55324,0.55325 0.65088,0.74851 1.17158,1.07395 0.52067,0.32544 0.71593,0.35798 1.39935,0.68339 0.68342,0.32544 0.48816,0.42307 1.36684,0.65088 0.87868,0.2278 0.48815,-0.13018 1.46447,0.35798 0.97631,0.48815 1.20409,0.29289 1.85496,1.0414 0.65088,0.7485 1.98517,1.39938 2.50587,2.3106 0.5207,0.9112 0.74851,1.26918 1.36684,2.21295 0.6183,0.94377 1.20409,1.49701 1.56207,2.31061 0.35798,0.81359 2.57096,4.45847 2.96148,4.97917 0.39053,0.5207 0.39053,0.19526 1.49699,1.72479 1.10649,1.52955 1.36684,1.07394 1.75736,2.86385 0.39053,1.78988 0.45562,1.62716 0.65088,2.89636 0.19526,1.26921 0.39052,1.00886 0.2278,2.47333 -0.16271,1.46444 -0.2278,1.139 -0.5207,2.1804 -0.29289,1.0414 -0.13017,1.39939 -0.5207,1.95263 -0.39052,0.55324 1.30175,1.13903 -1.52955,1.26921 -2.83128,0.13014 -1.92006,0.0651 -4.06794,0.0651 -2.14787,0 -2.73365,-0.16272 -3.93777,0.32541 -1.20412,0.48816 -1.10649,2.63605 -4.06794,1.95263 -2.96148,-0.68342 -3.97031,-0.97631 -4.91408,-1.07394 -0.94377,-0.0976 -0.5207,-0.0326 -2.86385,-0.55325 -2.34313,-0.5207 -1.59462,-0.0651 -3.15672,-0.71593 -1.5621,-0.65088 0.58579,-0.0326 -2.31061,-0.97632 -2.89636,-0.94377 -2.92891,-0.26035 -3.61233,-1.13903 -0.68342,-0.87868 -1.23666,-1.49701 -1.39938,-1.65973 -0.16269,-0.16272 -0.94374,0.74851 -2.27803,-0.45561 -1.3343,-1.20409 -2.14789,-1.72479 -2.57096,-2.27804 -0.42304,-0.55324 -0.42304,-0.0976 -0.55322,-1.00885 -0.13017,-0.91123 0.0651,-1.10649 -0.39052,-1.65974 -0.45561,-0.55321 0.45561,1.23667 -0.74851,-0.91119 -1.20412,-2.14789 -0.71596,-2.44078 -1.46447,-3.80762 -0.7485,-1.36681 -0.78105,-0.94374 -0.94377,-2.96146 -0.16271,-2.01771 0,-1.62718 -0.32543,-4.13303 -0.32544,-2.50587 -0.2929,-1.88753 -0.22781,-3.67741 0.0651,-1.78991 -0.55322,-0.16272 0,-2.92894 0.55324,-2.76619 0.74851,-2.44076 0.58579,-3.22181 -0.16272,-0.78105 -0.22781,-1.33429 -0.22781,-1.33429 0,0 -2.80569,0.008 -5.19893,-1.55699 -2.39323,-1.5648 0.0921,0.0921 -3.40574,-2.30119 -3.49779,-2.39321 -2.9455,-1.84092 -3.95804,-2.85345 -1.0125,-1.01251 -0.64431,-1.47275 -2.48525,-2.02504 -1.84095,-0.55227 -2.66938,-0.27615 -3.68189,-0.73637 -1.01254,-0.46024 -0.92049,0.27615 -2.20914,-1.3807 -1.28865,-1.65687 -0.55229,-0.92048 -2.11709,-3.22167 -1.5648,-2.30116 -0.64431,-0.82841 -2.48526,-4.1421 -1.84094,-3.3137 -1.3807,-2.11709 -3.03757,-4.51033 -1.65685,-2.39321 -1.01251,-2.11706 -2.57731,-3.49779 -1.5648,-1.3807 -0.82844,-1.5648 -2.66935,-1.84092 -1.84095,-0.27615 -0.92049,-1.01253 -3.95804,-1.10458 -3.03755,-0.0921 -0.92048,-1.01251 -6.35124,-0.92046 -5.43079,0.0921 -6.81152,-1.65685 -7.27173,1.28865 -0.46024,2.9455 -0.3682,4.41825 0,4.5103 0.36819,0.092 0.55226,2.30119 -2.57733,0.73639 -3.1296,-1.5648 -3.40575,-1.93299 -5.33874,-2.66938 -1.93299,-0.73636 -3.49779,-2.30116 -4.3262,-2.48526 -0.82844,-0.1841 -1.5648,-0.82844 -4.97054,-0.73639 -3.40575,0.0921 -4.51033,-0.36817 -6.81149,0.0921 -2.30119,0.46024 -1.7489,0.27615 -4.87849,0.55229 -3.12963,0.27615 -3.77394,-0.092 -7.17968,0.27615 -3.40575,0.36819 -2.94553,-0.55229 -3.77394,0.36819 -0.82844,0.92046 -1.5648,-0.55229 -1.5648,2.30116 0,2.85348 1.01251,4.69442 1.28865,5.15464 0.27615,0.46024 0.82844,-0.1841 0.27615,0.92049 -0.55229,1.10455 -0.64434,0.73636 -2.11709,2.30116 -1.47275,1.5648 0.36819,4.69442 -2.66936,4.69442 -3.03757,0 -2.20913,0.73636 -6.44331,0 -4.23416,-0.73639 -4.14211,-1.01253 -6.62739,-1.28868 -2.48526,-0.27612 -3.3137,-0.55226 -4.78645,-0.82841 -1.47275,-0.27615 -1.74889,-0.55229 -2.9455,-1.28865 -1.19663,-0.73639 -0.82844,-1.84095 -2.76143,-1.01254 -1.93299,0.82844 -2.9455,1.84095 -3.58984,2.57734 -0.64431,0.73636 -0.0921,0.36819 -1.10455,0.73636 -1.01251,0.36819 -3.68189,2.11709 -7.73196,2.30118 -4.05008,0.1841 -3.3137,0.82841 -6.81149,0 -3.49779,-0.82843 -2.85346,-1.3807 -5.79897,-1.56479 -2.94551,-0.1841 -2.66937,-1.7489 -4.6944,0.46024 -2.02504,2.20911 -0.64433,2.48526 -3.03756,2.9455 -2.39322,0.46024 -2.9455,0 -5.06259,-0.0921 -2.11708,-0.092 -1.28866,0 -4.41826,-0.1841 -3.1296,-0.18409 -3.77393,-0.36819 -6.07511,-0.36819 -2.30118,0 -1.84094,-0.0921 -3.68189,0.27614 -1.84094,0.3682 0.46024,-0.092 -3.95802,0.3682 -4.41826,0.46024 -4.41826,0.46024 -5.24669,1.10455 -0.82842,0.64434 -1.19661,0.82844 -2.02503,1.10459 -0.82843,0.27612 0.27614,1.10455 -2.11709,0.27612 -2.39322,-0.82841 -2.85346,-1.19661 -3.68188,-2.02502 -0.82843,-0.82844 -0.1841,-0.82844 -1.84095,-1.65685 -1.65684,-0.82843 -2.9455,-1.38072 -3.58983,-1.56482 -0.64433,-0.18407 0.092,-0.46022 -2.39323,-0.82841 -2.48527,-0.3682 -3.49779,-0.64434 -3.95803,-0.64434 -0.46023,0 -5.61487,-0.46022 -8.46833,-1.28865 -2.85346,-0.82841 -2.66937,-0.73637 -5.61488,-1.5648 -2.9455,-0.82844 -3.86598,0.18409 -5.33873,-1.28866 -1.47275,-1.47275 -3.03756,-5.61488 -3.1296,-6.81148 -0.0921,-1.19663 -0.55228,-0.0921 -0.1841,-2.02504 0.36819,-1.933 0.0921,-1.7489 0.64433,-4.32623 0.55229,-2.57731 3.4978,-0.73636 -0.27614,-7.08761 -3.77393,-6.35127 -3.03755,-5.70693 -4.32621,-6.99558 -1.28866,-1.28868 -3.03756,-2.66938 -4.23417,-3.31372 -1.19661,-0.64432 -0.46024,-1.28865 -3.1296,-1.3807 -2.66937,-0.0921 -2.85346,-0.46022 -5.24669,-0.27615 -2.39322,0.1841 -5.43078,-0.27612 -6.07511,-0.18407 -0.64433,0.0921 -0.64433,0.36817 -2.57732,-0.27615 -1.93299,-0.64434 -3.22165,-0.73638 -3.77393,-1.28867 -0.55228,-0.55227 -0.46024,-0.73637 -1.19661,-1.7489 -0.73638,-1.01251 -1.38071,-1.5648 -2.39323,-1.74887 -1.01252,-0.1841 -1.5648,-0.92049 -3.49779,-1.01253 -1.93299,-0.0921 -3.1296,0.46024 -5.79897,-1.38071 -2.66937,-1.84094 -1.93299,-1.3807 -4.23417,-3.22164 -2.30117,-1.84095 -6.90353,-4.14213 -9.20471,-5.61488 -2.30118,-1.47275 -3.03755,-1.01251 -3.68189,-3.3137 -0.64432,-2.30118 -0.64432,-2.20914 -1.47275,-4.5103 -0.82842,-2.30118 -0.36819,-2.20914 -1.84094,-4.60237 -1.47276,-2.39321 -0.92047,-2.57731 -2.85346,-4.5103 -1.93299,-1.93299 -0.27614,-1.5648 -3.22165,-2.48528 -2.94551,-0.92046 -3.221649,-0.64432 -6.167158,-1.19661 -2.945508,-0.55229 -4.694404,-0.27614 -5.430782,-1.3807 -0.736375,-1.10458 -1.564801,-2.20914 -1.564801,-3.68189 0,-1.47275 -1.012518,-2.48528 1.012518,-2.39323 2.025039,0.092 1.472756,1.74889 3.681886,-0.1841 2.209131,-1.93297 2.85346,-1.5648 2.945508,-3.40575 0.09205,-1.84094 1.380707,-0.092 0,-2.66935 -1.380707,-2.57733 -0.460234,-2.30119 -2.853459,-3.58984 -2.393228,-1.28865 -1.380707,-0.55229 -4.23417,-2.20914 -2.853459,-1.65685 -2.393225,-1.5648 -4.602355,-3.95801 -2.209131,-2.39323 0,-2.57733 -2.669368,-3.12962 -2.669366,-0.55227 -1.196613,-1.5648 -3.497789,-0.46022 -2.301179,1.10456 -1.564802,0.3682 -2.669368,1.38071 -1.104564,1.0125 -0.552284,1.65684 -2.209131,0.55229 -1.656847,-1.10459 -1.93299,0.092 -2.20913,-1.84095 -0.276143,-1.93299 -1.564802,-1.47275 0.27614,-3.40574 1.840944,-1.93299 0.828424,-0.82844 3.129603,-3.12962 2.301179,-2.30117 3.221648,-3.40575 3.221648,-3.40575 0,0 5.798971,-2.7614 5.798971,-5.61485 0,-2.85348 0.92047,-2.11709 -1.65685,-5.70693 -2.577319,-3.58984 -1.840942,-2.11709 -3.773932,-5.15464 -1.93299,-3.03755 -2.025036,-3.58984 -2.577319,-5.70693 -0.552284,-2.11707 -1.196613,-2.57731 -5.062591,-6.0751 -3.86598,-3.49779 -6.167159,-1.5648 -6.259205,-5.52283 -0.09205,-3.95804 0.736378,-4.5103 0.184094,-7.82401 -0.552283,-3.31369 -1.288661,-2.11708 -1.748895,-6.90353 -0.460235,-4.78645 -0.828424,-4.97055 -0.552284,-6.62739 0.276143,-1.65685 -0.368189,-2.02504 1.104567,-3.4978 1.472753,-1.47275 1.012518,-3.1296 3.037554,-5.15463 2.025036,-2.02504 3.865981,-1.56481 1.93299,-5.43079 -1.93299,-3.86597 -0.09205,-2.9455 -2.669368,-4.51031 -2.577319,-1.56479 -3.313694,-0.82842 -3.405743,-3.40574 -0.09205,-2.57732 0.276143,-3.40574 -0.920469,-5.70692 -1.196615,-2.30118 -0.552284,-2.57732 -2.301179,-3.22165 -1.748896,-0.64433 -2.57732,0.46023 -3.313698,-2.02504 -0.736377,-2.48527 -0.184094,-3.03755 -2.853459,-4.97054 -2.669368,-1.93299 -0.920473,-2.39323 -4.326216,-3.86598 -3.405743,-1.47275 -3.589837,-1.01252 -5.430782,-3.95803 -1.840941,-2.94551 -1.104563,-1.65684 -2.301176,-4.60235 -1.196612,-2.94551 -2.117085,-0.92048 -1.748896,-4.78645 0.368189,-3.86598 -0.184094,-3.40575 0.736378,-4.97055 0.920469,-1.5648 1.288658,-1.5648 1.288658,-4.51031 0,-2.94551 -1.748895,-1.5648 0.09205,-4.14212 1.840942,-2.57732 2.577319,-4.51031 5.06259,-4.78645 2.485274,-0.27614 2.945509,-2.11708 3.958027,0.1841 1.012518,2.30117 -1.380707,2.20913 1.564801,2.66936 2.945508,0.46024 3.129603,0.27614 3.958026,0.46024 0.828424,0.18409 1.196613,0.18409 1.65685,0.18409 0.460235,0 1.656848,-0.092 3.221649,0.64433 1.564801,0.73638 1.196612,0.73638 3.037554,1.93299 1.840942,1.19661 2.761414,3.86598 4.326215,1.19661 1.564802,-2.66936 1.564802,-1.74889 1.564802,-3.1296 0,-1.3807 1.93299,-0.18409 0,-2.30118 -1.93299,-2.11708 -1.93299,-2.11708 -2.945509,-3.22164 -1.012518,-1.10457 -0.184094,-2.11709 -1.93299,-1.7489 -1.748896,0.36819 -0.920469,0.0921 -2.669365,0.36819 -1.748896,0.27614 -3.037557,-2.30118 0.552283,-4.05008 3.589838,-1.74889 1.380707,-0.82842 4.78645,-2.11708 3.405743,-1.28866 2.57732,-2.94551 5.614874,-1.65685 3.037557,1.28866 0.552283,0.73638 4.878498,1.5648 4.326216,0.82843 4.602356,1.19662 6.167157,0.82843 1.564802,-0.36819 2.669368,0.36819 2.85346,-2.20913 0.184095,-2.57732 -0.184092,-1.28867 0.276143,-3.40575 0.460235,-2.11708 -1.012518,-1.3807 1.196613,-2.94551 2.20913,-1.5648 2.761414,-1.5648 3.037554,-3.95802 0.276143,-2.39323 0.768104,-2.22916 1.418976,-3.17293 0.650872,-0.94376 0.260347,-0.13017 1.041395,-1.52954 0.781045,-1.39938 0.45561,-0.0325 0.943763,-1.82244 0.488154,-1.7899 0.19526,-1.72481 0.585785,-2.11534 0.390522,-0.39052 1.139023,-1.65972 1.854983,-2.70111 0.715957,-1.0414 0.162716,-0.68342 1.334286,-1.69227 1.171568,-1.00885 0.683418,-0.68341 1.594638,-1.46446 0.91122,-0.78104 0,0 1.59463,-1.39937 1.59464,-1.39938 1.69227,-3.18927 2.40823,-1.59464 0.71595,1.59464 0.61832,1.46446 0.71595,1.82244 0.0976,0.35798 0.0651,0.55324 0.61833,0.68342 0.55324,0.13017 0.13018,0.35798 1.13903,-0.0325 1.00885,-0.39052 0.68341,-0.45561 1.46446,-0.65087 0.78104,-0.19526 2.96146,-0.87867 3.54725,-0.71596 0.58578,0.16272 1.75735,0.39053 2.11533,0.5207 0.35798,0.13018 0.35798,0.61833 1.36683,0.16272 1.00885,-0.45561 0.45561,-0.19526 1.52955,-0.84613 1.07394,-0.65087 0.5207,-0.26035 1.65972,-0.68342 1.13902,-0.42307 1.69227,-0.55324 1.59463,-0.97631 -0.0976,-0.42306 0.0651,-0.52069 -0.71595,-1.23665 -0.78105,-0.71596 -0.84614,-0.91122 -1.07394,-1.0414 -0.2278,-0.13017 -0.48815,-0.29289 -0.48815,-1.04139 0,-0.7485 -0.39053,-0.91122 -0.5207,-1.49701 -0.13018,-0.58578 -0.65087,-0.35798 -0.0651,-1.20411 0.58579,-0.84613 0.65087,-1.07394 0.97631,-1.46446 0.32543,-0.39052 1.30174,-1.85498 1.46446,-3.18927 0.16272,-1.33429 0.29289,-1.17157 0.16272,-2.47331 -0.13018,-1.30174 -0.32544,-0.91122 -0.16272,-1.85498 0.16272,-0.94377 0.16272,-0.65087 0.19526,-1.49701 0.0325,-0.84613 -0.16272,-0.5207 0.0976,-1.23665 0.26035,-0.71596 3.35866,-2.76152 4.14106,-3.08368 0.7824,-0.32217 1.19661,-0.82843 2.76142,-0.82843 1.5648,0 1.15059,0.69035 2.9455,-0.46023 1.79492,-1.15059 2.11709,-0.64433 2.71539,-1.7489 0.59831,-1.10456 0.27615,-0.50626 0.82843,-1.65685 0.55228,-1.15059 -0.59831,-1.5648 1.05854,-1.79492 1.65685,-0.23011 2.25515,-0.73637 2.5313,-0.92047 0.27614,-0.18409 3.1296,0.50626 5.52283,-0.23012 2.39322,-0.73637 1.51877,0.046 3.31369,-1.05854 1.79492,-1.10456 1.24264,-0.41421 2.30118,-1.47275 1.05854,-1.05854 0.46023,-0.55228 1.38071,-1.47276 0.92047,-0.92047 0.87444,-1.19661 1.79492,-1.51877 0.92047,-0.32217 1.01251,-0.50626 2.20913,-0.46024 1.19661,0.046 1.33468,0.41421 1.79491,-0.13807 0.46024,-0.55228 0.19789,-1.67257 0.35248,-1.91664 0.15458,-0.24408 0.28475,-0.47189 0.45561,-0.62647 0.17085,-0.15458 0.66714,-0.49629 0.66714,-0.49629 z"
       id="path3"
       sodipodi:nodetypes="csssssssssssssssssssssssssssssssssssssssssssssssssscssssscssssssssssssssssssssssssssssssssssssssssssssssssssssssssssssssssssssssssssssssscsssssssssssssssssssssssssssssssssssssssssssscsssscssccssssssssssccsssssssssssssssssssssssssssssssssssssssssssssssssssssssssssssssssssssssssssssssssssssssscsssssssssssssssssssssssssscsssssssssssssssssssssssssssssssssssssssssssssssssssssscssssssssssssssssssssssssssssssssssssssssssssssssssssccssssssssssssssssssssssssssssssssssssssscsssssssssssssssssssssssssssssssssssssssssssssssssssssscsssssssssssssssssssssssssssssscsssssscsssssssssssssssssssscsssssssssssssssscssssssssssssssssscc" />
  </g>
  <g
     inkscape:groupmode="layer"
     id="layer2"
     inkscape:label="Layer 4">
    <path
       style="fill:#888f8d;fill-opacity:1;stroke-width:0.1;stroke-dasharray:0.1, 0.1;paint-order:stroke fill markers"
       d="m 191.48639,214.26689 c 4.94662,-2.99401 4.81645,0.5207 7.94063,-4.16558 3.12418,-4.68627 1.95261,-4.0354 3.90523,-7.68028 1.95261,-3.64488 1.95261,-6.63889 5.33714,-6.63889 3.38454,0 16.01144,-7.41994 17.18301,-10.93464 1.17157,-3.51471 1.95261,-3.25436 0.5207,-5.85785 -1.43192,-2.60348 -3.25436,-4.29575 2.73366,-4.42592 5.98801,-0.13018 6.11819,-2.86384 8.72168,0.91122 2.60348,3.77505 3.64487,4.94662 4.81644,5.46732 1.17157,0.5207 6.50872,7.41993 13.40796,4.81645 6.89923,-2.60349 7.28976,-0.78105 9.50273,-4.0354 2.21295,-3.25436 1.4319,-1.5621 4.5561,-6.1182 3.12417,-4.5561 0.65087,-3.77505 4.03539,-5.72767 3.38453,-1.95261 5.33715,-3.38453 5.33715,-3.38453 0,0 7.68028,16.92266 5.72768,20.43737 -1.95263,3.5147 -1.5621,1.69226 -4.29575,6.76906 -2.73368,5.0768 -4.03543,3.38453 -2.21298,8.46133 1.82245,5.0768 4.68628,11.97603 5.72768,18.2244 1.0414,6.24837 4.0354,6.11819 1.9526,9.89325 -2.08278,3.77505 -2.08278,2.86383 -4.0354,5.46732 -1.9526,2.60348 -2.34313,3.64488 -2.4733,5.72766 -0.13018,2.08279 0.91122,3.38454 1.69225,4.29576 0.78105,0.91122 5.33715,7.55011 7.28977,9.50272 1.95263,1.95262 0.39053,2.21297 4.94662,3.12418 4.5561,0.91122 8.20098,1.17157 9.6329,4.29576 1.43193,3.12419 1.17158,2.21296 0.91123,6.37854 -0.26035,4.16557 -0.91123,5.46732 0.91122,7.28977 1.82242,1.82242 2.994,2.4733 4.5561,3.90522 1.56207,1.4319 1.56207,-2.0828 2.34312,2.21295 0.78105,4.29575 -1.69225,7.1596 -2.4733,8.33118 -0.78105,1.17154 4.94663,6.89922 6.5087,7.41992 1.5621,0.5207 2.86385,0.26035 3.90525,1.0414 1.04137,0.78105 1.82242,-0.13018 0.78102,2.60347 -1.04137,2.73368 -1.69224,4.5561 -2.73364,5.72767 -1.0414,1.17158 -2.86383,12.88725 1.0414,16.53215 3.90522,3.64487 4.68627,3.64487 7.81044,7.28975 3.1242,3.6449 5.72768,5.46732 4.16558,9.63289 -1.56208,4.16558 -6.24835,1.30175 -1.30173,7.02943 4.94663,5.72767 5.72765,11.45532 3.12418,11.97602 -2.6035,0.5207 -0.78105,2.34315 -9.1122,-0.26035 -8.33117,-2.60348 -9.6329,-1.30173 -11.7157,-5.4673 -2.08277,-4.1656 1.82245,-2.0828 -2.60347,-5.98802 -4.42592,-3.90523 -15.36057,-6.76908 -19.52614,-9.89325 -4.16558,-3.1242 1.30172,-2.6035 -6.76908,-5.72767 -8.0708,-3.12418 -3.64487,-7.28978 -13.53812,-3.64488 -9.89325,3.64488 -23.58712,2.47312 -25.24397,2.84131 -1.65685,0.36819 -4.05008,-1.84094 -6.25921,-4.60235 -2.20913,-2.7614 -2.02504,-3.12959 -3.1296,-4.05008 -1.10457,-0.92046 -1.47275,-2.7614 -3.68189,-2.9455 -2.20913,-0.1841 -1.47275,-1.10456 -6.44329,-0.55229 -4.97055,0.55229 -10.86156,2.20914 -10.86156,2.20914 0,0 -0.1841,0.92046 -1.47276,1.65684 -1.28866,0.73639 0.92047,0.92049 -3.3137,1.28866 -4.23416,0.36819 -4.97054,0.55229 -7.36377,0.36819 -2.39322,-0.1841 -2.02503,-0.36819 -7.73195,-0.36819 -5.70693,0 -3.86598,-1.10456 -7.36377,0.36819 -3.4978,1.47275 -4.23417,1.47275 -5.52283,1.65685 -1.28866,0.1841 -1.10457,3.49779 -7.73196,4.41828 -6.62739,0.92045 -15.83211,-2.02505 -15.83211,-4.78648 0,-2.7614 -2.02503,-4.97054 2.76142,-7.91604 4.78645,-2.9455 3.3137,-2.02504 7.17967,-3.49779 3.86598,-1.47275 3.86598,-0.73639 6.6274,-2.39323 2.76141,-1.65685 4.41826,-2.94551 6.2592,-5.52281 1.84095,-2.57733 -1.47275,-3.68189 3.68189,-4.23418 5.15464,-0.55229 4.97054,0.92046 10.67746,0.1841 5.70693,-0.73639 6.4433,0.36819 11.04566,-2.9455 4.60235,-3.3137 0.73637,-3.3137 6.81149,-4.97055 6.07511,-1.65687 5.70692,0.92046 7.54786,-2.20913 1.84094,-3.1296 2.39322,-2.57734 2.20913,-5.33874 -0.18409,-2.7614 -2.57732,-3.86599 0.55228,-5.52283 3.12961,-1.65685 -0.55228,-6.4433 2.76142,-9.94109 3.31369,-3.49779 7.36377,-2.39323 4.41826,-6.44329 -2.94551,-4.05008 1.47275,-5.52284 -4.78645,-4.41827 -6.2592,1.10457 -5.33874,0.55228 -9.757,2.02503 -4.41826,1.47275 -3.86597,2.02505 -7.54786,1.84095 -3.68189,-0.1841 -4.05008,0.92046 -6.81149,-2.39323 -2.76141,-3.31369 -2.57732,-3.1296 -3.68188,-4.60235 -1.10457,-1.47276 1.84094,0 -2.20913,-3.68189 -4.05008,-3.68188 1.47275,-3.68188 -6.99559,-5.52283 -8.46833,-1.84094 -7.91605,-1.47275 -8.65242,-2.20913 -0.73638,-0.73637 -1.47276,-0.73637 -2.94551,-2.20913 -1.47276,-1.47275 -2.02504,-2.57732 -2.39323,-3.49779 -0.36819,-0.92047 -1.28866,-2.76141 -3.31369,-3.1296 -2.02504,-0.36819 -1.65685,-0.1841 -5.52283,-1.65685 -3.86598,-1.47275 -5.52283,-1.10456 -6.99559,-3.68188 -1.47275,-2.57732 -2.02503,-3.68189 -2.57732,-4.97055 -0.55228,-1.28866 1.28867,-0.92047 -1.65684,-2.94551 -2.94551,-2.02504 0,-3.1296 -4.60236,-2.39322 -4.60235,0.73637 -1.84094,0.55228 -6.81149,1.10456 -4.97054,0.55229 -7.73196,0.92047 -9.75699,-0.55228 -2.02504,-1.47275 -3.1296,-1.65685 -3.49779,-3.1296 -0.36819,-1.47276 -5.33874,-1.10457 -0.73638,-4.97055 4.60236,-3.86598 1.47275,-3.1296 7.36377,-4.60235 5.89102,-1.47276 11.22975,-13.62298 15.09573,-10.49338 3.86598,3.12961 2.39322,4.97055 5.70692,6.99558 3.3137,2.02504 2.57732,5.70693 6.4433,3.12961 3.86598,-2.57732 5.15464,1.47275 5.15464,-4.78645 0,-6.25921 -0.18409,-3.49779 -0.36819,-8.46834 -0.18409,-4.97054 -1.47275,-5.70692 0,-8.28424 1.47275,-2.57732 -2.76141,-8.46833 3.3137,-3.1296 6.07511,5.33873 6.2592,3.31369 7.17967,8.46833 0.92048,5.15464 0.92048,4.05008 0.92048,9.02062 0,4.97055 1.65684,7.54787 5.33873,9.94109 3.68188,2.39323 6.28757,1.63803 6.28757,1.63803 z"
       id="path4" />
  </g>
</svg>
