<?xml version="1.0" encoding="UTF-8" standalone="no"?>
<svg
   width="500"
   height="500"
   version="1.1"
   id="svg1"
   sodipodi:docname="island_delta.svg"
   inkscape:version="1.4 (86a8ad7, 2024-10-11)"
   xmlns:inkscape="http://www.inkscape.org/namespaces/inkscape"
   xmlns:sodipodi="http://sodipodi.sourceforge.net/DTD/sodipodi-0.dtd"
   xmlns="http://www.w3.org/2000/svg"
   xmlns:svg="http://www.w3.org/2000/svg">
  <defs
     id="defs1" />
  <sodipodi:namedview
     id="namedview1"
     pagecolor="#ffffff"
     bordercolor="#000000"
     borderopacity="0.25"
     inkscape:showpageshadow="2"
     inkscape:pageopacity="0.0"
     inkscape:pagecheckerboard="true"
     inkscape:deskcolor="#d1d1d1"
     inkscape:zoom="0.70812502"
     inkscape:cx="295.14562"
     inkscape:cy="219.59399"
     inkscape:window-width="2560"
     inkscape:window-height="1351"
     inkscape:window-x="-9"
     inkscape:window-y="-9"
     inkscape:window-maximized="1"
     inkscape:current-layer="svg1" />
  <path
     style="fill:#000000;stroke-width:0.377953;stroke-dasharray:0.377953, 0.377953;paint-order:stroke fill markers"
     d="m 150.75022,137.68755 c -2.73419,0.23215 -4.42094,-2.81115 -6.00177,-4.58958 -3.19303,-3.59216 -6.13375,-6.91909 -6.35481,-12.00353 -0.2517,-5.78909 3.23556,-9.0662 6.00177,-13.76876 0.11933,-0.20287 -0.0744,-0.4828 0,-0.70609 0.16642,-0.49928 0.55486,-0.90809 0.70609,-1.41218 0.51397,-1.71325 0.35304,-3.53834 0.35304,-5.295673 0,-1.831517 0.19055,-3.248983 -0.70609,-4.94263 -1.48293,-2.801092 -3.74426,-7.444193 -7.0609,-8.826126 -2.89004,-1.204185 -8.037,-1.954908 -11.29744,-2.82436 -0.65159,-0.173756 -2.56524,-0.440487 -2.82436,-1.41218 -0.728,-2.729992 -1.20278,-7.258167 -0.70609,-10.238305 0.12562,-0.753705 1.40664,-3.53599 0.35305,-4.589585 -2.85328,-2.853273 -6.82758,-3.345814 -10.59135,-3.883495 -18.285722,-2.612245 7.15592,1.259859 -10.23831,-1.765225 -1.04989,-0.18259 -2.13244,-0.144053 -3.177403,-0.353045 -0.163195,-0.03264 -0.300416,-0.510931 -0.353045,-0.353045 -0.148857,0.446571 0,0.941453 0,1.41218 -0.235364,0.588408 -0.443849,1.188294 -0.70609,1.765225 -2.530983,5.568162 -9.320922,10.000996 -14.827891,12.00353 -1.19116,0.43315 -2.300823,1.104774 -3.53045,1.41218 -0.342504,0.08563 -0.877494,-0.302733 -1.059135,0 -0.878565,1.464276 0.928921,4.573472 1.765225,5.64872 0.408706,0.525479 0.978943,0.906737 1.41218,1.41218 1.766096,2.060446 2.218811,5.94331 0.353045,8.120036 -0.873217,1.018753 -2.111553,1.656252 -3.177405,2.471315 -3.346536,2.559115 -6.823258,4.947522 -10.238305,7.413943 -1.258508,0.90892 -3.177405,1.59195 -3.177405,3.53045 0,2.07559 5.679012,5.67901 7.0609,7.0609 0.532827,0.53283 0.879354,1.2324 1.41218,1.76523 0.186071,0.18607 0.520019,0.16697 0.70609,0.35304 0.380026,0.38003 0.63959,1.85227 0.70609,2.11827 0.974166,3.89667 0.79086,7.69619 0,11.65049 -0.287588,1.43794 -1.093599,3.03955 -0.70609,4.58958 0.798679,3.19472 4.523473,3.41847 7.0609,4.58959 4.221201,1.94824 8.024441,5.00889 9.532216,9.53221 0.343098,1.0293 0.426533,2.12907 0.70609,3.17741 0.191774,0.71915 0.572948,1.38599 0.70609,2.11827 0.397132,2.18423 -0.505073,4.56256 0.353045,6.70785 0.254846,0.63712 0.752258,1.15148 1.059135,1.76523 1.863087,3.72617 4.168718,7.876 4.94263,12.00353 0.479588,2.5578 0.858563,5.51264 1.059133,8.12003 0.16552,2.15176 -0.921313,7.79286 1.05914,9.17917 0.73422,0.51396 1.65232,0.69514 2.47131,1.05914 1.31331,0.58369 6.09814,2.72634 7.41395,3.53045 6.10893,3.73324 12.36849,10.07966 16.24007,15.88702 0.47072,0.70609 1.05656,1.34777 1.41218,2.11827 1.58192,3.4275 0.65261,8.05563 0.35304,11.65049 -0.36388,4.36655 1.15203,9.3461 1.41218,13.76875 0.26654,4.53117 -0.46137,8.33799 1.41218,12.70962 2.08581,4.86689 6.74959,7.32196 9.53222,11.65049 1.31974,2.05293 2.23212,4.33892 2.82436,6.70785 0.38387,1.53551 0.15213,2.523 1.05913,3.8835 1.50605,2.25907 4.57697,2.4629 6.70786,3.88349 0.90275,0.60184 1.65776,1.40043 2.47131,2.11827 5.05047,4.4563 3.02207,2.11474 6.70786,9.17917 0.85237,1.63372 1.61801,3.14171 2.11827,4.94264 0.3212,1.15633 0.42811,2.36296 0.70609,3.53045 0.88188,3.7039 2.04174,7.07308 1.76522,10.94439 -0.17687,2.47626 -1.63934,4.66626 -2.11827,7.0609 -1.15626,5.78133 -0.66298,13.10937 3.53045,17.65225 0.97435,1.05554 6.16292,3.93589 6.70786,4.23654 10.71201,5.91008 16.6737,7.19601 28.94969,7.76699 2.46864,0.11482 4.94263,0 7.41394,0 0.94146,0 1.9823,-0.42103 2.82436,0 0.44657,0.22329 0.6897,0.72328 1.05914,1.05914 0.92564,0.84149 1.85346,1.68246 2.82436,2.47131 0.86827,0.70547 6.27488,4.65399 6.70785,4.94263 6.98164,4.65442 15.15744,7.14223 22.24184,11.65049 0.0839,0.0534 1.89815,1.32498 2.11827,1.76522 0.17652,0.35305 -0.0883,0.70609 0,1.05914 0.47957,1.91829 0.9633,2.90064 3.1774,3.1774 1.16773,0.14597 2.41895,0.38661 3.53045,0 1.69663,-0.59013 3.04925,-1.90015 4.58959,-2.82436 1.99028,-1.19417 3.93769,-2.46892 6.00176,-3.53045 5.63951,-2.90031 10.9925,-4.356 17.29921,-4.58958 8.15901,-0.30219 15.80427,2.72059 23.65402,4.58958 1.63912,0.39027 3.26125,0.94948 4.94263,1.05914 14.21746,0.92722 7.35309,-0.13456 19.06443,-1.05914 1.14819,-0.0906 12.23481,0.39363 13.41571,0 0.71486,-0.23829 1.20513,-0.90809 1.76522,-1.41218 0.61852,-0.55667 1.30364,-1.07285 1.76523,-1.76522 1.54688,-2.32034 1.70183,-6.21109 3.88349,-8.12004 5.65024,-4.94396 11.24455,-8.17795 18.35834,-9.88526 2.55963,-0.61431 7.23574,-1.60465 9.88526,-1.76522 6.28717,-0.38104 12.7588,0 19.06443,0 2.35364,0 4.73929,0.38693 7.0609,0 1.01623,-0.16938 8.10546,-2.81708 8.82613,-3.17741 2.78087,-1.39044 5.41021,-3.06531 8.12003,-4.58958 1.05601,-0.59401 2.3889,-0.84531 3.17741,-1.76523 1.40593,-1.64026 1.93414,-3.88197 3.1774,-5.64872 1.00681,-1.43072 2.43757,-2.51739 3.53045,-3.88349 2.42235,-3.02794 5.03023,-6.94876 6.35481,-10.59135 1.17838,-3.24055 1.04165,-4.43854 1.76523,-7.76699 0.80409,-3.69881 1.68676,-7.34199 2.82436,-10.9444 0.94105,-2.97999 0.7313,-3.27106 2.11827,-5.64872 1.93539,-3.31782 4.89473,-6.66594 7.76699,-9.17917 0.88564,-0.77494 1.92599,-1.35811 2.82436,-2.11827 2.71975,-2.30133 0.81592,-1.06698 2.82436,-2.82436 1.04003,-0.91003 2.75081,-2.00794 3.53045,-3.17741 0.72983,-1.09474 1.17681,-2.35363 1.76522,-3.53045 0.58841,-1.17681 1.27658,-2.30883 1.76523,-3.53045 0.4563,-1.14075 0.62175,-2.3823 1.05913,-3.53045 3.72019,-9.7655 7.1139,-14.50988 5.29568,-25.41924 -0.46129,-2.76775 -1.03284,-5.86804 -2.11827,-8.47308 -0.87586,-2.10205 -2.34404,-4.11332 -2.82436,-6.35481 -0.8473,-3.95404 -0.85093,-8.02045 -0.35305,-12.00353 0.19551,-1.56408 1.65629,-7.27878 1.05914,-8.47308 -1.16224,-2.32447 -3.10089,-4.39761 -3.53045,-7.0609 -0.43262,-2.68222 -0.53117,-5.40878 -0.70609,-8.12003 -0.11927,-1.84864 1.07318,-5.99474 -1.05914,-7.0609 -2.78545,-1.39273 -10.71901,6.68717 -12.35657,8.12003 -1.75796,1.53821 -3.53772,3.05138 -5.29568,4.58959 -0.43626,0.38172 -0.35304,0.22518 -0.35304,0.70609 0,1.63018 1.0464,3.35758 1.41218,4.94263 0.50283,2.17893 0.35304,3.34584 0.35304,5.64872 0,0.82377 0.27707,1.69553 0,2.47131 -0.62717,1.75609 -4.07568,5.60673 -5.64872,6.70786 -0.63522,0.44465 -2.72173,1.00578 -3.1774,1.76522 -0.18164,0.30274 0.13907,0.73464 0,1.05914 -0.23179,0.54083 -0.74324,0.91576 -1.05914,1.41218 -1.05558,1.65878 -2.48917,3.99061 -2.82436,6.00176 -0.3902,2.34122 0.56348,5.1922 -0.70609,7.41395 -0.94496,1.65368 -3.51902,2.58138 -4.94263,3.53045 -2.90611,1.93741 -5.49356,4.16821 -8.47308,6.00176 -1.71766,1.05703 -2.26699,1.38041 -3.53045,2.82436 -0.38747,0.44283 -0.61631,1.02471 -1.05913,1.41218 -0.51642,0.45187 -1.20307,0.66563 -1.76523,1.05914 -2.08698,1.46089 -1.52216,1.53636 -3.88349,2.82436 -3.50309,1.91077 -0.16477,-0.232 -3.17741,1.05913 -0.39,0.16715 -0.67388,0.52828 -1.05913,0.70609 -3.7711,1.74051 -3.37174,1.25866 -7.41395,2.47132 -2.22445,0.66733 -4.01396,1.53114 -6.35481,1.76522 -3.36597,0.3366 -8.22947,0.20124 -11.65048,0 -5.13618,-0.30212 -8.43871,-4.61627 -11.65049,-8.12003 -0.56229,-0.61341 -1.24539,-1.11544 -1.76522,-1.76523 -1.00426,-1.25532 -1.33146,-3.09667 -2.47132,-4.23654 -2.01245,-2.01244 -4.514,-2.902 -6.70785,-4.58958 -2.24293,-1.72533 -1.69085,-1.79613 -3.17741,-3.53045 -0.32493,-0.37908 -0.88382,-0.59164 -1.05913,-1.05914 -0.20661,-0.55094 0.0419,-1.17831 0,-1.76522 -0.0759,-1.06295 -0.29047,-2.11359 -0.35305,-3.17741 -0.11057,-1.87965 0.12525,-3.76998 0,-5.64872 -0.21445,-3.2168 -1.33307,-5.86669 -2.47131,-8.82612 -0.26719,-0.69468 -0.32316,-1.48005 -0.70609,-2.11827 -0.94095,-1.56825 -3.58689,-2.64479 -4.94263,-3.17741 -4.82893,-1.89707 -8.34729,-2.65063 -13.41571,-3.88349 -8.60209,-2.0924 -3.25078,-0.40843 -9.53222,-2.82436 -0.45287,-0.17418 -1.00846,-0.0839 -1.41218,-0.35305 -3.059,-2.03933 -2.08002,-8.30094 -2.82436,-11.65048 -0.10131,-0.45588 -0.73035,-1.78949 -1.05913,-2.11827 -0.18608,-0.18607 -0.52002,-0.16698 -0.70609,-0.35305 -0.41607,-0.41606 -0.64307,-0.99611 -1.05914,-1.41218 -0.53283,-0.53282 -1.2324,-0.87935 -1.76522,-1.41218 -1.41813,-1.41812 -3.59309,-4.07138 -4.23654,-6.00176 -0.18608,-0.55822 0,-1.17682 0,-1.76523 0,-0.70609 -0.22329,-1.44841 0,-2.11827 0.74325,-2.22978 4.96925,-5.24459 6.00176,-6.00176 0.33787,-0.24777 1.12243,0.0816 2.11827,-1.41218 1.44554,-2.16831 1.21997,-3.78142 1.05914,-6.35481 -0.22218,-3.55489 -0.54956,-7.49391 -1.41218,-10.9444 -0.24387,-0.97545 -0.81528,-1.84891 -1.05914,-2.82436 -0.43192,-1.72767 -0.27417,-3.568 -0.70609,-5.29567 -0.90756,-3.63023 -2.48311,-8.01317 -5.29567,-10.59135 -2.66648,-2.44427 -6.69334,-3.76742 -9.88526,-6.00177 -1.3113,-0.91791 -2.60298,-1.86397 -3.8835,-2.82436 -0.13314,-0.0998 -0.31268,-0.19159 -0.35304,-0.35304 -0.65752,-2.63004 -0.13271,-5.82901 -0.35305,-8.47308 -0.29148,-3.49773 -3.29317,-12.472341 -6.00177,-15.180938 -0.9483,-0.948305 -6.0394,-0.247311 -7.41394,-0.353045 -4.44281,-0.341755 -0.63137,-0.458274 -6.35481,-1.41218 -1.5135,-0.252251 -3.06151,-0.214129 -4.58959,-0.353045 -1.29449,-0.117682 -2.63367,-0.710138 -3.88349,-0.353045 -1.56179,0.446224 -2.98348,1.604614 -4.58959,1.765225 -1.83716,0.183716 -7.29817,0.365991 -8.82612,-0.353045 -1.1319,-0.532661 -1.85346,-1.682461 -2.82436,-2.471315 -0.91334,-0.742092 -1.93085,-1.352408 -2.82436,-2.11827 -1.64749,-1.412136 -3.06417,-3.95277 -5.64872,-3.177406 -4.5631,1.368929 -14.67575,10.817614 -19.06443,14.474846 -1.53955,1.282958 -2.76517,3.054218 -4.58959,3.883498 -3.26533,1.48424 -7.11602,1.53905 -10.59135,2.11827 -4.47721,0.7462 -8.39655,2.52107 -12.00353,5.29567 -0.65957,0.50736 -1.1467,1.20856 -1.76522,1.76523 -3.09609,2.78647 -4.1963,3.9896 -6.35481,7.76699 -0.39167,0.68542 -0.59085,1.48273 -1.05914,2.11827 -1.1888,1.61337 -2.65313,3.00768 -3.88349,4.58958 -0.42129,0.54165 -0.57392,1.28001 -1.05914,1.76523 -0.46097,0.46097 -4.35526,3.31925 -5.29567,3.88349 -2.48207,1.48924 1.51612,-0.95949 -1.76523,0.35305 -0.30904,0.12362 -0.39704,0.58247 -0.70609,0.70609 -0.87411,0.34964 -1.89571,0.15477 -2.82436,0 -0.6491,-0.10819 -4.30364,-1.66778 -4.94263,-1.41218 -0.14306,0.0572 -2.72589,2.35316 -2.82436,2.47131 -0.33692,0.40431 -0.33395,1.04004 -0.70609,1.41218 -0.26314,0.26315 -0.72628,0.18662 -1.05913,0.35305 -0.37951,0.18975 -0.70609,0.47072 -1.05914,0.70609 -1.01672,0.67781 -2.12957,1.59435 -3.1774,2.11827 -1.01929,0.50964 -2.65708,-0.41497 -3.53045,-0.70609 -0.90009,-0.30003 -1.88512,-0.21887 -2.82436,-0.35305 z"
     id="path1" />
</svg>
