<?xml version="1.0" encoding="UTF-8" standalone="no"?>
<svg
   width="500"
   height="500"
   version="1.1"
   id="svg1"
   sodipodi:docname="island_beta.svg"
   inkscape:version="1.4 (86a8ad7, 2024-10-11)"
   xmlns:inkscape="http://www.inkscape.org/namespaces/inkscape"
   xmlns:sodipodi="http://sodipodi.sourceforge.net/DTD/sodipodi-0.dtd"
   xmlns="http://www.w3.org/2000/svg"
   xmlns:svg="http://www.w3.org/2000/svg">
  <defs
     id="defs1" />
  <sodipodi:namedview
     id="namedview1"
     pagecolor="#ffffff"
     bordercolor="#000000"
     borderopacity="0.25"
     inkscape:showpageshadow="2"
     inkscape:pageopacity="0.0"
     inkscape:pagecheckerboard="true"
     inkscape:deskcolor="#d1d1d1"
     inkscape:zoom="1.00144"
     inkscape:cx="249.64052"
     inkscape:cy="2.4964052"
     inkscape:window-width="2560"
     inkscape:window-height="1351"
     inkscape:window-x="-9"
     inkscape:window-y="-9"
     inkscape:window-maximized="1"
     inkscape:current-layer="svg1" />
  <path
     style="fill:#000000;stroke-width:0.377953;stroke-dasharray:0.377953, 0.377953;paint-order:stroke fill markers"
     d="m 180.05296,335.39276 c -2.41264,0.0657 -4.59388,0.53579 -7.0609,0.35305 -5.51502,-0.40852 -8.83044,-1.20421 -14.47485,-2.47132 -9.96868,-2.23786 -19.51525,-5.14714 -28.59665,-9.88526 -6.0533,-3.15824 -0.8026,-0.76399 -9.53221,-6.00176 -8.119,-4.8714 -0.58956,1.52886 -10.9444,-7.41395 -2.54679,-2.19951 -3.80321,-6.77691 -5.29567,-9.53221 -1.91274,-3.53121 -2.66053,-4.60717 -4.942631,-7.76699 -0.689015,-0.95402 -1.512803,-1.81525 -2.11827,-2.82436 -0.46111,-0.76852 -0.62997,-1.68452 -1.059135,-2.47132 -1.901987,-3.48697 -6.922133,-6.43032 -8.826126,-10.2383 -3.870166,-7.74034 1.171522,-17.19 -3.53045,-24.71316 -1.110487,-1.77677 -2.750466,-3.18014 -3.883495,-4.94263 -3.729924,-5.8021 -8.677083,-11.99461 -11.29744,-18.35834 -0.42508,-1.03233 -0.654491,-2.13689 -1.059135,-3.1774 -1.193706,-3.06953 -2.79171,-5.83647 -3.177406,-9.17917 -0.32402,-2.80818 -0.752816,-5.67468 -0.353045,-8.47308 0.421083,-2.94758 2.025268,-4.01342 3.530451,-6.35481 1.72149,-2.67788 2.385357,-5.4633 3.177405,-8.47308 0.530701,-2.01667 1.392191,-3.95008 1.765225,-6.00177 0.349066,-1.91986 -0.847811,-3.95561 -1.41218,-5.64872 -0.869593,-2.60878 -3.052688,-8.03753 -2.471315,-10.94439 1.259953,-6.29977 4.469944,-12.03754 6.707855,-18.0053 1.003769,-2.67672 1.909314,-5.66307 2.471315,-8.47308 0.06924,-0.34619 -0.131118,-0.73134 0,-1.05913 0.860918,-2.1523 0.721934,0.93238 1.059135,-1.76523 0.312962,-2.5037 -0.565345,-5.31716 0,-7.76699 0.177511,-0.76922 0.70609,-1.41218 1.059135,-2.11827 0.615386,-1.23077 1.14984,-2.65272 1.765225,-3.8835 1.719535,-3.43907 6.925986,-8.98861 10.238305,-10.59135 2.244664,-1.08612 4.722502,-1.60524 7.060901,-2.47131 4.525376,-1.67607 9.331976,-3.14019 13.768756,-4.94263 1.12251,-0.45602 2.09371,-1.22338 3.1774,-1.76523 0.56683,-0.28341 1.23793,-0.35455 1.76523,-0.70609 0.5539,-0.36926 0.89695,-0.99062 1.41218,-1.41218 1.23883,-1.01358 2.68716,-1.76095 3.88349,-2.82436 2.61353,-2.32313 3.52452,-4.630695 5.29568,-7.413941 2.14814,-3.375646 5.02255,-6.644861 8.12004,-9.179171 1.81393,-1.484129 1.96183,-0.89034 4.23654,-1.765225 0.73681,-0.28339 1.37482,-0.79362 2.11827,-1.059135 2.82152,-1.007687 5.79662,-0.984392 8.47308,-2.471315 1.89613,-1.053407 3.94324,-4.875639 4.94263,-6.707855 0.30346,-0.556354 0.32584,-1.258237 0.70609,-1.765225 0.35304,-0.470727 1.02471,-0.616313 1.41218,-1.059135 0.45186,-0.516416 0.55139,-1.30364 1.05913,-1.765225 0.82149,-0.746806 1.94438,-1.08832 2.82436,-1.765225 0.65957,-0.507362 1.14671,-1.208556 1.76523,-1.765226 1.5262,-1.373582 4.47092,-3.158925 6.35481,-3.883495 5.53795,-2.129982 -2.57155,3.299433 6.00176,-2.82436 1.26982,-0.907015 2.1021,-2.102101 3.17741,-3.177405 0.82789,-0.827897 1.83081,-1.093471 2.47131,-2.11827 0.33588,-0.537406 0.39832,-1.211241 0.70609,-1.765225 1.26657,-2.279832 6.28654,-7.041395 8.82613,-7.76699 0.33946,-0.09699 0.71663,0.08563 1.05913,0 2.78363,-0.695907 0.70705,-0.802462 3.53045,-1.059135 0.70319,-0.06393 1.41928,0.09986 2.11827,0 0.16476,-0.02354 0.20419,-0.278617 0.35305,-0.353045 0.28726,-0.143634 1.47796,-0.209412 1.76522,-0.353045 1.07954,-0.539769 2.15869,-1.825849 2.82436,-2.82436 0.29193,-0.437899 0.37732,-1.001218 0.70609,-1.412181 1.2476,-1.559492 2.82436,-2.82436 4.23654,-4.23654 3.66979,-3.669788 4.83889,-4.522099 9.88526,-4.94263 0.52551,-0.04379 3.85869,-0.28339 4.23654,0 1.81749,1.363118 2.04793,4.802607 2.47132,6.707855 0.29107,1.309826 0.81186,2.5647 1.05913,3.883496 0.26025,1.387992 -0.10831,2.828519 0,4.23654 0.1882,2.446514 0.70609,4.566504 0.70609,7.0609 0,2.776545 0.0321,5.413253 -0.70609,8.120035 -0.87657,3.21409 -2.65923,5.984724 -3.53045,9.179171 -0.49889,1.829266 -0.50495,3.847624 -1.05913,5.64872 -2.67881,6.250554 0.26709,-1.214701 -1.41218,4.94263 -0.13848,0.507744 -0.56151,0.906141 -0.70609,1.41218 -0.4517,1.580956 0.13696,3.783094 0.35304,5.295675 0.2714,1.899794 -0.0602,3.720427 0.35305,5.64872 0.69358,3.236706 1.70702,6.595253 2.11827,9.885257 0.20418,1.63343 0.20386,3.30166 0.35304,4.94263 0.31079,3.41869 0.26215,0.86677 0.70609,3.53045 0.11608,0.69649 -0.11608,1.42179 0,2.11827 0.0433,0.25957 0.31583,0.44559 0.35305,0.70609 0.0832,0.5825 -0.065,1.18042 0,1.76523 0.65777,5.91995 0.061,-3.91841 0.70609,3.1774 0.10654,1.17199 -0.25529,2.38166 0,3.53045 0.27867,1.25404 1.52757,3.64585 2.47131,4.58959 0.47073,0.47073 0.33877,-0.74892 0.70609,0.35304 0.55822,1.67464 0,3.53045 0,5.29568 0,1.76523 0.12577,3.53494 0,5.29568 -0.17061,2.38859 -1.05913,4.67103 -1.05913,7.0609 0,1.95981 0.11345,3.732 0.35304,5.64872 0.0584,0.46709 -0.18542,0.97951 0,1.41218 0.19668,0.45891 0.83585,0.61256 1.05914,1.05913 0.3684,0.7368 -0.1787,1.66716 0,2.47132 0.13747,0.61864 0.50568,1.16401 0.70609,1.76522 0.354,1.06201 0.95406,3.89194 1.05913,4.94263 0.24925,2.49246 -0.49123,5.31081 0,7.76699 0.0516,0.25804 0.26984,0.45645 0.35305,0.70609 0.0744,0.22329 -0.16643,0.53966 0,0.70609 0.0832,0.0832 0.3337,-0.11608 0.35304,0 0.50585,3.03507 -0.43565,6.26959 -1.05913,9.17917 -0.16126,0.75253 -0.3635,2.67398 -0.70609,3.53045 -0.0618,0.15453 -0.30042,0.19516 -0.35305,0.35305 -0.37179,1.11538 1.67148,2.64417 2.47132,3.1774 1.81878,1.21252 3.96183,1.43829 6.00176,2.11827 0.49928,0.16643 0.9129,0.53967 1.41218,0.70609 1.2515,0.41717 4.64691,0 6.00177,0 1.28298,0 3.64848,0.25841 4.58958,-1.05913 0.99676,-1.39547 1.24463,-3.38085 1.76523,-4.94263 0.16643,-0.49928 0.57845,-0.90161 0.70609,-1.41218 0.11417,-0.45668 -0.0774,-0.94786 0,-1.41218 0.33729,-2.02377 3.89825,-3.32951 4.58958,-4.94263 0.29319,-0.68411 0.34464,-1.46765 0.70609,-2.11827 0.35801,-0.64442 2.88498,-3.16161 3.53045,-3.53045 0.8512,-0.4864 2.59523,-0.7474 3.53045,-1.05914 4.13195,-1.37731 13.64143,-4.45963 16.24008,-7.76699 1.4117,-1.79671 2.86162,-3.60498 3.88349,-5.64872 1.87684,-3.75367 0.0598,-0.6221 0.70609,-3.53045 0.19442,-0.87489 0.93239,-1.58409 1.05914,-2.47131 0.0832,-0.5825 -0.23179,-1.2244 0,-1.76523 0.16714,-0.39 0.7591,-0.40606 1.05913,-0.70609 0.18607,-0.18607 0.16697,-0.52002 0.35305,-0.70609 2.26903,-2.26903 5.6559,-2.24992 8.47308,-3.53045 1.69508,-0.77049 1.12656,-0.96127 2.11827,-2.11827 0.43323,-0.50544 1.05477,-0.85055 1.41218,-1.41218 1.34476,-2.1132 1.80017,-4.8077 2.82436,-7.0609 0.28395,-0.62469 0.80428,-1.12811 1.05913,-1.76523 0.22286,-0.55714 0.14235,-1.20337 0.35305,-1.76522 0.26457,-0.70553 1.1476,-1.76579 1.41218,-2.47132 0.17037,-0.45432 0.23536,-0.94145 0.35304,-1.41218 0.11768,-0.5884 0.14798,-1.20129 0.35305,-1.76522 0.49532,-1.36213 1.44608,-2.44735 1.76522,-3.8835 0.34705,-1.56171 -0.0864,-7.68056 0.70609,-8.47308 0.83887,-0.83887 2.88763,-0.25345 3.8835,-0.35304 3.49093,-0.34909 5.90939,-1.88769 8.12003,-4.58959 3.56555,-4.35789 10.41444,-13.649247 11.65049,-19.417472 0.22328,-1.041998 0.15665,-2.130004 0.35304,-3.177405 0.50414,-2.68873 1.82141,-4.834915 2.82436,-7.413945 0.17587,-0.452222 0.11231,-0.990897 0.35305,-1.41218 0.52658,-0.921526 8.21557,-7.416593 9.17917,-7.76699 0.10469,-0.03807 2.92451,0.252888 3.1774,0 0.33286,-0.332855 -0.12932,-0.959566 0,-1.412181 0.14459,-0.506038 0.53967,-0.912899 0.70609,-1.41218 0.3431,-1.029294 0.52772,-2.107196 0.70609,-3.177405 0.14547,-0.872778 -0.2786,-1.988555 0,-2.82436 0.24359,-0.730758 0.30758,-1.807123 0.70609,-2.471315 0.17126,-0.28542 0.54095,-0.417092 0.70609,-0.70609 0.31442,-0.550236 0.37021,-1.227819 0.70609,-1.765225 0.26462,-0.423389 0.74724,-0.669262 1.05914,-1.059135 0.16438,-0.205481 0.16697,-0.520019 0.35304,-0.70609 0.0832,-0.08321 0.31583,0.111643 0.35305,0 0.11164,-0.334928 -0.0438,-0.708816 0,-1.059135 0.12036,-0.962934 0.58572,-1.861426 0.70609,-2.82436 0.46876,-3.750102 -0.34063,-4.776454 2.82436,-7.413946 0.2557,-0.213087 0.39704,-0.582471 0.70609,-0.70609 1.19619,-0.478476 4.85258,0.188876 6.00176,0.353045 0.0155,0.0022 4.54361,0.528748 4.94263,0.706091 3.82705,1.700911 6.66102,4.563069 8.82613,8.120035 2.89543,4.756775 4.4558,9.812788 5.64872,15.180935 0.57595,2.591796 1.48728,5.126559 1.76522,7.766991 0.32572,3.094311 0.0312,6.457951 -0.35304,9.532215 -0.11768,0.941453 -0.0924,1.912085 -0.35305,2.82436 -0.21687,0.759059 -0.79362,1.374828 -1.05913,2.11827 -1.55617,4.357269 -2.57777,9.212866 -1.05914,13.768756 1.33827,4.014796 6.46136,7.075526 9.53222,9.532216 6.84268,5.47414 14.9129,11.58846 16.59312,20.82965 0.21051,1.15784 0,2.35364 0,3.53046 0,1.64754 0.10959,3.29873 0,4.94263 -0.0997,1.49485 -0.73298,3.12187 -1.05914,4.58958 -0.48075,2.1634 -0.95102,5.56264 -0.70609,7.76699 0.16845,1.51608 0.84826,2.56769 1.41218,3.8835 0.19114,0.44598 0.16191,0.96619 0.35305,1.41218 0.33428,0.78 1.14382,1.3132 1.41218,2.11827 0.11164,0.33492 -0.13112,0.73134 0,1.05913 0.12361,0.30905 0.60083,0.39032 0.70609,0.70609 0.14885,0.44657 -0.16529,0.97143 0,1.41218 0.2066,0.55094 0.85253,0.86124 1.05913,1.41218 0.16528,0.44076 -0.052,0.94433 0,1.41218 0.0663,0.59639 0.29334,1.16814 0.35305,1.76523 0.24411,2.44114 -0.3042,4.9804 0,7.41394 0.15505,1.24044 0.90391,4.54697 0.35304,5.64872 -0.0526,0.10526 -0.31583,-0.11164 -0.35304,0 -1.30573,3.91719 3.32727,-3.96564 -1.76523,2.82436 -0.53774,0.71699 -0.56199,1.7256 -1.05913,2.47132 -0.18464,0.27695 -0.55724,0.40837 -0.70609,0.70609 -0.217,0.43399 -0.11232,0.99089 -0.35305,1.41218 -0.45601,0.79802 -1.29234,1.33013 -1.76522,2.11827 -0.85725,1.42874 0.004,-0.0151 -0.35305,1.41218 -0.15565,0.6226 -0.83134,1.2337 -1.05913,1.76522 -0.6787,1.58363 -0.0191,1.09727 -0.70609,2.47132 -0.18976,0.37951 -0.55711,0.66184 -0.70609,1.05913 -0.47979,1.27942 -0.83087,3.21997 -1.05914,4.58959 -0.2538,1.52281 -0.37678,4.37152 0.35305,5.64872 0.66216,1.15878 1.63248,2.26742 2.11827,3.53045 0.44105,1.14674 0.61808,2.38371 1.05913,3.53045 0.15232,0.39602 0.53895,0.66913 0.70609,1.05913 0.32233,0.75211 2.04128,5.57831 2.11827,6.00177 0.12631,0.6947 -0.12631,1.42357 0,2.11827 0.37688,2.07282 1.68558,3.09181 0.70609,5.29567 -0.90987,2.04721 -2.44344,2.44344 -3.88349,3.8835 -0.30004,0.30003 -0.40606,0.7591 -0.70609,1.05913 -0.48522,0.48522 -1.28002,0.57392 -1.76523,1.05914 -0.73046,0.73046 1.11624,-0.0286 -0.35304,0.70609 -0.10526,0.0526 -0.30934,-0.10927 -0.35305,0 -0.4254,1.06349 -0.3187,2.89625 -1.05914,3.88349 -0.15788,0.21052 -0.5884,0.11769 -0.70609,0.35305 -0.15788,0.31577 0.21183,0.7767 0,1.05913 -0.22328,0.29772 -0.74002,0.16158 -1.05913,0.35305 -0.14064,0.0844 -2.1173,1.76406 -2.11827,1.76522 -1.44175,1.73011 -2.12543,4.9641 -2.82436,7.0609 -0.26314,0.78944 -0.22651,1.64886 -0.35305,2.47132 -0.38869,2.52652 -0.58556,5.20932 -0.35304,7.76699 0.20303,2.2333 1.0479,4.5222 1.41218,6.70785 0.21704,1.30227 0.27104,5.35264 0,6.70786 -0.21648,1.08242 -2.80575,4.91471 -3.53045,6.00177 -0.18463,0.27695 -0.58247,0.39704 -0.70609,0.70609 -0.11588,0.28969 0,1.32102 0,1.76522 0,3.1624 0.21581,6.20429 -1.05914,9.17917 -0.43733,1.02044 -1.24277,1.84477 -1.76522,2.82436 -0.87695,1.64429 -1.71161,3.70603 -2.82436,5.29568 -0.78516,1.12166 -1.69579,2.09167 -2.47132,3.1774 -4.05169,5.67237 0.67697,-0.83164 -1.41218,2.82436 -0.82459,1.44304 -1.84363,2.58875 -2.11827,4.23654 -0.19777,1.18662 -0.39328,6.83408 0.35305,7.76699 0.26506,0.33133 0.7591,0.40606 1.05913,0.70609 0.13255,0.13255 0.90957,1.61565 1.05914,1.76523 0.41607,0.41606 0.99611,0.64306 1.41218,1.05913 0.53283,0.53283 0.94145,1.17682 1.41218,1.76523 0.47073,0.58841 0.87935,1.2324 1.41218,1.76522 0.53283,0.53283 1.2945,0.82377 1.76522,1.41218 0.49316,0.61645 0.59482,1.47983 1.05914,2.11827 2.56629,3.52865 1.12181,0.14102 2.47131,3.17741 1.0852,2.44169 2.64581,6.89455 2.11827,9.53221 -0.28413,1.4207 -0.25762,0.16221 -0.70609,1.05914 -0.32473,0.64946 -0.061,5.74488 0,6.35481 0.26306,2.6306 0.30111,1.03054 1.41218,3.53045 1.09053,2.45367 0.91124,5.55805 1.76523,8.12003 0.16643,0.49928 0.57845,0.90161 0.70609,1.41218 0.14271,0.57084 -0.14271,1.19439 0,1.76523 0.10677,0.42706 0.81136,2.36604 0.35304,2.82436 -0.11913,0.11913 -2.44672,2.06908 -2.47131,2.11827 -0.0526,0.10526 0.0832,0.26983 0,0.35304 -0.60006,0.60006 -1.51821,0.81212 -2.11827,1.41218 -1.57416,1.57416 -2.35938,4.65561 -4.94263,4.94263 -1.58959,0.17663 -5.48096,0.26333 -7.0609,0 -0.16416,-0.0274 -0.20419,-0.27861 -0.35305,-0.35304 -1.76861,-0.88431 -4.18527,-1.00787 -5.64872,-2.47132 -0.48521,-0.48521 -0.61984,-1.23807 -1.05913,-1.76522 -1.9698,-2.36376 -3.33295,-5.49911 -6.35481,-6.70786 -0.0158,-0.006 -2.76521,-0.66665 -2.82436,-0.70609 -0.21895,-0.14596 -0.1341,-0.56012 -0.35305,-0.70609 -0.72912,-0.48608 -7.93196,-0.47226 -8.82612,-0.35304 -2.10434,0.28058 -6.59219,1.80378 -8.82613,1.05913 -0.49928,-0.16642 -0.92353,-0.51063 -1.41218,-0.70609 -0.21853,-0.0874 -0.53966,0.16643 -0.70609,0 -0.0832,-0.0832 0.10526,-0.30041 0,-0.35304 -0.43399,-0.217 -0.98802,-0.11741 -1.41218,-0.35305 -0.6587,-0.36594 -1.16796,-0.95274 -1.76522,-1.41218 -2.36644,-1.82034 -4.74154,-3.51929 -6.00177,-6.35481 -0.19706,-0.44339 -0.15598,-0.96878 -0.35304,-1.41218 -0.27869,-0.62705 -0.84214,-1.11424 -1.05914,-1.76522 -0.14885,-0.44657 0.13526,-0.96131 0,-1.41218 -1.22689,-4.08963 -0.85879,-0.25778 -1.76522,-3.8835 -1.20285,-4.81139 1.38369,2.41435 -0.70609,-1.76522 -0.10526,-0.21052 0.10526,-0.49558 0,-0.70609 -0.14886,-0.29772 -0.48219,-0.4598 -0.70609,-0.70609 -0.95323,-1.04855 -1.96036,-2.0542 -2.82436,-3.17741 -0.32089,-0.41715 -0.40019,-0.98392 -0.70609,-1.41218 -0.53952,-0.75532 -4.54416,-4.30054 -5.29568,-4.58958 -1.31374,-0.66918 -2.87358,-0.54803 -4.23654,-1.05914 -3.1172,-1.16895 0.29284,-0.24323 -2.82436,-1.41218 -0.45432,-0.17037 -0.99089,-0.11231 -1.41218,-0.35304 -0.4335,-0.24772 -0.65285,-0.76894 -1.05913,-1.05914 -0.42826,-0.3059 -0.94146,-0.47072 -1.41218,-0.70609 -0.58841,-0.58841 -1.14328,-1.21238 -1.76523,-1.76522 -1.79606,-1.5965 -3.94903,-2.8899 -5.64872,-4.58959 -1.77513,-1.77513 -2.29126,-5.07321 -2.47131,-7.41394 -0.0486,-0.6313 0.25367,-3.27678 0,-3.53045 -0.53105,-0.53105 -2.8874,-1.22935 -3.53045,-1.76523 -0.45203,-0.37669 -0.64307,-0.99611 -1.05914,-1.41218 -1.6936,-1.6936 -4.04564,-3.56183 -6.00176,-4.94263 -0.9768,-0.6895 -5.40801,-3.8812 -7.0609,-4.58958 -0.55155,-0.23638 -1.22852,-0.0847 -1.76523,-0.35305 -0.14886,-0.0744 -0.18829,-0.32951 -0.35304,-0.35304 -5.12289,-0.73185 -8.52622,1.31221 -13.06267,2.82436 -2.67188,0.89062 -9.18953,-3.18185 -11.65049,-4.23654 -0.78746,-0.33749 -1.69137,-0.35157 -2.47131,-0.70609 -0.92561,-0.42073 -3.98505,-2.48651 -4.58959,-3.17741 -0.34656,-0.39607 -0.40019,-0.98392 -0.70609,-1.41218 -1.18696,-1.66175 -1.28024,-0.39946 -1.76522,-2.82436 -0.1154,-0.57698 0.0533,-1.17923 0,-1.76522 0.44143,-1.21267 -0.57152,-2.10082 -0.70609,-3.17741 -0.11677,-0.93418 0.15477,-1.89572 0,-2.82436 -0.0612,-0.36708 -0.23536,-0.70609 -0.35305,-1.05913 -0.23536,-1.05914 -0.55265,-2.10334 -0.70609,-3.17741 -0.0832,-0.58249 0.1154,-1.18824 0,-1.76522 -0.30937,-1.5469 -1.49263,-4.69687 -2.47131,-6.00177 -0.19971,-0.26628 -0.55723,-0.40838 -0.70609,-0.70609 -0.10526,-0.21052 0.0744,-0.4828 0,-0.70609 -0.18607,-0.55821 -0.60711,-1.03549 -1.05914,-1.41218 -0.80861,-0.67384 -1.94856,-0.82832 -2.82436,-1.41218 -0.64045,-0.42697 -0.60736,-0.925 -1.41218,-1.05914 -0.69648,-0.11608 -1.61899,0.49929 -2.11827,0 -0.16642,-0.16642 0.16643,-0.53966 0,-0.70609 -0.16642,-0.16642 -0.49557,0.10526 -0.70609,0 -0.29771,-0.14885 -0.45336,-0.48947 -0.70609,-0.70609 -0.57212,-0.49039 -1.2646,-0.84898 -1.76522,-1.41218 -1.54956,-1.74324 -0.80866,-2.05009 -1.76523,-4.23654 -0.80187,-1.83285 -2.29797,-3.36558 -2.82436,-5.29567 -0.15482,-0.56768 0.073,-1.18136 0,-1.76523 -0.0157,-0.12588 -0.99681,-3.4058 -1.05913,-3.53045 -0.37951,-0.75902 -1.20636,-1.29499 -1.41218,-2.11827 -0.14271,-0.57084 0.14271,-1.19438 0,-1.76522 -0.28078,-1.12313 -1.6183,-2.18698 -2.47132,-2.47132 -0.44657,-0.14885 -0.94785,0.0774 -1.41218,0 -0.62052,-0.10342 -2.80453,-0.72591 -2.82436,-0.70609 -1.01219,1.01219 -1.83168,2.80359 -2.11827,4.23654 -0.0816,0.40796 0.32832,2.49604 0,2.82436 -0.0832,0.0832 -0.25512,-0.0653 -0.35304,0 -0.27695,0.18464 -0.47073,0.47073 -0.70609,0.70609 -0.58841,0.11769 -1.21368,0.11667 -1.76523,0.35305 -1.96946,0.84406 0.44331,0.59526 -1.41218,1.05913 -0.69445,0.17362 -1.43917,0.12668 -2.11827,0.35305 -0.40253,0.13418 -0.6566,0.57191 -1.05913,0.70609 -0.44274,0.14758 -2.78819,-0.38922 -3.17741,0 -0.0832,0.0832 0.0231,0.23765 0,0.35304 -0.26732,1.3366 -0.36748,1.61397 -1.05913,2.82436 -0.76907,1.34586 -1.21401,0.86097 -2.11827,1.76523 -0.0832,0.0832 0.0832,0.26983 0,0.35304 -0.16643,0.16643 -0.51026,-0.13055 -0.70609,0 -0.27695,0.18464 -0.39705,0.58248 -0.70609,0.70609 -1.12849,0.4514 -3.37786,0 -4.58959,0 -1.26326,0 -2.31178,-0.17895 -3.53045,-0.35304 -0.46599,-0.0666 -0.95266,0.10211 -1.41218,0 -0.61864,-0.13748 -1.15821,-0.52399 -1.76522,-0.70609 -2.16715,-0.65015 -4.46338,-1.35714 -6.70786,-1.76523 -2.97826,-0.5415 -6.15272,-0.92226 -9.17917,-0.70609 -6.34625,0.45331 1.04699,0.31653 -6.35481,0.70609 -1.86124,0.098 -4.89091,0.0209 -6.70785,1.05914 -1.19441,0.68251 -3.56538,3.22979 -4.23654,4.23654 -2.76246,4.14369 -2.142,5.90685 -1.05914,10.2383 0.64248,2.56992 0.5573,5.70419 1.76523,8.12004 0.56926,1.13854 1.50008,2.06467 2.11827,3.17741 0.25558,0.46005 0.36916,1.00787 0.70609,1.41218 0.89604,1.07525 2.36756,1.26684 3.53045,1.76522 1.58316,0.6785 2.96807,1.82271 4.58958,2.47132 2.26728,0.90691 4.61265,1.8679 6.70786,3.1774 1.27534,0.79709 2.73934,1.84366 3.88349,2.82436 0.54725,0.46907 1.67886,2.07509 2.47132,2.47132 0.5548,0.2774 1.96365,0.63608 2.47131,1.05913 0.45203,0.37669 0.64307,0.99611 1.05914,1.41218 0.53282,0.53283 1.2324,0.87935 1.76522,1.41218 1.41744,1.41744 1.14049,1.52066 2.11827,2.82436 0.81108,1.08143 -0.22581,-0.57886 1.05914,0.70609 0.0832,0.0832 -0.0832,0.26983 0,0.35305 0.46435,0.46435 3.30203,-0.32767 3.53045,-0.35305 2.08035,-0.23115 3.413,0.35313 5.29567,1.05914 0.45432,0.17037 0.9909,0.11231 1.41218,0.35304 0.4335,0.24771 0.66926,0.74724 1.05914,1.05914 1.10934,0.88747 2.63357,1.27547 3.53045,2.47131 0.90945,1.2126 0.35642,3.88519 1.76522,4.58959 0.21052,0.10525 0.53967,-0.16643 0.70609,0 0.0832,0.0832 -0.0941,0.28243 0,0.35304 1.41701,1.06275 1.84753,0.50599 3.53045,1.41218 2.45215,1.32039 2.32785,1.81262 4.23654,3.53045 1.20796,1.08717 2.85727,1.89462 3.8835,3.17741 0.80309,1.00386 1.13778,2.13167 1.76522,3.1774 0.17126,0.28542 0.57498,0.40015 0.70609,0.70609 0.67908,1.5845 0.9996,3.67931 0.35305,5.29568 -0.62576,1.56438 -1.27451,0.9903 -2.11827,1.41218 -0.10526,0.0526 0.0526,0.24778 0,0.35304 -0.42503,0.85006 -1.41218,0.12792 -1.41218,2.47132 0,0.47072 -0.29406,1.0446 0,1.41218 0.36757,0.45947 0.99611,0.64306 1.41218,1.05913 0.18607,0.18607 0.16697,0.52002 0.35304,0.70609 0.24964,0.24964 0.71663,-0.0856 1.05914,0 1.31422,0.32856 2.41731,1.4822 3.53045,2.11827 0.32311,0.18464 0.75631,0.13674 1.05913,0.35305 2.18499,1.56071 3.24316,4.12224 3.53045,6.70785 0.53305,4.79742 -4.63005,7.12649 -8.47308,7.76699 -0.5804,0.0967 -1.41218,-0.47072 -1.76522,0 -0.58226,0.77635 -0.36535,1.91572 -0.70609,2.82436 -0.36959,0.98556 -0.82832,1.94857 -1.41218,2.82436 -2.37883,3.56824 -4.86388,3.53045 -8.82613,3.53045 -0.58841,0 -1.19083,0.12765 -1.76522,0 -2.17604,-0.48356 -6.42527,-4.2128 -7.76699,-6.00176 -0.15789,-0.21052 -0.16698,-0.52002 -0.35305,-0.70609 -0.0832,-0.0832 -0.23536,0 -0.35304,0 -0.23537,-0.35305 -0.51634,-0.67962 -0.70609,-1.05914 -0.50565,-1.0113 -0.71494,-2.24775 -1.41218,-3.1774 -0.29957,-0.39943 -0.83585,-0.61257 -1.05914,-1.05914 -0.49544,-0.99089 -0.49768,-2.65639 -0.70609,-3.1774 -0.21853,-0.54633 -0.79599,-0.88589 -1.05913,-1.41218 -0.42102,-0.84204 -1.02152,-2.2294 -1.76523,-2.82436 -0.29059,-0.23248 -0.72628,-0.18662 -1.05913,-0.35305 -0.37951,-0.18975 -0.66914,-0.53894 -1.05914,-0.70609 -0.55154,-0.23637 -1.22851,-0.0847 -1.76522,-0.35304 -0.14886,-0.0744 -0.19516,-0.30042 -0.35305,-0.35305 -0.22328,-0.0744 -0.4828,0.0744 -0.70609,0 -1.2076,-0.40253 -2.14158,-1.3784 -3.1774,-2.11827 z"
     id="path1" />
</svg>
