<?xml version="1.0" encoding="UTF-8" standalone="no"?>
<svg
   width="400"
   height="400"
   version="1.1"
   id="svg1"
   sodipodi:docname="island_alpha.svg"
   inkscape:version="1.4 (86a8ad7, 2024-10-11)"
   xmlns:inkscape="http://www.inkscape.org/namespaces/inkscape"
   xmlns:sodipodi="http://sodipodi.sourceforge.net/DTD/sodipodi-0.dtd"
   xmlns="http://www.w3.org/2000/svg"
   xmlns:svg="http://www.w3.org/2000/svg">
  <defs
     id="defs1" />
  <sodipodi:namedview
     id="namedview1"
     pagecolor="#ffffff"
     bordercolor="#000000"
     borderopacity="0.25"
     inkscape:showpageshadow="2"
     inkscape:pageopacity="0.0"
     inkscape:pagecheckerboard="true"
     inkscape:deskcolor="#d1d1d1"
     inkscape:zoom="2.8325"
     inkscape:cx="191.70344"
     inkscape:cy="183.75993"
     inkscape:window-width="2560"
     inkscape:window-height="1351"
     inkscape:window-x="-9"
     inkscape:window-y="-9"
     inkscape:window-maximized="1"
     inkscape:current-layer="svg1" />
  <path
     style="fill:#000000;stroke-width:0.377953;stroke-dasharray:0.377953, 0.377953;paint-order:stroke fill markers"
     d="m 207.94351,338.57017 c -6.29196,1.7977 1.29747,-0.12592 -4.94263,0.70609 -0.96191,0.12825 -1.8687,0.53744 -2.82436,0.70609 -3.49889,0.61745 -9.10376,1.15608 -11.65048,-2.11827 -0.38908,-0.50024 -0.31702,-1.26499 -0.70609,-1.76523 -0.46263,-0.5948 -1.2324,-0.87935 -1.76523,-1.41218 -0.80562,-0.80562 -2.4043,-3.89248 -2.82436,-4.94263 -0.58073,-1.45184 -0.68321,-4.91975 -1.76522,-6.00176 -0.61175,-0.61175 -2.68365,-1.83601 -3.53045,-2.11827 -0.73714,-0.24571 -1.71812,0.1883 -2.47132,0 -0.94275,-0.23569 -1.87464,-0.82171 -2.82436,-1.05914 -0.45667,-0.11417 -0.95551,0.11417 -1.41218,0 -0.28237,-0.0706 -2.34907,-1.16768 -2.47131,-1.41218 -0.4373,-0.87459 -0.31778,-1.6064 -1.05914,-2.47131 -0.51983,-0.60647 -3.77481,-4.318 -4.58958,-4.58959 -0.22329,-0.0744 -0.49558,0.10526 -0.70609,0 -0.10526,-0.0526 0.0832,-0.26983 0,-0.35304 -0.15688,-0.15687 -2.03424,0 -2.11827,0 -2.00059,0 -4.01342,-0.22093 -6.00177,0 -2.04329,0.22703 -4.34952,0.91085 -6.35481,1.41218 -1.4338,0.35845 -3.52341,5.29215 -5.64872,6.35481 -0.21052,0.10525 -0.4828,-0.0744 -0.70609,0 -0.15789,0.0526 -0.23536,0.23536 -0.35304,0.35304 -0.35305,0.11768 -0.69206,0.29187 -1.05914,0.35305 -0.34824,0.058 -0.70609,0 -1.05913,0 -0.82378,0.11768 -1.65534,0.18985 -2.47132,0.35304 -0.95158,0.19032 -1.86244,0.57784 -2.82436,0.70609 -0.81655,0.10887 -1.6539,-0.10217 -2.47132,0 -1.0605,0.13257 -1.43656,2.01119 -1.76522,2.47132 -0.24662,0.34527 -0.7591,0.40606 -1.05914,0.70609 -2.32762,2.32763 0.44581,0.64425 -2.82436,2.82436 -2.30657,1.53771 -4.91163,2.13477 -7.41394,3.1774 -0.72871,0.30363 -1.37483,0.79362 -2.11827,1.05914 -1.82779,0.65278 -3.82472,0.7489 -5.64872,1.41218 -0.39876,0.145 -0.6566,0.57191 -1.05914,0.70609 -0.33492,0.11164 -0.71663,-0.0856 -1.05913,0 -1.12116,0.28029 -3.31227,2.4842 -4.23654,3.1774 -0.88817,0.66613 -2.03933,0.98019 -2.82436,1.76523 -0.7915,0.7915 -1.10709,2.29989 -1.765226,3.1774 -0.689856,0.91981 -3.515859,3.52559 -4.589585,3.8835 -6.216258,2.07208 -9.759356,2.0584 -15.887026,2.82436 -1.013699,0.12671 -1.843732,0.68646 -3.177405,0.35304 -0.766415,-0.1916 -0.57728,-0.59158 -1.41218,-0.35304 -3.508317,1.00237 -6.662579,3.33129 -9.885261,4.94263 -0.210515,0.10526 -0.470726,0 -0.70609,0 -0.990867,0 -1.889934,0.11417 -2.82436,-0.35305 -1.745068,-0.87253 -4.197399,-3.07945 -5.295675,-4.58958 -0.372745,-0.51253 -0.456449,-1.18273 -0.70609,-1.76523 -0.21259,-0.49604 -1.18368,-1.83453 -0.70609,-2.47131 0.547857,-0.73048 5.548082,-4.15709 5.64872,-4.23654 2.713423,-2.14218 5.246096,-4.43885 8.120036,-6.35481 1.143894,-0.7626 2.077577,-1.16445 2.82436,-2.47132 0.440311,-0.77054 2.287079,-7.60896 2.82436,-7.76699 4.499436,-1.32336 6.445293,-0.8654 10.944395,-1.76522 1.204774,-0.24096 2.351742,-0.71246 3.53045,-1.05914 0.821923,-0.24174 1.722394,-0.29002 2.471315,-0.70609 0.370912,-0.20606 0.470727,-0.70609 0.70609,-1.05913 0.235364,-0.35305 0.538948,-0.66914 0.70609,-1.05914 0.903871,-2.10903 0.57712,-4.51535 0.70609,-6.70785 0.177295,-3.014 0.738876,-5.90848 1.412181,-8.82613 0.160961,-0.6975 0.06232,-1.46414 0.353045,-2.11827 0.202777,-0.45625 0.685967,-0.72743 1.059135,-1.05913 0.686961,-0.61064 1.342841,-1.27177 2.11827,-1.76523 0.534658,-0.34024 1.227818,-0.37021 1.765225,-0.70609 0.423389,-0.26462 0.659706,-0.75957 1.059136,-1.05913 1.72534,-1.29401 3.66732,-2.68128 5.64872,-3.53045 2.07242,-0.88818 8.28994,-1.97761 9.53221,-3.53045 0.23248,-0.2906 0.16158,-0.74003 0.35305,-1.05914 1.90112,-3.16853 -0.39966,5.67748 1.41218,-4.58958 0.2488,-1.40988 0.57647,-2.81076 0.70609,-4.23654 0.13149,-1.44644 -0.28688,-3.1552 0,-4.58959 0.11329,-0.56648 0.88653,-1.05391 0.35304,-1.76522 -0.43024,-0.57367 -1.60134,-0.24967 -2.11827,-0.35305 -1.68019,-0.33604 -3.24908,-1.15163 -4.94263,-1.41218 -2.90734,-0.44728 -7.20493,0.47248 -9.88526,-1.05913 -0.45694,-0.26112 -0.43531,-0.9609 -0.70609,-1.41218 -0.4366,-0.72769 -1.228086,-1.28987 -1.412176,-2.11828 -0.320232,-1.44104 -0.195342,-7.96947 0,-9.53221 0.206607,-1.65286 1.488816,-3.47391 2.118266,-4.94263 0.87795,-2.04853 0.29831,-4.61968 0,-6.70786 -0.0526,-0.36856 -0.092,-1.15112 -0.35304,-1.41218 -0.30003,-0.30003 -0.75911,-0.40606 -1.05914,-0.70609 -0.532823,-0.53282 -0.87935,-1.23239 -1.412176,-1.76522 -1.698483,-1.69848 -2.427172,-1.65804 -3.883495,-3.53045 -0.582495,-0.74892 -0.860713,-1.69926 -1.41218,-2.47132 -0.271486,-0.38008 -1.218848,-1.4416 -1.412181,-2.11827 -0.372817,-1.30486 -0.693606,-3.58038 -0.353045,-4.94263 0.426209,-1.70483 0.167774,0.0175 0.70609,-1.05913 0.716444,-1.43289 0.700689,-3.1666 1.412181,-4.58959 0.189756,-0.37951 0.516334,-0.67962 0.70609,-1.05913 0.57428,-1.14856 0.04736,-1.10649 1.059135,-2.11827 0.689396,-0.6894 2.673374,-2.3346 3.53045,-2.82436 1.062351,-0.42494 2.187901,-0.81848 3.177401,-1.41218 0.83287,-0.49972 2.43342,-1.60766 3.53045,-1.05914 2.10422,1.05211 1.90558,3.41133 2.82436,4.94263 0.25688,0.42813 0.83585,0.61257 1.05914,1.05914 0.0526,0.10526 -0.0832,0.26983 0,0.35304 0.28674,0.28674 4.18325,0.45463 4.58958,0.35305 0.96578,-0.24145 0.56813,-0.49643 1.41218,-1.05914 0.13356,-0.089 4.3955,-0.0776 4.58959,0 0.30905,0.12362 0.47073,0.47073 0.70609,0.70609 0.47073,0.23537 0.9194,0.5213 1.41218,0.70609 0.45432,0.17037 1.00846,0.0839 1.41218,0.35305 0.35304,0.23536 0.34225,0.84083 0.70609,1.05913 0.30273,0.18164 0.74336,-0.15788 1.05913,0 0.44658,0.22329 0.66927,0.74724 1.05914,1.05914 1.36982,1.09586 3.1986,1.78112 4.58958,2.82436 0.0223,0.0167 0.349,3.15918 0.35305,3.1774 0.13748,0.61865 0.52399,1.15822 0.70609,1.76523 0.17243,0.57475 0.0847,1.22851 0.35304,1.76522 0.41279,0.82557 2.55706,2.98765 3.17741,3.53045 1.23713,1.08249 2.72953,1.00118 4.23654,1.41218 3.07443,0.83848 6.13214,1.11001 8.82613,2.82436 0.71594,0.4556 1.35924,1.03267 2.11827,1.41218 1.80441,0.90221 8.25705,1.98126 9.88526,0.35305 0.55821,-0.55821 0.68111,-1.42523 1.05913,-2.11827 0.32859,-0.60241 0.79521,-1.13181 1.05914,-1.76523 0.40022,-0.96052 1.36328,-3.72602 1.05913,-4.94263 -0.32134,-1.28535 -2.98267,-2.02363 -3.88349,-2.82436 -0.68697,-0.61063 -1.08769,-1.49719 -1.76523,-2.11827 -2.60995,-2.39245 -4.54352,-2.83964 -5.64872,-6.70785 -1.60595,-5.62082 3.67956,-9.10898 4.23654,-14.1218 0.36543,-3.28884 -0.76689,-6.31752 -1.05913,-9.53222 -0.13851,-1.52358 0,-3.05972 0,-4.58958 0,-1.17682 -0.28542,-2.38877 0,-3.53045 0.78125,-3.12502 0.98775,-1.94079 2.82436,-4.23654 0.42866,-0.53583 0.57392,-1.28001 1.05913,-1.76523 0.16643,-0.16643 0.49558,0.10526 0.70609,0 1.14504,-0.57252 2.45504,-2.16609 3.17741,-3.1774 4.08398,-5.71758 2.65519,-12.69492 -0.35305,-18.71139 -0.7127,-1.42541 -0.72416,-0.81694 -1.76522,-2.11827 -0.6707,-0.83837 -1.61625,-2.27376 -2.11827,-3.1774 -1.22726,-2.20907 -0.29935,-1.25109 -1.05914,-3.53045 -0.16643,-0.49929 -0.56151,-0.90615 -0.70609,-1.41218 -0.097,-0.33947 0,-0.70609 0,-1.05914 -0.23536,-0.58841 -0.52399,-1.15822 -0.70609,-1.76522 -0.17243,-0.57476 -0.13019,-1.20809 -0.35304,-1.76523 -0.25485,-0.63712 -0.78045,-1.13817 -1.05914,-1.76522 -0.19706,-0.4434 -0.0959,-1.00072 -0.35304,-1.41218 -0.52182,-0.83491 -6.05705,-4.69337 -7.0609,-5.29568 -0.54343,-0.32605 -1.23793,-0.35456 -1.76523,-0.70609 -0.82377,-0.54918 -1.64754,-1.85349 -2.47131,-2.47131 -0.54896,-0.41172 -1.28002,-0.57393 -1.76523,-1.05914 -0.60006,-0.60006 -0.91305,-1.43196 -1.41218,-2.11827 -0.4432,-0.60941 -1.05135,-1.1037 -1.41218,-1.76523 -1.02503,-1.87921 -1.05913,-7.97872 -1.05913,-10.2383 0,-0.54667 0.3237,-4.29522 0,-4.94263 -0.47991,-0.9598 -1.23836,-1.85844 -1.76523,-2.82436 -0.80684,-1.47921 -1.36474,-3.08253 -2.11827,-4.58959 -1.92519,-3.85037 -3.87104,-7.33922 -4.58959,-11.650481 -0.10209,-0.61257 -0.79209,-7.505363 -0.35304,-8.120036 1.29071,-1.807001 4.59119,-3.178366 6.35481,-4.23654 0.86807,-0.520842 1.57998,-1.285277 2.47132,-1.765225 0.65532,-0.352865 1.40262,-0.501619 2.11827,-0.70609 0.11315,-0.03233 0.26983,0.08321 0.35304,0 0.49928,-0.499281 -0.10737,-1.420391 0,-2.11827 0.14756,-0.959144 0.55853,-1.865217 0.70609,-2.82436 0.35639,-2.31656 -0.62126,-11.692898 1.41218,-12.709621 0.21909,-0.109545 1.25514,0 1.41218,0 3.4961,0 6.27906,6.739923 7.0609,9.532216 0.78497,2.803461 0.81631,5.869149 2.11827,8.47308 1.43303,2.866049 3.47538,5.183449 6.35481,6.707855 2.86985,1.519334 6.33141,1.991299 8.82613,4.23654 2.86963,2.582667 6.0205,8.182512 7.0609,11.650482 0.6034,2.01135 0.91058,4.27516 1.05913,6.35481 0.0503,0.7043 -0.10736,1.42039 0,2.11827 0.16855,1.09555 1.36032,4.41838 1.76523,5.29568 1.02898,2.22946 2.96624,4.23701 4.94263,5.64872 1.10646,0.79033 1.74966,0.91552 2.47131,2.11827 1.46332,2.43887 2.63357,5.07636 3.53045,7.76699 0.63977,1.91931 1.02725,3.90309 2.11827,5.64872 0.39979,0.63967 1.39179,1.72444 1.76523,2.47132 0.16642,0.33285 0.13674,0.75631 0.35304,1.05913 0.38694,0.54171 1.04291,0.85828 1.41218,1.41218 0.35154,0.5273 0.42268,1.1984 0.70609,1.76523 1.0381,2.0762 1.97005,3.66253 2.47132,6.00176 0.2974,1.38786 0.81146,5.33262 0.35304,6.70786 -0.15683,0.4705 -2.60463,4.36245 -2.47131,5.29567 0.9042,6.32941 5.52799,11.35965 6.70785,17.65225 0.46232,2.46569 -0.16552,5.32922 -0.35304,7.76699 -0.17969,2.33593 -0.21387,5.06144 0,7.41395 0.2761,3.03717 1.89558,10.56057 4.58958,12.35657 2.42348,1.61565 7.28128,2.75498 10.23831,3.17741 0.93199,0.13314 1.91608,0.24771 2.82436,0 0.76161,-0.20772 1.38956,-0.75551 2.11827,-1.05914 3.3021,-1.37587 6.24392,-2.71346 8.82612,-5.29567 0.35305,-0.35305 0.83585,-0.61257 1.05914,-1.05914 0.38314,-0.76628 0.43517,-1.65854 0.70609,-2.47131 0.3928,-1.17839 1.88799,-5.05386 2.47131,-6.00177 1.25699,-2.04259 3.09383,-1.28681 3.8835,-2.47131 1.47187,-2.20781 1.22493,-5.98616 1.05913,-8.47308 -0.32,-4.80011 -3.71192,-8.00125 -5.29567,-12.35658 -0.8114,-2.23135 -1.00368,-4.74605 -1.41218,-7.0609 -0.18855,-1.06846 -0.58628,-2.09907 -0.70609,-3.1774 -0.16342,-1.47074 -0.24899,-4.89432 1.41218,-6.00177 0.40372,-0.26915 1.00846,-0.0839 1.41218,-0.35304 0.35304,-0.23537 0.42995,-0.73698 0.70609,-1.05914 2.32047,-2.70722 4.47725,-5.10313 4.94263,-8.82612 0.41528,-3.32228 -2.76677,-3.65014 -4.23654,-6.00177 -0.53786,-0.86058 -2.34188,-4.74264 -2.47132,-5.64872 -0.21306,-1.49147 -0.28262,-7.83673 0,-9.17917 0.62088,-2.94917 2.7505,-5.13169 3.17741,-8.12004 0.13771,-0.96396 0.20675,-2.60007 0,-3.53045 -0.13748,-0.61864 -0.60191,-1.14011 -0.70609,-1.76522 -0.13543,-0.81256 0.13543,-1.65875 0,-2.47132 -0.10419,-0.62511 -0.55239,-1.15041 -0.70609,-1.76522 -0.87753,-3.51011 -0.81495,-7.97489 1.41218,-10.944396 0.45212,-0.602825 1.19813,-0.915977 1.76522,-1.41218 3.19681,-2.797208 6.24114,-5.780382 9.53222,-8.473081 0.42214,-0.345386 1.47606,-0.833857 1.76522,-1.41218 0.10526,-0.210515 -0.0461,-0.475297 0,-0.70609 0.61202,-3.060067 0.30976,2.018263 0.70609,-3.53045 0.24517,-3.432322 -0.35304,-6.81005 -0.35304,-10.238305 0,-0.588409 -0.23179,-1.224393 0,-1.765225 0.782,-1.824664 2.91777,-2.580328 4.58958,-3.177405 2.35125,-0.839731 4.06494,1.823589 5.29568,3.177405 2.06572,2.272292 2.31022,1.742374 3.53045,4.589585 0.64143,1.496676 0.96008,3.710832 1.05913,5.295675 0.1982,3.171043 0.0172,6.385225 -0.35304,9.532215 -0.16557,1.407369 -0.76024,2.879229 -0.35305,4.236541 0.22685,0.756139 0.75551,1.389563 1.05914,2.11827 0.28626,0.687031 0.33682,1.47205 0.70609,2.11827 1.23388,2.159286 3.08133,3.709541 4.58959,5.648721 1.92241,2.47168 4.68624,6.86035 5.64872,9.88526 1.4124,4.43898 0.70609,12.07433 0.70609,16.94616 0,0.9456 -0.18527,2.60411 0,3.53045 0.80118,4.00594 3.55203,5.88562 5.29567,9.17917 0.52236,0.98668 0.70609,2.11827 1.05914,3.17741 0.23536,0.70609 0.59291,1.38264 0.70609,2.11827 0.20935,1.36077 0.30645,5.32882 0,6.70785 -0.27094,1.21919 -1.86736,4.04109 -2.11827,5.29568 -0.19065,0.95322 0,2.203 0,3.1774 0,2.589 0,5.17799 0,7.76699 0,0.33327 -0.0901,6.26472 0,6.35481 0.0832,0.0832 0.23536,0 0.35304,0 0.82377,0 1.64997,-0.0632 2.47132,0 1.22421,0.0942 4.71273,1.39029 5.64872,2.11827 0.63375,0.49292 4.10995,4.54196 4.58958,5.29568 0.971,1.52585 1.51105,3.98236 2.82436,5.29567 0.18607,0.18607 0.50061,0.18866 0.70609,0.35305 2.62556,2.10045 4.81192,5.83467 8.82613,4.94263 1.63767,-0.36393 5.51861,-5.48842 6.00176,-6.00177 1.40926,-1.49733 4.11031,-4.90417 4.58959,-7.0609 0.38912,-1.75104 -0.14552,-3.9455 0.70609,-5.64872 0.22328,-0.44657 0.83585,-0.61256 1.05913,-1.05913 0.15789,-0.31578 -0.0692,-0.71295 0,-1.05914 0.32733,-1.63662 1.92522,-5.55182 2.82436,-6.70785 0.36125,-0.46447 0.99611,-0.64307 1.41218,-1.05914 0.18607,-0.18607 0.1341,-0.56012 0.35305,-0.70609 0.80289,-0.53526 2.29959,0.52477 3.1774,-0.35304 0.18607,-0.18607 0.16698,-0.52002 0.35305,-0.70609 1.71328,-1.71329 1.2563,-0.2302 2.11827,-2.47132 1.40726,-3.65888 1.62257,-11.55538 4.94263,-13.76875 1.50674,-1.0045 8.05996,2.79432 8.12003,2.82436 0.75903,0.37951 1.41218,0.94145 2.11827,1.41218 0.70609,0.47072 1.51821,0.81211 2.11827,1.41218 4.53891,4.5389 1.94186,18.1826 2.82436,24.3601 0.63091,4.41637 2.54244,8.61787 3.17741,13.06267 0.17566,1.22963 0,2.65073 0,3.88349 0,4.32377 -0.14886,-1.042 0.35304,2.47132 0.32951,2.30656 -0.32951,4.75434 0,7.0609 0.44772,3.13402 0.38974,-0.58212 0.70609,3.53045 0.0632,0.82134 -0.12526,1.65712 0,2.47131 0.11318,0.73563 0.53873,1.39305 0.70609,2.11827 0.33251,1.44088 0.77159,4.88992 0.35305,6.35481 -0.11657,0.40798 -0.58953,0.65116 -0.70609,1.05914 -0.12932,0.45261 0.14886,0.96561 0,1.41218 -0.53592,1.60774 -4.5992,3.32247 -6.00177,3.88349 -0.72461,0.28985 -0.005,-0.70074 -1.05913,0.35305 -1.25476,1.25475 -1.1905,1.80626 -1.76523,3.53045 -0.93817,2.81452 -1.51804,5.85989 -1.76522,8.82612 -0.17853,2.14239 0.30034,4.99534 -1.41218,6.70786 -0.18607,0.18607 -0.50061,0.18866 -0.70609,0.35304 -0.38988,0.3119 -0.63575,0.79452 -1.05914,1.05914 -1.29732,0.81082 -2.8502,1.11827 -4.23654,1.76522 -3.73044,1.74088 -7.6152,3.15183 -10.94439,5.64872 -0.7353,0.55148 -1.38297,1.21376 -2.11827,1.76523 -0.21052,0.15789 -0.54821,0.14253 -0.70609,0.35304 -0.22329,0.29772 -0.16158,0.74003 -0.35305,1.05914 -0.17125,0.28542 -0.53484,0.42067 -0.70609,0.70609 -0.19146,0.31911 -0.14662,0.74949 -0.35304,1.05913 -0.27695,0.41543 -0.73951,0.67558 -1.05914,1.05914 -0.27163,0.32596 -0.40606,0.7591 -0.70609,1.05913 -0.41609,0.4161 -1.78577,0.57309 -2.11827,0.70609 -2.89955,1.15983 -6.90131,3.44492 -9.17917,5.29568 -1.1038,0.89684 -1.87319,3.55958 -1.41218,4.94263 0.15789,0.47366 0.78219,0.64371 1.05914,1.05914 0.55773,0.8366 -0.5014,1.98775 -1.05914,2.82436 -0.9026,1.3539 -3.49627,3.02446 -4.58958,3.88349 -1.83464,1.4415 -3.10297,2.8552 -4.58959,4.58959 -0.54155,0.6318 -1.30364,1.07284 -1.76522,1.76522 -0.39666,0.59499 4.20779,5.31454 4.58958,6.00177 0.36146,0.65062 0.37324,1.45256 0.70609,2.11827 0.4965,0.993 1.30964,1.81193 1.76523,2.82436 0.61085,1.35745 0.90797,2.83596 1.41218,4.23654 1.60649,4.46249 1.50596,3.94654 3.1774,7.76699 0.79911,1.82654 1.12472,3.07466 2.47132,4.58958 0.39091,0.43978 0.99611,0.64307 1.41218,1.05914 0.18607,0.18607 0.19516,0.49557 0.35304,0.70609 1.10983,1.47977 2.94888,2.71009 4.58959,3.53045 1.02283,0.51141 4.63146,1.54142 5.29567,2.47131 0.36835,0.51569 0.38004,1.2218 0.70609,1.76523 0.38769,0.64614 1.11535,1.07262 1.41218,1.76522 0.42739,0.99725 0.45759,2.12128 0.70609,3.17741 0.86693,3.68445 1.40531,7.48952 1.05914,11.29744 -0.11998,1.31979 -0.79247,1.23189 -1.41218,2.47131 -0.0526,0.10526 0.26983,-0.0832 0.35304,0 0.33286,0.33286 0.26111,1.02051 0,1.41218 -0.18399,0.27599 -4.3678,0.16424 -4.94263,0 -0.85513,-0.24432 -1.73275,-0.76371 -2.47131,-1.05913 -0.45051,-0.18021 -0.9662,-0.16191 -1.41218,-0.35305 -1.68475,-0.72203 -3.51064,-2.38485 -4.94263,-3.53045 -0.51983,-0.41586 -0.85828,-1.04291 -1.41218,-1.41218 -1.26645,-0.84429 -3.46442,-1.82262 -4.94263,-2.11827 -1.72792,-0.34558 -2.05211,0.0265 -3.8835,-0.70609 -0.73297,-0.29319 -1.37637,-0.78935 -2.11827,-1.05913 -1.12787,-0.41014 -2.40674,-0.2847 -3.53045,-0.70609 -0.39729,-0.14899 -0.67962,-0.51634 -1.05913,-0.70609 -0.99656,-0.49828 -2.79953,-1.23152 -3.8835,-1.41218 -1.89034,-0.31506 -4.65419,-0.0875 -6.35481,0.70609 -1.538,0.71773 -2.71849,2.06533 -4.23654,2.82436 -8.79151,3.76779 0.83337,-0.88981 -3.1774,2.11827 -0.1883,0.14122 -0.49558,-0.10526 -0.70609,0 -0.10526,0.0526 0.0832,0.26983 0,0.35304 -0.25374,0.25374 -1.68687,0 -2.11827,0 -1.80579,0 -0.91113,-0.0499 -3.53045,0.35305 -5.85375,0.90057 2.28907,-0.16351 -4.94264,0.35304 -2.89509,0.20679 -5.35606,0.6759 -8.12003,-0.70609 -0.52629,-0.26314 -0.9013,-0.7672 -1.41218,-1.05913 -0.77815,-0.44466 -1.6697,-0.65833 -2.47132,-1.05914 -1.09214,-0.54607 -2.02034,-1.33133 -3.1774,-1.76522 -2.14188,-0.80321 -5.14895,-1.05455 -7.41395,-0.70609 -3.45337,0.53129 -6.75501,2.15364 -9.53221,4.23654 -0.11768,0.11768 -0.23536,0.23536 -0.35305,0.35304 0,0.11768 0.0832,0.26983 0,0.35305 -0.0832,0.0832 -0.26983,-0.0832 -0.35304,0 -0.0832,0.0832 0.10526,0.30041 0,0.35304 -0.21052,0.10526 -0.4753,-0.0462 -0.70609,0 -1.30286,0.26057 -2.55984,0.83853 -3.8835,1.05914 -0.69648,0.11608 -1.41763,-0.0876 -2.11827,0 -0.89791,-0.0591 -1.62319,0.58493 -2.47131,0.70609 -1.58014,0.22573 -3.32907,0 -4.94263,0 -3.73077,0 -7.35639,0.31905 -10.9444,-0.70609 z"
     id="path1" />
</svg>
