<?xml version="1.0" encoding="UTF-8" standalone="no"?>
<svg
   width="400"
   height="400"
   version="1.1"
   id="svg1"
   sodipodi:docname="island_alpha.svg"
   inkscape:version="1.4 (86a8ad7, 2024-10-11)"
   xmlns:inkscape="http://www.inkscape.org/namespaces/inkscape"
   xmlns:sodipodi="http://sodipodi.sourceforge.net/DTD/sodipodi-0.dtd"
   xmlns="http://www.w3.org/2000/svg"
   xmlns:svg="http://www.w3.org/2000/svg">
  <defs
     id="defs1" />
  <sodipodi:namedview
     id="namedview1"
     pagecolor="#ffffff"
     bordercolor="#000000"
     borderopacity="0.25"
     inkscape:showpageshadow="2"
     inkscape:pageopacity="0.0"
     inkscape:pagecheckerboard="true"
     inkscape:deskcolor="#d1d1d1"
     inkscape:zoom="1.41625"
     inkscape:cx="161.69462"
     inkscape:cy="214.29832"
     inkscape:window-width="1396"
     inkscape:window-height="1341"
     inkscape:window-x="1154"
     inkscape:window-y="0"
     inkscape:window-maximized="0"
     inkscape:current-layer="layer6" />
  <g
     inkscape:groupmode="layer"
     id="layer5"
     inkscape:label="Layer 1">
    <path
       style="fill:#196a49;stroke-width:0.377953;stroke-dasharray:0.377953, 0.377953;paint-order:stroke fill markers;fill-opacity:1"
       d="m 207.94351,338.57017 c -6.29196,1.7977 1.29747,-0.12592 -4.94263,0.70609 -0.96191,0.12825 -1.8687,0.53744 -2.82436,0.70609 -3.49889,0.61745 -9.10376,1.15608 -11.65048,-2.11827 -0.38908,-0.50024 -0.31702,-1.26499 -0.70609,-1.76523 -0.46263,-0.5948 -1.2324,-0.87935 -1.76523,-1.41218 -0.80562,-0.80562 -2.4043,-3.89248 -2.82436,-4.94263 -0.58073,-1.45184 -0.68321,-4.91975 -1.76522,-6.00176 -0.61175,-0.61175 -2.68365,-1.83601 -3.53045,-2.11827 -0.73714,-0.24571 -1.71812,0.1883 -2.47132,0 -0.94275,-0.23569 -1.87464,-0.82171 -2.82436,-1.05914 -0.45667,-0.11417 -0.95551,0.11417 -1.41218,0 -0.28237,-0.0706 -2.34907,-1.16768 -2.47131,-1.41218 -0.4373,-0.87459 -0.31778,-1.6064 -1.05914,-2.47131 -0.51983,-0.60647 -3.77481,-4.318 -4.58958,-4.58959 -0.22329,-0.0744 -0.49558,0.10526 -0.70609,0 -0.10526,-0.0526 0.0832,-0.26983 0,-0.35304 -0.15688,-0.15687 -2.03424,0 -2.11827,0 -2.00059,0 -4.01342,-0.22093 -6.00177,0 -2.04329,0.22703 -4.34952,0.91085 -6.35481,1.41218 -1.4338,0.35845 -3.52341,5.29215 -5.64872,6.35481 -0.21052,0.10525 -0.4828,-0.0744 -0.70609,0 -0.15789,0.0526 -0.23536,0.23536 -0.35304,0.35304 -0.35305,0.11768 -0.69206,0.29187 -1.05914,0.35305 -0.34824,0.058 -0.70609,0 -1.05913,0 -0.82378,0.11768 -1.65534,0.18985 -2.47132,0.35304 -0.95158,0.19032 -1.86244,0.57784 -2.82436,0.70609 -0.81655,0.10887 -1.6539,-0.10217 -2.47132,0 -1.0605,0.13257 -1.43656,2.01119 -1.76522,2.47132 -0.24662,0.34527 -0.7591,0.40606 -1.05914,0.70609 -2.32762,2.32763 0.44581,0.64425 -2.82436,2.82436 -2.30657,1.53771 -4.91163,2.13477 -7.41394,3.1774 -0.72871,0.30363 -1.37483,0.79362 -2.11827,1.05914 -1.82779,0.65278 -3.82472,0.7489 -5.64872,1.41218 -0.39876,0.145 -0.6566,0.57191 -1.05914,0.70609 -0.33492,0.11164 -0.71663,-0.0856 -1.05913,0 -1.12116,0.28029 -3.31227,2.4842 -4.23654,3.1774 -0.88817,0.66613 -2.03933,0.98019 -2.82436,1.76523 -0.7915,0.7915 -1.10709,2.29989 -1.765226,3.1774 -0.689856,0.91981 -3.515859,3.52559 -4.589585,3.8835 -6.216258,2.07208 -9.759356,2.0584 -15.887026,2.82436 -1.013699,0.12671 -1.843732,0.68646 -3.177405,0.35304 -0.766415,-0.1916 -0.57728,-0.59158 -1.41218,-0.35304 -3.508317,1.00237 -6.662579,3.33129 -9.885261,4.94263 -0.210515,0.10526 -0.470726,0 -0.70609,0 -0.990867,0 -1.889934,0.11417 -2.82436,-0.35305 -1.745068,-0.87253 -4.197399,-3.07945 -5.295675,-4.58958 -0.372745,-0.51253 -0.456449,-1.18273 -0.70609,-1.76523 -0.21259,-0.49604 -1.18368,-1.83453 -0.70609,-2.47131 0.547857,-0.73048 5.548082,-4.15709 5.64872,-4.23654 2.713423,-2.14218 5.246096,-4.43885 8.120036,-6.35481 1.143894,-0.7626 2.077577,-1.16445 2.82436,-2.47132 0.440311,-0.77054 2.287079,-7.60896 2.82436,-7.76699 4.499436,-1.32336 6.445293,-0.8654 10.944395,-1.76522 1.204774,-0.24096 2.351742,-0.71246 3.53045,-1.05914 0.821923,-0.24174 1.722394,-0.29002 2.471315,-0.70609 0.370912,-0.20606 0.470727,-0.70609 0.70609,-1.05913 0.235364,-0.35305 0.538948,-0.66914 0.70609,-1.05914 0.903871,-2.10903 0.57712,-4.51535 0.70609,-6.70785 0.177295,-3.014 0.738876,-5.90848 1.412181,-8.82613 0.160961,-0.6975 0.06232,-1.46414 0.353045,-2.11827 0.202777,-0.45625 0.685967,-0.72743 1.059135,-1.05913 0.686961,-0.61064 1.342841,-1.27177 2.11827,-1.76523 0.534658,-0.34024 1.227818,-0.37021 1.765225,-0.70609 0.423389,-0.26462 0.659706,-0.75957 1.059136,-1.05913 1.72534,-1.29401 3.66732,-2.68128 5.64872,-3.53045 2.07242,-0.88818 8.28994,-1.97761 9.53221,-3.53045 0.23248,-0.2906 0.16158,-0.74003 0.35305,-1.05914 1.90112,-3.16853 -0.39966,5.67748 1.41218,-4.58958 0.2488,-1.40988 0.57647,-2.81076 0.70609,-4.23654 0.13149,-1.44644 -0.28688,-3.1552 0,-4.58959 0.11329,-0.56648 0.88653,-1.05391 0.35304,-1.76522 -0.43024,-0.57367 -1.60134,-0.24967 -2.11827,-0.35305 -1.68019,-0.33604 -3.24908,-1.15163 -4.94263,-1.41218 -2.90734,-0.44728 -7.20493,0.47248 -9.88526,-1.05913 -0.45694,-0.26112 -0.43531,-0.9609 -0.70609,-1.41218 -0.4366,-0.72769 -1.228086,-1.28987 -1.412176,-2.11828 -0.320232,-1.44104 -0.195342,-7.96947 0,-9.53221 0.206607,-1.65286 1.488816,-3.47391 2.118266,-4.94263 0.87795,-2.04853 0.29831,-4.61968 0,-6.70786 -0.0526,-0.36856 -0.092,-1.15112 -0.35304,-1.41218 -0.30003,-0.30003 -0.75911,-0.40606 -1.05914,-0.70609 -0.532823,-0.53282 -0.87935,-1.23239 -1.412176,-1.76522 -1.698483,-1.69848 -2.427172,-1.65804 -3.883495,-3.53045 -0.582495,-0.74892 -0.860713,-1.69926 -1.41218,-2.47132 -0.271486,-0.38008 -1.218848,-1.4416 -1.412181,-2.11827 -0.372817,-1.30486 -0.693606,-3.58038 -0.353045,-4.94263 0.426209,-1.70483 0.167774,0.0175 0.70609,-1.05913 0.716444,-1.43289 0.700689,-3.1666 1.412181,-4.58959 0.189756,-0.37951 0.516334,-0.67962 0.70609,-1.05913 0.57428,-1.14856 0.04736,-1.10649 1.059135,-2.11827 0.689396,-0.6894 2.673374,-2.3346 3.53045,-2.82436 1.062351,-0.42494 2.187901,-0.81848 3.177401,-1.41218 0.83287,-0.49972 2.43342,-1.60766 3.53045,-1.05914 2.10422,1.05211 1.90558,3.41133 2.82436,4.94263 0.25688,0.42813 0.83585,0.61257 1.05914,1.05914 0.0526,0.10526 -0.0832,0.26983 0,0.35304 0.28674,0.28674 4.18325,0.45463 4.58958,0.35305 0.96578,-0.24145 0.56813,-0.49643 1.41218,-1.05914 0.13356,-0.089 4.3955,-0.0776 4.58959,0 0.30905,0.12362 0.47073,0.47073 0.70609,0.70609 0.47073,0.23537 0.9194,0.5213 1.41218,0.70609 0.45432,0.17037 1.00846,0.0839 1.41218,0.35305 0.35304,0.23536 0.34225,0.84083 0.70609,1.05913 0.30273,0.18164 0.74336,-0.15788 1.05913,0 0.44658,0.22329 0.66927,0.74724 1.05914,1.05914 1.36982,1.09586 3.1986,1.78112 4.58958,2.82436 0.0223,0.0167 0.349,3.15918 0.35305,3.1774 0.13748,0.61865 0.52399,1.15822 0.70609,1.76523 0.17243,0.57475 0.0847,1.22851 0.35304,1.76522 0.41279,0.82557 2.55706,2.98765 3.17741,3.53045 1.23713,1.08249 2.72953,1.00118 4.23654,1.41218 3.07443,0.83848 6.13214,1.11001 8.82613,2.82436 0.71594,0.4556 1.35924,1.03267 2.11827,1.41218 1.80441,0.90221 8.25705,1.98126 9.88526,0.35305 0.55821,-0.55821 0.68111,-1.42523 1.05913,-2.11827 0.32859,-0.60241 0.79521,-1.13181 1.05914,-1.76523 0.40022,-0.96052 1.36328,-3.72602 1.05913,-4.94263 -0.32134,-1.28535 -2.98267,-2.02363 -3.88349,-2.82436 -0.68697,-0.61063 -1.08769,-1.49719 -1.76523,-2.11827 -2.60995,-2.39245 -4.54352,-2.83964 -5.64872,-6.70785 -1.60595,-5.62082 3.67956,-9.10898 4.23654,-14.1218 0.36543,-3.28884 -0.76689,-6.31752 -1.05913,-9.53222 -0.13851,-1.52358 0,-3.05972 0,-4.58958 0,-1.17682 -0.28542,-2.38877 0,-3.53045 0.78125,-3.12502 0.98775,-1.94079 2.82436,-4.23654 0.42866,-0.53583 0.57392,-1.28001 1.05913,-1.76523 0.16643,-0.16643 0.49558,0.10526 0.70609,0 1.14504,-0.57252 2.45504,-2.16609 3.17741,-3.1774 4.08398,-5.71758 2.65519,-12.69492 -0.35305,-18.71139 -0.7127,-1.42541 -0.72416,-0.81694 -1.76522,-2.11827 -0.6707,-0.83837 -1.61625,-2.27376 -2.11827,-3.1774 -1.22726,-2.20907 -0.29935,-1.25109 -1.05914,-3.53045 -0.16643,-0.49929 -0.56151,-0.90615 -0.70609,-1.41218 -0.097,-0.33947 0,-0.70609 0,-1.05914 -0.23536,-0.58841 -0.52399,-1.15822 -0.70609,-1.76522 -0.17243,-0.57476 -0.13019,-1.20809 -0.35304,-1.76523 -0.25485,-0.63712 -0.78045,-1.13817 -1.05914,-1.76522 -0.19706,-0.4434 -0.0959,-1.00072 -0.35304,-1.41218 -0.52182,-0.83491 -6.05705,-4.69337 -7.0609,-5.29568 -0.54343,-0.32605 -1.23793,-0.35456 -1.76523,-0.70609 -0.82377,-0.54918 -1.64754,-1.85349 -2.47131,-2.47131 -0.54896,-0.41172 -1.28002,-0.57393 -1.76523,-1.05914 -0.60006,-0.60006 -0.91305,-1.43196 -1.41218,-2.11827 -0.4432,-0.60941 -1.05135,-1.1037 -1.41218,-1.76523 -1.02503,-1.87921 -1.05913,-7.97872 -1.05913,-10.2383 0,-0.54667 0.3237,-4.29522 0,-4.94263 -0.47991,-0.9598 -1.23836,-1.85844 -1.76523,-2.82436 -0.80684,-1.47921 -1.36474,-3.08253 -2.11827,-4.58959 -1.92519,-3.85037 -3.87104,-7.33922 -4.58959,-11.650481 -0.10209,-0.61257 -0.79209,-7.505363 -0.35304,-8.120036 1.29071,-1.807001 4.59119,-3.178366 6.35481,-4.23654 0.86807,-0.520842 1.57998,-1.285277 2.47132,-1.765225 0.65532,-0.352865 1.40262,-0.501619 2.11827,-0.70609 0.11315,-0.03233 0.26983,0.08321 0.35304,0 0.49928,-0.499281 -0.10737,-1.420391 0,-2.11827 0.14756,-0.959144 0.55853,-1.865217 0.70609,-2.82436 0.35639,-2.31656 -0.62126,-11.692898 1.41218,-12.709621 0.21909,-0.109545 1.25514,0 1.41218,0 3.4961,0 6.27906,6.739923 7.0609,9.532216 0.78497,2.803461 0.81631,5.869149 2.11827,8.47308 1.43303,2.866049 3.47538,5.183449 6.35481,6.707855 2.86985,1.519334 6.33141,1.991299 8.82613,4.23654 2.86963,2.582667 6.0205,8.182512 7.0609,11.650482 0.6034,2.01135 0.91058,4.27516 1.05913,6.35481 0.0503,0.7043 -0.10736,1.42039 0,2.11827 0.16855,1.09555 1.36032,4.41838 1.76523,5.29568 1.02898,2.22946 2.96624,4.23701 4.94263,5.64872 1.10646,0.79033 1.74966,0.91552 2.47131,2.11827 1.46332,2.43887 2.63357,5.07636 3.53045,7.76699 0.63977,1.91931 1.02725,3.90309 2.11827,5.64872 0.39979,0.63967 1.39179,1.72444 1.76523,2.47132 0.16642,0.33285 0.13674,0.75631 0.35304,1.05913 0.38694,0.54171 1.04291,0.85828 1.41218,1.41218 0.35154,0.5273 0.42268,1.1984 0.70609,1.76523 1.0381,2.0762 1.97005,3.66253 2.47132,6.00176 0.2974,1.38786 0.81146,5.33262 0.35304,6.70786 -0.15683,0.4705 -2.60463,4.36245 -2.47131,5.29567 0.9042,6.32941 5.52799,11.35965 6.70785,17.65225 0.46232,2.46569 -0.16552,5.32922 -0.35304,7.76699 -0.17969,2.33593 -0.21387,5.06144 0,7.41395 0.2761,3.03717 1.89558,10.56057 4.58958,12.35657 2.42348,1.61565 7.28128,2.75498 10.23831,3.17741 0.93199,0.13314 1.91608,0.24771 2.82436,0 0.76161,-0.20772 1.38956,-0.75551 2.11827,-1.05914 3.3021,-1.37587 6.24392,-2.71346 8.82612,-5.29567 0.35305,-0.35305 0.83585,-0.61257 1.05914,-1.05914 0.38314,-0.76628 0.43517,-1.65854 0.70609,-2.47131 0.3928,-1.17839 1.88799,-5.05386 2.47131,-6.00177 1.25699,-2.04259 3.09383,-1.28681 3.8835,-2.47131 1.47187,-2.20781 1.22493,-5.98616 1.05913,-8.47308 -0.32,-4.80011 -3.71192,-8.00125 -5.29567,-12.35658 -0.8114,-2.23135 -1.00368,-4.74605 -1.41218,-7.0609 -0.18855,-1.06846 -0.58628,-2.09907 -0.70609,-3.1774 -0.16342,-1.47074 -0.24899,-4.89432 1.41218,-6.00177 0.40372,-0.26915 1.00846,-0.0839 1.41218,-0.35304 0.35304,-0.23537 0.42995,-0.73698 0.70609,-1.05914 2.32047,-2.70722 4.47725,-5.10313 4.94263,-8.82612 0.41528,-3.32228 -2.76677,-3.65014 -4.23654,-6.00177 -0.53786,-0.86058 -2.34188,-4.74264 -2.47132,-5.64872 -0.21306,-1.49147 -0.28262,-7.83673 0,-9.17917 0.62088,-2.94917 2.7505,-5.13169 3.17741,-8.12004 0.13771,-0.96396 0.20675,-2.60007 0,-3.53045 -0.13748,-0.61864 -0.60191,-1.14011 -0.70609,-1.76522 -0.13543,-0.81256 0.13543,-1.65875 0,-2.47132 -0.10419,-0.62511 -0.55239,-1.15041 -0.70609,-1.76522 -0.87753,-3.51011 -0.81495,-7.97489 1.41218,-10.944396 0.45212,-0.602825 1.19813,-0.915977 1.76522,-1.41218 3.19681,-2.797208 6.24114,-5.780382 9.53222,-8.473081 0.42214,-0.345386 1.47606,-0.833857 1.76522,-1.41218 0.10526,-0.210515 -0.0461,-0.475297 0,-0.70609 0.61202,-3.060067 0.30976,2.018263 0.70609,-3.53045 0.24517,-3.432322 -0.35304,-6.81005 -0.35304,-10.238305 0,-0.588409 -0.23179,-1.224393 0,-1.765225 0.782,-1.824664 2.91777,-2.580328 4.58958,-3.177405 2.35125,-0.839731 4.06494,1.823589 5.29568,3.177405 2.06572,2.272292 2.31022,1.742374 3.53045,4.589585 0.64143,1.496676 0.96008,3.710832 1.05913,5.295675 0.1982,3.171043 0.0172,6.385225 -0.35304,9.532215 -0.16557,1.407369 -0.76024,2.879229 -0.35305,4.236541 0.22685,0.756139 0.75551,1.389563 1.05914,2.11827 0.28626,0.687031 0.33682,1.47205 0.70609,2.11827 1.23388,2.159286 3.08133,3.709541 4.58959,5.648721 1.92241,2.47168 4.68624,6.86035 5.64872,9.88526 1.4124,4.43898 0.70609,12.07433 0.70609,16.94616 0,0.9456 -0.18527,2.60411 0,3.53045 0.80118,4.00594 3.55203,5.88562 5.29567,9.17917 0.52236,0.98668 0.70609,2.11827 1.05914,3.17741 0.23536,0.70609 0.59291,1.38264 0.70609,2.11827 0.20935,1.36077 0.30645,5.32882 0,6.70785 -0.27094,1.21919 -1.86736,4.04109 -2.11827,5.29568 -0.19065,0.95322 0,2.203 0,3.1774 0,2.589 0,5.17799 0,7.76699 0,0.33327 -0.0901,6.26472 0,6.35481 0.0832,0.0832 0.23536,0 0.35304,0 0.82377,0 1.64997,-0.0632 2.47132,0 1.22421,0.0942 4.71273,1.39029 5.64872,2.11827 0.63375,0.49292 4.10995,4.54196 4.58958,5.29568 0.971,1.52585 1.51105,3.98236 2.82436,5.29567 0.18607,0.18607 0.50061,0.18866 0.70609,0.35305 2.62556,2.10045 4.81192,5.83467 8.82613,4.94263 1.63767,-0.36393 5.51861,-5.48842 6.00176,-6.00177 1.40926,-1.49733 4.11031,-4.90417 4.58959,-7.0609 0.38912,-1.75104 -0.14552,-3.9455 0.70609,-5.64872 0.22328,-0.44657 0.83585,-0.61256 1.05913,-1.05913 0.15789,-0.31578 -0.0692,-0.71295 0,-1.05914 0.32733,-1.63662 1.92522,-5.55182 2.82436,-6.70785 0.36125,-0.46447 0.99611,-0.64307 1.41218,-1.05914 0.18607,-0.18607 0.1341,-0.56012 0.35305,-0.70609 0.80289,-0.53526 2.29959,0.52477 3.1774,-0.35304 0.18607,-0.18607 0.16698,-0.52002 0.35305,-0.70609 1.71328,-1.71329 1.2563,-0.2302 2.11827,-2.47132 1.40726,-3.65888 1.62257,-11.55538 4.94263,-13.76875 1.50674,-1.0045 8.05996,2.79432 8.12003,2.82436 0.75903,0.37951 1.41218,0.94145 2.11827,1.41218 0.70609,0.47072 1.51821,0.81211 2.11827,1.41218 4.53891,4.5389 1.94186,18.1826 2.82436,24.3601 0.63091,4.41637 2.54244,8.61787 3.17741,13.06267 0.17566,1.22963 0,2.65073 0,3.88349 0,4.32377 -0.14886,-1.042 0.35304,2.47132 0.32951,2.30656 -0.32951,4.75434 0,7.0609 0.44772,3.13402 0.38974,-0.58212 0.70609,3.53045 0.0632,0.82134 -0.12526,1.65712 0,2.47131 0.11318,0.73563 0.53873,1.39305 0.70609,2.11827 0.33251,1.44088 0.77159,4.88992 0.35305,6.35481 -0.11657,0.40798 -0.58953,0.65116 -0.70609,1.05914 -0.12932,0.45261 0.14886,0.96561 0,1.41218 -0.53592,1.60774 -4.5992,3.32247 -6.00177,3.88349 -0.72461,0.28985 -0.005,-0.70074 -1.05913,0.35305 -1.25476,1.25475 -1.1905,1.80626 -1.76523,3.53045 -0.93817,2.81452 -1.51804,5.85989 -1.76522,8.82612 -0.17853,2.14239 0.30034,4.99534 -1.41218,6.70786 -0.18607,0.18607 -0.50061,0.18866 -0.70609,0.35304 -0.38988,0.3119 -0.63575,0.79452 -1.05914,1.05914 -1.29732,0.81082 -2.8502,1.11827 -4.23654,1.76522 -3.73044,1.74088 -7.6152,3.15183 -10.94439,5.64872 -0.7353,0.55148 -1.38297,1.21376 -2.11827,1.76523 -0.21052,0.15789 -0.54821,0.14253 -0.70609,0.35304 -0.22329,0.29772 -0.16158,0.74003 -0.35305,1.05914 -0.17125,0.28542 -0.53484,0.42067 -0.70609,0.70609 -0.19146,0.31911 -0.14662,0.74949 -0.35304,1.05913 -0.27695,0.41543 -0.73951,0.67558 -1.05914,1.05914 -0.27163,0.32596 -0.40606,0.7591 -0.70609,1.05913 -0.41609,0.4161 -1.78577,0.57309 -2.11827,0.70609 -2.89955,1.15983 -6.90131,3.44492 -9.17917,5.29568 -1.1038,0.89684 -1.87319,3.55958 -1.41218,4.94263 0.15789,0.47366 0.78219,0.64371 1.05914,1.05914 0.55773,0.8366 -0.5014,1.98775 -1.05914,2.82436 -0.9026,1.3539 -3.49627,3.02446 -4.58958,3.88349 -1.83464,1.4415 -3.10297,2.8552 -4.58959,4.58959 -0.54155,0.6318 -1.30364,1.07284 -1.76522,1.76522 -0.39666,0.59499 4.20779,5.31454 4.58958,6.00177 0.36146,0.65062 0.37324,1.45256 0.70609,2.11827 0.4965,0.993 1.30964,1.81193 1.76523,2.82436 0.61085,1.35745 0.90797,2.83596 1.41218,4.23654 1.60649,4.46249 1.50596,3.94654 3.1774,7.76699 0.79911,1.82654 1.12472,3.07466 2.47132,4.58958 0.39091,0.43978 0.99611,0.64307 1.41218,1.05914 0.18607,0.18607 0.19516,0.49557 0.35304,0.70609 1.10983,1.47977 2.94888,2.71009 4.58959,3.53045 1.02283,0.51141 4.63146,1.54142 5.29567,2.47131 0.36835,0.51569 0.38004,1.2218 0.70609,1.76523 0.38769,0.64614 1.11535,1.07262 1.41218,1.76522 0.42739,0.99725 0.45759,2.12128 0.70609,3.17741 0.86693,3.68445 1.40531,7.48952 1.05914,11.29744 -0.11998,1.31979 -0.79247,1.23189 -1.41218,2.47131 -0.0526,0.10526 0.26983,-0.0832 0.35304,0 0.33286,0.33286 0.26111,1.02051 0,1.41218 -0.18399,0.27599 -4.3678,0.16424 -4.94263,0 -0.85513,-0.24432 -1.73275,-0.76371 -2.47131,-1.05913 -0.45051,-0.18021 -0.9662,-0.16191 -1.41218,-0.35305 -1.68475,-0.72203 -3.51064,-2.38485 -4.94263,-3.53045 -0.51983,-0.41586 -0.85828,-1.04291 -1.41218,-1.41218 -1.26645,-0.84429 -3.46442,-1.82262 -4.94263,-2.11827 -1.72792,-0.34558 -2.05211,0.0265 -3.8835,-0.70609 -0.73297,-0.29319 -1.37637,-0.78935 -2.11827,-1.05913 -1.12787,-0.41014 -2.40674,-0.2847 -3.53045,-0.70609 -0.39729,-0.14899 -0.67962,-0.51634 -1.05913,-0.70609 -0.99656,-0.49828 -2.79953,-1.23152 -3.8835,-1.41218 -1.89034,-0.31506 -4.65419,-0.0875 -6.35481,0.70609 -1.538,0.71773 -2.71849,2.06533 -4.23654,2.82436 -8.79151,3.76779 0.83337,-0.88981 -3.1774,2.11827 -0.1883,0.14122 -0.49558,-0.10526 -0.70609,0 -0.10526,0.0526 0.0832,0.26983 0,0.35304 -0.25374,0.25374 -1.68687,0 -2.11827,0 -1.80579,0 -0.91113,-0.0499 -3.53045,0.35305 -5.85375,0.90057 2.28907,-0.16351 -4.94264,0.35304 -2.89509,0.20679 -5.35606,0.6759 -8.12003,-0.70609 -0.52629,-0.26314 -0.9013,-0.7672 -1.41218,-1.05913 -0.77815,-0.44466 -1.6697,-0.65833 -2.47132,-1.05914 -1.09214,-0.54607 -2.02034,-1.33133 -3.1774,-1.76522 -2.14188,-0.80321 -5.14895,-1.05455 -7.41395,-0.70609 -3.45337,0.53129 -6.75501,2.15364 -9.53221,4.23654 -0.11768,0.11768 -0.23536,0.23536 -0.35305,0.35304 0,0.11768 0.0832,0.26983 0,0.35305 -0.0832,0.0832 -0.26983,-0.0832 -0.35304,0 -0.0832,0.0832 0.10526,0.30041 0,0.35304 -0.21052,0.10526 -0.4753,-0.0462 -0.70609,0 -1.30286,0.26057 -2.55984,0.83853 -3.8835,1.05914 -0.69648,0.11608 -1.41763,-0.0876 -2.11827,0 -0.89791,-0.0591 -1.62319,0.58493 -2.47131,0.70609 -1.58014,0.22573 -3.32907,0 -4.94263,0 -3.73077,0 -7.35639,0.31905 -10.9444,-0.70609 z"
       id="path1" />
  </g>
  <g
     inkscape:groupmode="layer"
     id="layer6"
     inkscape:label="Layer 2">
    <path
       style="fill:#e5df75;fill-opacity:1;stroke-width:0.377953;stroke-dasharray:0.377953, 0.377953;paint-order:stroke fill markers"
       d="m 181.46514,239.01147 c 0.17612,1.42938 0.0465,3.56344 0.35304,4.94263 0.11417,0.51376 0.56151,0.90615 0.70609,1.41218 0.30598,1.07094 0.31367,4.00924 -0.35304,4.94263 -1.671,2.3394 -4.72694,4.64109 -7.41395,5.64872 -0.45432,0.17037 -0.9662,0.16191 -1.41218,0.35305 -1.37298,0.58842 -2.12246,2.43442 -2.82436,2.82436 -2.45471,1.36373 -6.53119,0.70609 -9.17917,0.70609 -1.03831,0 -3.21278,0.32946 -4.23654,-0.35305 -0.0979,-0.0653 0.0979,-0.28776 0,-0.35304 -0.30964,-0.20643 -0.74002,-0.16158 -1.05913,-0.35305 -0.99105,-0.59462 -1.3464,-2.05249 -2.11827,-2.82436 -0.25518,-0.25518 -1.84192,-0.87489 -2.11827,-1.05913 -0.41543,-0.27695 -0.58548,-0.90125 -1.05914,-1.05914 -0.22328,-0.0744 -0.51026,0.13056 -0.70609,0 -0.21895,-0.14596 -0.1341,-0.56012 -0.35304,-0.70609 -0.19584,-0.13055 -0.48281,0.0744 -0.70609,0 -0.15789,-0.0526 -0.19722,-0.2946 -0.35305,-0.35304 -0.80219,-0.30082 -1.66616,-0.41331 -2.47131,-0.70609 -1.50373,-0.54681 -2.58924,-1.69476 -3.8835,-2.47132 -0.31911,-0.19146 -0.74949,-0.14661 -1.05913,-0.35304 -0.0979,-0.0653 0.0706,-0.2589 0,-0.35305 -1.73512,-2.31348 -0.32422,0.0288 -2.11827,-1.76522 -2.28034,-2.28034 0.68404,-0.0184 -1.41218,-1.76523 -3.46942,-2.89118 0.80381,0.72304 -3.17741,-1.76522 -0.42339,-0.26462 -0.66926,-0.74724 -1.05913,-1.05914 -0.41097,-0.32877 -1.09641,-0.28506 -1.41219,-0.70609 -0.29112,-0.38817 -0.01,-1.06908 -0.35304,-1.41218 -0.92177,-0.92177 -4.69678,-2.49811 -6.00177,-2.82436 -0.31245,-0.0781 -2.42424,-0.20005 -2.82436,0 -0.31577,0.15789 0.15789,0.74337 0,1.05914 -0.14885,0.29771 -0.50637,0.43981 -0.70609,0.70609 -0.32405,0.43208 -0.85723,1.91637 -1.05913,2.11827 -0.1632,0.1632 -0.84598,-0.10658 -1.05914,0 -0.52628,0.26314 -0.68244,0.96015 -1.05913,1.41218 -0.31963,0.38356 -0.88383,0.59164 -1.05914,1.05913 -0.2066,0.55095 0.0419,1.17832 0,1.76523 -0.17235,2.41299 -0.88056,4.01844 0.70609,6.00176 0.73169,0.91461 2.27728,0.51906 3.17741,1.05914 0.28542,0.17125 0.42067,0.53484 0.70609,0.70609 1.32466,0.79479 3.16661,1.13279 4.58958,1.76522 2.82728,1.25657 -0.003,0.0691 2.82436,1.76523 1.12823,0.67693 2.6001,0.83487 3.53046,1.76522 0.26314,0.26315 0.0899,0.796 0.35304,1.05914 0.16643,0.16643 0.50427,-0.12109 0.70609,0 1.22058,0.73235 2.37761,2.19019 2.82436,3.53045 0.48477,1.45431 -0.50044,3.77295 1.05914,4.94263 0.18829,0.14122 0.4828,-0.0744 0.70609,0 0.55858,0.18619 1.17896,0.83929 1.76522,1.05914 0.56186,0.21069 1.21368,0.11666 1.76523,0.35304 0.97527,0.41797 3.71665,3.19678 4.23654,4.23654 0.85372,1.70745 0.051,0.96133 0.35304,2.47132 -0.26223,0.65338 0.60318,0.64749 0.70609,1.05913 0.0856,0.3425 -0.058,0.71089 0,1.05914 0.1613,0.9678 0.90442,1.89604 1.05914,2.82436 0.0802,0.48123 0.2896,3.44908 0,3.88349 -0.14597,0.21895 -0.50061,0.18866 -0.70609,0.35305 -2.89186,2.31348 0.52035,-0.16731 -1.76523,2.11827 -0.30003,0.30003 -0.7591,0.40606 -1.05913,0.70609 -0.0832,0.0832 0.0979,0.28776 0,0.35304 -1.19097,0.79398 -2.2719,0.85972 -3.53045,2.11827 -0.53283,0.53283 -0.82378,1.2945 -1.41218,1.76523 -0.94611,0.75688 -2.20812,1.03826 -3.17741,1.76522 -0.95942,0.71956 -2.3834,2.03036 -3.1774,2.82436 -0.41607,0.41607 -0.61239,1.02925 -1.05914,1.41218 -0.59938,0.51376 -1.56006,0.50092 -2.11827,1.05914 -0.81546,0.81546 -0.14523,2.2635 -1.05914,3.1774 -0.78654,0.78655 -3.0556,0.99824 -3.88349,1.41218 -1.51805,0.75903 -2.74218,2.01971 -4.23654,2.82436 -6.58448,2.82192 1.10444,-0.73327 -4.23654,2.47132 -0.54342,0.32605 -1.22782,0.37021 -1.76523,0.70609 -3.12317,1.95198 0.85542,0.27838 -2.11827,1.76522 -1.85926,0.92963 -4.69046,1.78205 -6.00176,3.53045 -0.19095,0.2546 -0.67726,1.44102 -0.35305,1.76523 0.4494,0.44939 2.1635,0.29296 2.82436,0.35304 1.06128,0.0965 2.29073,0.94416 3.17741,0.35305 1.56218,-1.04146 2.73606,-2.79224 4.23654,-3.8835 0.63844,-0.46432 1.46142,-0.62123 2.11827,-1.05913 2.55555,-1.7037 4.75004,-4.08172 7.41394,-5.64872 2.42235,-1.42491 5.29253,-2.19805 7.767,-3.53045 2.24607,-1.20943 4.06355,-3.09092 6.35481,-4.23654 3.16184,-1.58092 6.69397,-1.10362 9.88526,-2.47132 0.82377,-0.35304 1.70279,-0.59802 2.47131,-1.05913 0.28542,-0.17126 0.39704,-0.58248 0.70609,-0.70609 0.32779,-0.13112 0.74336,0.15788 1.05914,0 0.23536,-0.11769 0.11768,-0.58841 0.35304,-0.70609 0.31577,-0.15789 0.70964,0.0499 1.05914,0 2.60697,-0.37243 5.44051,-1.242 8.12003,-0.70609 1.13669,0.22733 3.53097,3.64847 4.94263,4.58958 1.12304,0.7487 1.95426,0.80061 3.17741,1.41218 2.12252,1.06126 3.70798,2.58967 5.64872,3.8835 0.76034,0.50689 2.93616,1.73933 3.88349,2.11827 0.45051,0.1802 1.02918,0.0551 1.41218,0.35304 0.72551,0.56429 1.22462,1.37494 1.76523,2.11827 1.2489,1.71725 1.47178,3.59461 1.76522,5.64872 0.0333,0.233 -0.13055,0.51026 0,0.70609 0.14597,0.21895 0.52002,0.16698 0.70609,0.35305 0.18607,0.18607 0.1274,0.5707 0.35305,0.70609 0.41606,0.24964 0.99611,0.1034 1.41218,0.35304 0.22564,0.13539 0.1274,0.57071 0.35304,0.70609 0.41607,0.24964 1.00072,0.0959 1.41218,0.35305 0.56452,0.35282 0.83025,1.08888 1.41218,1.41218 1.2515,0.69527 2.84763,0.35886 4.23654,0.70609 0.61482,0.1537 1.15588,0.53199 1.76523,0.70609 1.29098,0.36885 2.56142,-0.308 3.88349,0.35304 2.93456,1.46728 4.50758,3.0513 7.76699,4.23654 0.59558,0.21658 1.14012,0.60191 1.76523,0.70609 3.03501,0.50584 8.26464,-0.0995 11.29744,-0.70609 0.8401,-0.16802 1.62761,-0.5572 2.47131,-0.70609 2.66415,-0.47014 4.37494,-0.35304 7.0609,-0.35304 3.67214,0 7.29583,0.27684 10.9444,0.70609 1.13214,0.13319 3.30231,0.67486 4.58958,0.35304 0.0962,-0.024 1.70728,-2.82972 1.76523,-3.1774 0.058,-0.34824 -0.13112,-0.73134 0,-1.05914 0.12362,-0.30905 0.53484,-0.42067 0.70609,-0.70609 1.15761,-1.92936 -0.0657,-0.47898 0.70609,-1.76522 0.95705,-1.59508 2.50808,-3.14273 4.23654,-3.8835 3.54723,-1.52024 7.89338,-1.05913 11.65049,-1.05913 1.96853,0 3.86336,0.30659 5.29567,-1.41218 0.33692,-0.40431 0.42716,-0.96589 0.70609,-1.41218 0.31186,-0.49897 0.77338,-0.89782 1.05914,-1.41218 0.0184,-0.0332 2.11298,-4.57109 2.11827,-4.58959 0.12931,-0.45261 -0.12932,-0.95956 0,-1.41218 0.16189,-0.56662 1.08037,-1.01665 0.70609,-1.76522 -0.15789,-0.31578 -0.72421,0.11164 -1.05914,0 -0.15789,-0.0526 -0.19516,-0.30042 -0.35304,-0.35305 -1.35953,-0.45317 -3.26613,0.28339 -4.58959,0.35305 -3.36861,0.17729 -5.64836,-0.41721 -8.82613,-0.70609 -3.11609,-0.28329 -6.45273,0.51324 -9.53221,0 -1.10124,-0.18354 -2.11827,-0.70609 -3.17741,-1.05914 -3.42085,-1.14028 -7.38177,-2.07002 -9.53221,-5.29567 -0.29193,-0.4379 -0.41416,-0.97429 -0.70609,-1.41218 -1.45167,-2.1775 -1.55048,-1.30515 -2.47132,-3.8835 -0.65278,-1.82778 -0.69136,-3.84668 -1.41218,-5.64872 -0.12362,-0.30905 -0.52145,-0.42914 -0.70609,-0.70609 -0.19583,-0.29375 0.11165,-0.72421 0,-1.05913 -0.5542,-1.66262 -2.85366,-2.91247 -3.88349,-4.23654 -1.12923,-1.45187 -3.11812,-4.26999 -3.53045,-6.00177 -0.54102,-2.27228 -1.08283,-5.04215 -0.35305,-7.41395 0.63585,-2.06651 2.71376,-3.61981 2.11827,-6.00176 -0.55593,-2.22372 -10.02744,-9.54955 -11.65048,-11.29744 -0.35812,-0.38566 -0.42716,-0.96589 -0.70609,-1.41218 -2.18692,-3.49906 0.17816,1.26368 -2.82436,-3.8835 -0.31932,-0.5474 -0.35456,-1.23792 -0.70609,-1.76522 -0.36927,-0.5539 -0.97381,-0.91118 -1.41218,-1.41218 -0.88357,-1.00979 -1.63312,-2.12965 -2.47132,-3.17741 -0.0527,-0.0658 -1.9868,-2.61671 -2.47131,-2.82436 -0.43267,-0.18542 -0.95957,0.12932 -1.41218,0 -0.40798,-0.11656 -0.67963,-0.51633 -1.05914,-0.70609 -0.36272,-0.18136 -6.57289,0.23105 -7.0609,0.35305 -0.32291,0.0807 -0.42067,0.53484 -0.70609,0.70609 -0.31911,0.19146 -0.74949,0.14662 -1.05913,0.35304 -0.0979,0.0653 0.0832,0.26984 0,0.35305 -0.18607,0.18607 -0.48714,0.20708 -0.70609,0.35304 -0.84232,0.56155 -1.58638,1.27359 -2.47132,1.76523 -0.99872,0.55484 -5.20837,-0.59505 -6.00176,0 -4.7624,3.5718 1.88222,-0.54106 -2.11827,1.05913 -0.30905,0.12362 -0.44618,0.49816 -0.70609,0.70609 -0.91894,0.73516 -1.88291,1.41218 -2.82436,2.11827 z"
       id="path2" />
    <path
       style="fill:#e5df75;fill-opacity:1;stroke-width:0.377953;stroke-dasharray:0.377953, 0.377953;paint-order:stroke fill markers"
       d="m 193.22176,194.71961 c -1.16051,1.90635 -3.24784,5.48706 -1.99712,7.98849 0.5799,1.15981 1.63481,1.63482 2.49641,2.49641 0.98245,0.98245 1.46982,2.15761 2.24676,3.24533 0.2052,0.28728 0.60985,0.42442 0.74892,0.74892 0.40881,0.95388 -0.38213,2.6697 -0.74892,3.49497 -0.81722,1.83875 -1.95304,3.48514 -3.24533,4.99281 -0.27077,0.3159 -0.41243,0.75384 -0.74892,0.99856 -1.45667,1.05939 -1.9384,0.98877 -3.49497,1.2482 -0.776,0.12934 -2.14125,0.46325 -2.99568,0.24964 -0.90309,-0.22577 -2.13213,-4.305 -2.24677,-4.99281 -0.0821,-0.49249 0.0497,-1.00104 0,-1.49784 -0.12409,-1.2409 -0.28638,-0.68301 -0.49928,-1.74749 -0.0326,-0.16319 0.0744,-0.35042 0,-0.49928 -0.0372,-0.0744 -0.1908,0.0588 -0.24964,0 -0.0832,-0.16642 -0.16642,-0.33285 -0.24964,-0.49928 -0.0832,0 -0.1908,0.0588 -0.24964,0 -0.40186,-0.40185 -1.29774,-1.96279 -1.49784,-2.4964 -0.14899,-0.39729 -0.10066,-0.85091 -0.24964,-1.24821 -0.94222,-2.51259 -0.0976,1.60694 -0.99856,-1.99712 -0.0605,-0.24219 0.041,-0.50268 0,-0.74892 -0.23395,-1.40368 -0.74893,-2.79433 -0.74893,-4.24389 0,-0.3431 0.21176,-0.65756 0.24964,-0.99856 0.0459,-0.41353 -0.11955,-0.84968 0,-1.24821 0.47326,-1.57751 2.4815,-3.45025 2.99569,-4.99281 0.0789,-0.23683 -0.041,-0.50267 0,-0.74892 0.19553,-1.17316 0.36183,-2.26092 0.24964,-3.49496 -0.16712,-1.83837 -0.15598,-0.73013 -0.99856,-2.24677 -0.70411,-1.26739 -1.05013,-2.65112 -1.49784,-3.99425 -0.11769,-0.35304 -0.4263,-0.63364 -0.49929,-0.99856 -0.22406,-1.1203 0,-2.58789 0,-3.74461 0,-2.57962 0,-5.15924 0,-7.73885 0,-1.13078 0.11247,-2.37028 0,-3.49497 -0.24332,-2.43329 -1.70798,-7.29883 -0.24964,-9.48634 0.34888,-0.52332 2.52275,0.57028 2.74605,0.74892 2.51118,2.00895 3.50793,5.28135 4.49353,8.23814 0.69072,2.07216 1.36948,4.14887 1.99712,6.24101 0.42046,1.40153 0.004,1.15639 0.74893,2.49641 0.15984,0.28771 1.07273,1.33805 1.2482,1.74748 0.13515,0.31536 0.0794,0.70067 0.24964,0.99856 0.17516,0.30653 0.62496,0.41836 0.74892,0.74892 0.14609,0.38958 0,0.83214 0,1.24821 0.24964,0.49928 0.49928,0.99856 0.74892,1.49784 0.35108,0.70216 0.99995,1.25237 1.2482,1.99712 0.13158,0.39472 -0.0816,0.84022 0,1.24821 0.0879,0.43941 0.40207,0.81075 0.49929,1.2482 0.0722,0.32493 -0.0722,0.67363 0,0.99856 0.72901,3.28056 0.37845,-0.95861 0.74892,2.74605 0.13869,1.38689 -0.20804,0.83213 0,2.4964 0.0295,0.23574 0.66053,0.75669 0.49928,0.99856 -0.46159,0.69238 -0.99856,1.33142 -1.49785,1.99713 z"
       id="path8" />
    <path
       style="fill:#e5df75;fill-opacity:1;stroke-width:0.377953;stroke-dasharray:0.377953, 0.377953;paint-order:stroke fill markers"
       d="m 255.60459,201.94175 c -0.58841,0.58841 -1.28803,1.08351 -1.76523,1.76522 -0.36342,0.51918 -0.35455,1.23793 -0.70609,1.76523 -0.36926,0.5539 -0.97894,0.90673 -1.41218,1.41218 -1.81325,2.11547 -4.04298,4.0609 -5.64872,6.35481 -0.3935,0.56215 -0.6785,1.19427 -1.05913,1.76522 -0.37762,0.56643 -0.65138,0.16242 -1.05914,0.70609 -0.25458,0.33945 -0.34225,0.84083 -0.70609,1.05914 -0.30273,0.18164 -0.71449,-0.0766 -1.05913,0 -0.5448,0.12106 -3.26005,0.78873 -3.8835,1.41218 -0.18607,0.18607 -0.16697,0.52002 -0.35304,0.70609 -0.0907,0.0907 -1.46197,0.20141 -1.76523,0.35304 -0.004,0.002 -0.004,2.92919 0.35305,4.23654 0.31167,1.14281 1.3627,1.6101 1.05913,2.82436 -0.0145,0.0579 -2.22564,2.57869 -2.47131,2.82436 -0.18607,0.18607 -0.52002,0.16698 -0.70609,0.35305 -0.40459,0.40459 -0.65455,1.36064 -1.05914,1.76522 -2.30609,2.3061 1.12727,-2.11517 -1.41218,1.05914 -0.26506,0.33133 -0.40606,0.7591 -0.70609,1.05913 -0.30003,0.30003 -0.7278,0.44103 -1.05913,0.70609 -1.41877,1.13502 -2.53033,2.61885 -3.17741,4.23654 -0.20067,0.50169 -0.7693,1.14085 -0.35304,1.76523 0.13055,0.19583 0.47775,-0.0571 0.70609,0 0.51057,0.12764 0.92844,0.49877 1.41218,0.70609 0.98332,0.42142 2.25098,0.79456 3.1774,1.41218 1.05914,0.70609 -0.70609,0 1.05914,1.05913 0.31911,0.19147 0.76142,0.12976 1.05913,0.35305 0.30048,0.22536 0.57954,1.60703 0.70609,1.76522 0.26507,0.33133 0.86938,0.32658 1.05914,0.70609 2.30189,4.60379 -3.59774,-2.64369 1.05913,3.17741 0.23248,0.29059 0.79599,0.0899 1.05914,0.35304 2.16227,2.16228 -2.83818,-1.24256 1.76522,1.05914 0.29772,0.14886 0.40838,0.55723 0.70609,0.70609 1.0415,0.52075 2.7953,-0.43528 3.8835,0 2.60267,1.04107 0.93085,2.69608 2.11827,3.88349 0.18349,0.1835 5.12447,0 5.64872,0 1.53873,0 3.41187,-0.25512 4.94263,0 0.73416,0.12236 1.40262,0.50162 2.11827,0.70609 2.45587,0.70168 4.35324,0.46975 6.35481,2.47132 0.53283,0.53283 0.90809,1.20513 1.41218,1.76522 0.55667,0.61853 1.36676,1.0347 1.76523,1.76523 0.7972,1.46155 0.28702,6.28879 1.05913,7.0609 0.17456,0.17456 3.18908,0.31512 3.53045,0.35305 2.0819,0.23132 4.58049,0.77851 6.70786,0.35304 0.16319,-0.0326 0.18888,-0.32568 0.35304,-0.35304 0.92864,-0.15478 1.91102,-0.22834 2.82436,0 0.48224,0.12056 1.85912,2.34173 2.82436,2.82436 0.18511,0.0926 1.31594,0.0137 1.41218,0 0.59403,-0.0849 1.25638,-0.035 1.76523,-0.35305 1.08998,-0.68124 2.7558,-3.78323 3.1774,-4.94263 0.44964,-1.23651 0.5429,-2.57793 0.70609,-3.8835 0.10071,-0.80563 -0.35514,-2.46712 0,-3.1774 1.23705,-2.4741 0.0597,-0.38289 1.41218,-1.05914 0.94138,-0.47069 1.52994,-1.29453 2.47132,-1.76522 1.97906,-0.98953 4.57718,-1.49114 6.35481,-2.82436 0.93199,-0.69899 1.52332,-1.79418 2.47131,-2.47132 2.6131,-1.30655 0.3244,0.0239 2.47132,-1.76522 0.32596,-0.27164 0.67962,-0.51633 1.05913,-0.70609 0.10526,-0.0526 0.31583,0.11164 0.35305,0 0.11164,-0.33493 -0.0856,-0.71663 0,-1.05914 0.10291,-0.41163 0.60318,-0.64749 0.70609,-1.05913 0.31148,-1.24594 0.29208,-2.26096 1.41218,-3.17741 1.03848,-0.84966 2.0742,-1.70756 3.1774,-2.47131 1.08216,-0.74919 2.19143,-0.77925 3.17741,-1.76523 0.26314,-0.26314 0.0553,-0.83585 0.35304,-1.05913 0.28244,-0.21183 0.74336,0.15789 1.05914,0 0.23536,-0.11768 0.16697,-0.52002 0.35304,-0.70609 0.0832,-0.0832 0.2589,0.0706 0.35305,0 1.05826,-0.7937 2.15587,-1.97309 3.1774,-2.82436 1.01707,-0.84755 1.79083,-1.99754 2.82436,-2.82436 0.86851,-0.69481 1.1259,-0.55975 1.76523,-1.41218 1.60901,-2.14536 -1.47942,-4.45512 -0.35305,-6.70786 0.60979,-1.21958 2.56158,-2.56158 3.53045,-3.53045 2.7538,-2.7538 -0.55821,0.7815 1.76523,-2.47131 1.38018,-1.93226 4.04401,-4.25276 4.58958,-6.70786 0.12765,-0.57439 -0.073,-1.18136 0,-1.76522 0.13507,-1.08052 0.8453,-2.1082 1.05914,-3.17741 0.52101,-2.60508 -0.43713,-5.49729 0,-8.12003 0.25786,-1.54719 0.75429,-2.71234 1.05913,-4.23654 0.3369,-1.6845 0.18878,-10.40257 -0.70609,-11.29744 -0.24964,-0.24964 -0.71663,0.0856 -1.05913,0 -0.25529,-0.0638 -0.4508,-0.28923 -0.70609,-0.35305 -1.455,-0.36375 -4.5195,0.77716 -5.64872,1.76523 -0.39607,0.34656 -0.44498,0.95523 -0.70609,1.41218 -0.21052,0.3684 -0.47073,0.70609 -0.70609,1.05913 -0.35305,0.35305 -0.79452,0.63575 -1.05914,1.05914 -0.9819,1.57104 -1.47618,3.59445 -2.82436,4.94263 -0.0832,0.0832 -0.25213,-0.0606 -0.35304,0 -0.50456,0.30273 -0.93014,0.7217 -1.41218,1.05913 -1.58122,1.10686 -3.00266,2.43181 -4.58959,3.53045 -1.66496,1.15267 -3.22486,1.58523 -4.58958,3.17741 -0.66706,0.77824 -2.29439,2.29412 -2.82436,3.1774 -0.1211,0.20183 0.10525,0.49558 0,0.70609 -0.0526,0.10526 -0.26983,-0.0832 -0.35305,0 -0.18607,0.18607 -0.16697,0.52002 -0.35304,0.70609 -0.77385,0.77385 -1.9476,1.20722 -3.17741,1.41218 -2.07187,0.34532 -5.8269,-0.0437 -7.41394,0.35305 -0.54389,0.13597 -1.00078,0.68066 -1.76523,0.35304 -1.0424,-0.44674 -3.33033,-1.5651 -4.23654,-2.47131 -0.53951,-0.53952 -2.27723,-3.65429 -2.47131,-4.23654 -0.0744,-0.22329 0.0874,-0.48756 0,-0.70609 -0.19824,-0.49558 -1.73693,-2.44302 -2.11827,-2.82436 -0.0133,-0.0133 -1.72435,-0.33261 -1.76523,-0.35305 -0.37951,-0.18975 -0.66913,-0.53894 -1.05913,-0.70609 -1.33927,-0.57397 -2.56448,-0.67939 -3.8835,-1.41218 -1.88655,-1.04808 -3.30058,-2.07229 -5.29567,-2.47131 -2.19674,-0.43935 -5.84335,0.89694 -7.76699,-0.70609 -1.59613,0.0502 -1.11531,-1.46835 -1.76523,-2.11827 -0.18607,-0.18607 -0.58841,-0.11768 -0.70609,-0.35305 -0.1238,-0.24759 -0.294,-2.47009 -0.35304,-2.82436 -0.51652,-3.09909 -0.12987,0.53966 -0.70609,-1.76522 -0.60597,-2.42386 0.92782,-7.4635 1.41218,-9.88526 0.36611,-1.83056 0.76662,-0.30269 1.05913,-1.76523 0.42039,-2.10195 -0.41949,-3.99554 -0.70609,-6.00176 -0.23053,-1.61372 -0.24682,-8.75741 0,-10.23831 0.36352,-2.18112 0.53431,-4.21758 0,-6.35481 -0.43864,-1.75458 0,-6.09175 0,-7.76699 0,-0.88977 -0.21186,-2.32997 0,-3.1774 0.18657,-0.7463 1.06703,-0.66663 0.70609,-2.47132 -0.20805,-1.04027 -1.01986,-2.43204 -1.76522,-3.1774 -0.30004,-0.30004 -0.79408,-0.37477 -1.05914,-0.7061 -0.23248,-0.29059 -0.16841,-0.73602 -0.35305,-1.05913 -0.39328,-0.52438 -1.39648,-1.80758 -1.76522,-2.47132 -0.38338,-0.69008 -0.64074,-1.44883 -1.05914,-2.11827 -0.17641,-0.28225 -0.60083,-0.39031 -0.70609,-0.70609 -0.29771,-0.89314 0.11678,-1.89017 0,-2.82436 0.36509,-0.911 -0.56012,-1.38843 -0.70609,-2.11827 -0.16644,-0.83221 0.38135,-2.41471 0,-3.1774 -0.0526,-0.10526 -0.24778,0.0526 -0.35304,0 -0.81267,-0.40634 0.15392,-0.41413 -0.70609,-1.05914 -0.29771,-0.22328 -0.72628,-0.18661 -1.05914,-0.35304 -1.31049,-0.65525 -2.18208,-1.66882 -3.53045,-2.11827 -0.41397,-0.13799 -1.02338,0.1944 -1.41218,0 -0.10525,-0.0526 0.0653,-0.25513 0,-0.35305 -0.23198,-0.34797 -2.2508,-2.33878 -2.82436,-1.76522 -1.00902,1.00903 -1.80433,2.11776 -2.11827,3.53045 -0.34598,1.55692 -0.24913,4.4547 0.70609,5.64872 0.1912,0.23899 2.10519,2.4615 2.11827,2.47131 0.78404,0.58803 1.38474,0.43414 2.11827,1.41218 1.25433,1.67244 2.20577,4.23039 2.47132,6.35481 0.18331,1.46651 0.32137,5.96778 0,7.41395 -0.34693,1.5612 -1.43602,1.86057 -1.76523,3.17741 -0.4117,1.6468 0,4.62498 0,6.35481 0,1.95648 0.42024,1.1092 0.70609,2.82436 0.058,0.34824 -0.11164,0.7242 0,1.05913 0.36024,1.08072 1.5148,2.63134 1.76523,3.8835 0.19006,0.95028 0.27189,11.18785 0,12.00353 -0.0526,0.15788 -0.23536,0.23536 -0.35305,0.35304 -0.11768,0.23536 -0.28922,0.4508 -0.35304,0.70609 -0.0571,0.22834 0.10526,0.49558 0,0.70609 -0.14886,0.29772 -0.55723,0.40838 -0.70609,0.70609 -0.33285,0.66571 -0.54463,1.39171 -0.70609,2.11827 -0.54792,2.46565 -0.44367,4.95209 -1.05914,7.41395 -0.52121,2.08484 0.1931,3.12668 1.41218,4.58958 0.59972,0.71966 1.11974,1.82583 1.76523,2.47132 0.69812,0.69811 1.28147,0.79772 1.76522,1.76522 0.14075,0.28149 0.0201,4.54934 0,4.58959 -0.39484,0.78969 -1.47388,1.5973 -1.76522,2.47131 -0.0744,0.22329 0.10526,0.49558 0,0.70609 -0.0526,0.10526 -0.23536,0 -0.35305,0 -0.11768,0.23537 -0.26983,0.45645 -0.35304,0.70609 -0.17652,0.52957 0.35304,0.35305 0,1.05914 -0.10526,0.21051 -0.53966,-0.16643 -0.70609,0 -0.0832,0.0832 0.0526,0.24778 0,0.35304 -0.42431,0.84862 -0.94145,1.64755 -1.41218,2.47132 z"
       id="path4" />
    <path
       style="fill:#e5df75;fill-opacity:1;stroke-width:0.377953;stroke-dasharray:0.377953, 0.377953;paint-order:stroke fill markers"
       d="M 215.43977,84.378497 209.94768,95.61232"
       id="path9" />
  </g>
  <g
     inkscape:groupmode="layer"
     id="layer7"
     inkscape:label="Layer 3">
    <path
       style="fill:#a44009;fill-opacity:1;stroke-width:0.377953;stroke-dasharray:0.377953, 0.377953;paint-order:stroke fill markers"
       d="m 213.06267,261.07679 c -0.23537,-0.0588 -0.64725,-0.41189 -0.70609,-0.17653 -0.0589,0.23537 0.87763,0.34808 0.70609,0.17653 -5.53694,-4.02687 -0.22741,0.12564 -2.47132,-2.11827 -0.20803,-0.20804 -0.49806,-0.32154 -0.70609,-0.52957 -2.35223,-2.35223 1.51463,1.06308 -1.23566,-1.41218 -0.77024,-0.69322 -1.96502,-1.52662 -2.64783,-2.29479 -0.22795,-0.25644 -0.33926,-0.59714 -0.52957,-0.88262 -0.1632,-0.24479 -0.43653,-0.42698 -0.52957,-0.70609 -0.24721,-0.74162 0.34868,-1.95046 0,-2.64783 -0.37886,-0.75772 -2.25801,-1.35024 -2.82436,-1.58871 -2.31369,-0.97418 -2.36318,-0.63523 -4.58958,-0.88261 -0.13077,-0.0145 -0.22823,-0.13491 -0.35305,-0.17652 -0.79223,-0.26408 -1.43859,0.61189 -1.94175,1.05913 -0.34348,0.30532 -0.77521,0.52126 -1.05913,0.88262 -0.37428,0.47635 -0.54658,1.08464 -0.88262,1.5887 -0.19285,0.7631 -1.01915,0.99916 -1.41218,1.5887 -0.37365,0.56049 -0.28439,1.32388 -0.35304,1.94175 -0.0886,0.79735 -0.78694,2.68085 -1.23566,3.35393 -0.18463,0.27695 -0.47072,0.47072 -0.70609,0.70609 -1.6819,1.6819 -2.0372,1.27543 -4.06002,2.11827 -0.36435,0.15181 -0.6796,0.42113 -1.05913,0.52956 -1.27477,0.36422 -2.75,0.29139 -4.06002,0.52957 -0.46466,0.0845 -2.70875,0.53916 -3.00088,0.70609 -0.1842,0.10526 -0.18332,0.40228 -0.35305,0.52957 -0.0941,0.0706 -0.25512,-0.0653 -0.35304,0 -0.10948,0.073 -0.0835,0.26001 -0.17652,0.35305 -0.30581,0.3058 -0.98133,0.63428 -1.41218,0.70609 -0.63594,0.10599 -1.72818,0.0349 -2.2948,0.17652 -1.70117,0.42529 -0.0208,0.36949 -1.94174,0.52957 -1.09001,0.0908 -2.12281,-0.1248 -3.17741,0.17652 -0.61953,0.17701 -1.1654,0.0566 -1.76522,0.17652 -0.75518,0.15103 -1.40094,0.5638 -2.11827,0.88261 -0.12024,0.0534 -0.28007,0.067 -0.35305,0.17653 -0.0653,0.0979 0.0526,0.24778 0,0.35304 -0.0744,0.14886 -0.27862,0.20419 -0.35304,0.35305 -0.0526,0.10525 0.0653,0.25512 0,0.35304 -0.0929,0.1394 -0.49291,0.0733 -0.35305,0.35305 0.13986,0.27972 0.47376,0.21364 0.70609,0.35304 0.46576,0.27946 0.66548,0.89623 1.23566,1.05914 0.12019,0.0343 1.11547,-0.0343 1.23566,0 0.32057,0.0916 1.85213,0.6697 2.11827,0.88261 0.64859,0.51887 1.49808,1.31685 1.76522,2.11827 0.0558,0.16746 -0.0219,0.35441 0,0.52957 0.0107,0.0854 0.16095,1.90541 0.17652,1.94174 0.3138,0.73219 1.08535,1.53382 1.76523,1.94175 1.0152,0.60912 2.40265,0.3792 3.53045,0.52957 1.57796,0.21039 3.17698,0.54718 4.76611,0.70609 0.29274,0.0293 0.59412,-0.0577 0.88261,0 0.59908,0.11981 1.57624,0.55739 2.11827,0.88261 0.64155,0.38493 1.1695,1.21912 1.94175,1.41218 0.45667,0.11417 0.94145,0 1.41218,0 1.21695,0 2.4947,-0.10102 3.70697,0 1.68264,0.14022 0.137,0.17158 1.5887,0.35305 0.35032,0.0438 0.71663,-0.0856 1.05914,0 0.48079,0.12019 1.39605,0.57497 1.76522,0.88261 0.16298,0.13582 0.20303,0.37955 0.35305,0.52957 0.32367,0.32367 0.6497,0.29849 0.88261,0.70609 0.15721,0.27511 0.16292,0.62911 0.35304,0.88261 0.47767,0.63688 1.02681,0.49724 1.23566,0.70609 0.0416,0.0416 -0.0416,0.13491 0,0.17652 0.41694,0.41694 0.75109,0.35997 1.23566,0.70609 0.61449,0.43893 0.5877,1.11726 1.05914,1.5887 0.18126,0.18127 2.12979,-0.0263 2.47131,0 2.58733,0.19903 4.80706,0.8889 7.0609,2.11827 1.72551,0.94119 3.83192,3.06629 4.06002,5.11916 0.039,0.35088 -0.039,0.70825 0,1.05913 0.10344,0.93099 0.56876,2.1836 1.05913,3.00088 0.51175,0.85291 2.37847,2.84033 3.17741,3.35393 0.4427,0.2846 0.96589,0.42716 1.41218,0.70609 0.49897,0.31186 0.92731,0.72579 1.41218,1.05914 0.45743,0.31448 0.96325,0.55611 1.41218,0.88261 0.20189,0.14683 0.30628,0.41792 0.52957,0.52957 0.15788,0.0789 0.36567,-0.0656 0.52956,0 0.15453,0.0618 0.20855,0.27047 0.35305,0.35304 0.27512,0.15721 0.5992,0.21134 0.88261,0.35305 0.4965,0.24825 1.01966,0.49009 1.41218,0.88261 0.0416,0.0416 -0.0526,0.15021 0,0.17652 0.10526,0.0526 0.24779,-0.0526 0.35305,0 1.78351,0.89176 0.13975,0.13975 0.88261,0.88261 0.17861,0.17862 0.71027,0.24964 0.88261,0.35305 0.14271,0.0856 0.21457,0.26073 0.35305,0.35304 0.21895,0.14597 0.50393,0.18459 0.70609,0.35305 0.16298,0.13582 0.20303,0.37955 0.35304,0.52957 0.25309,0.25308 0.71632,0.0737 1.05914,0.17652 0.71732,0.2152 1.20889,0.55952 1.94174,0.70609 0.52507,0.10501 2.85374,0.0662 3.17741,-0.17652 0.19971,-0.14979 0.3155,-0.40113 0.52957,-0.52957 0.15073,-0.0904 2.48073,-0.13357 2.82436,-0.17652 0.42506,-0.0531 0.80941,-0.31042 1.23565,-0.35305 0.31379,-0.0314 3.08348,0.0939 3.17741,0 0.10866,-0.10866 -0.44916,-0.44268 -1.05914,-1.23566 -1.83183,-2.38138 -3.88802,-4.74477 -6.17828,-6.70785 -0.38431,-0.32941 -0.86113,-0.54213 -1.23566,-0.88261 -0.76879,-0.6989 -2.33932,-2.84694 -3.00088,-3.70698 -0.90712,-1.17924 -1.22289,-2.18737 -2.11827,-3.53045 -0.30092,-0.45137 -0.75354,-0.78744 -1.05914,-1.23565 -0.71279,-1.04544 -2.56163,-3.91018 -3.1774,-5.29568 -0.42062,-0.94638 -0.82626,-2.16827 -1.05914,-3.1774 -0.29663,-1.28541 -0.17814,-2.82815 -0.70609,-4.06002 -0.23275,-0.5431 -1.2236,-1.04709 -1.5887,-1.41218 -0.55595,-0.55595 -0.97607,-1.22917 -1.5887,-1.76523 -0.66912,-0.58548 -1.51769,-1.11459 -2.11827,-1.76522 -2.257,-2.44508 -0.87149,-0.85813 -1.76523,-2.82436 -0.59719,-1.31382 -0.9346,-1.68302 -1.05913,-3.17741 -0.0545,-0.65387 0.23586,-2.11676 0,-2.82436 -0.0835,-0.25035 -0.42857,-0.25204 -0.52957,-0.35304 -0.093,-0.093 -0.0713,-0.2741 -0.17652,-0.35305 -0.14886,-0.11164 -0.40704,-0.0365 -0.52957,-0.17652 -0.31239,-0.35701 -0.44295,-0.84094 -0.70609,-1.23566 -0.0923,-0.13847 -0.33649,-0.18744 -0.35305,-0.35304 -0.0472,-0.47204 0.11768,-0.94146 0.17653,-1.41218 z"
       id="path5" />
    <path
       style="fill:#a44009;fill-opacity:1;stroke-width:0.377953;stroke-dasharray:0.377953, 0.377953;paint-order:stroke fill markers"
       d="m 276.25772,206.70786 c -0.70022,-0.0767 -1.42039,0.10736 -2.11827,0 -0.36781,-0.0566 -0.69132,-0.29646 -1.05913,-0.35305 -3.44739,-0.53037 -5.91827,1.54643 -7.59047,4.41306 -0.94929,1.62736 0.98729,3.44609 -1.05913,4.06002 -0.7413,0.22239 -1.547,0.15363 -2.2948,0.35305 -1.31258,0.35002 -2.57731,0.86246 -3.88349,1.23565 -0.46655,0.1333 -0.95524,0.18985 -1.41218,0.35305 -0.93136,0.33263 -2.04751,0.92476 -2.64784,1.76522 -0.19942,0.27919 -0.28696,0.64001 -0.52957,0.88262 -0.18607,0.18607 -0.48294,0.21357 -0.70609,0.35304 -2.64119,1.65075 0.73014,-0.43193 -1.05913,1.05914 -0.20216,0.16846 -0.49196,0.20009 -0.70609,0.35304 -0.72773,0.51981 -1.68971,1.58916 -1.94175,2.47132 -0.23035,0.80622 -0.0382,1.64168 -0.17652,2.47131 -0.16442,0.98652 -0.16361,0.0832 -0.52957,1.05914 -0.31726,0.84603 -0.40569,2.54255 0,3.35392 0.63001,1.26002 3.18097,1.37759 4.23654,1.58871 1.29474,0.25895 2.45368,0.71732 3.70697,1.05913 1.36461,0.37217 2.36033,0.4579 3.17741,1.76523 0.65671,1.05074 1.11817,2.22465 1.5887,3.35392 0.53642,1.28741 0.87523,1.48937 1.76523,2.82436 0.70872,0.32413 0.40793,1.09178 0.70609,1.58871 0.47288,0.78814 1.15459,1.43131 1.76522,2.11827 0.85165,0.9581 0.79024,0.3867 1.5887,0.70609 0.19698,0.0788 0.33457,0.26947 0.52957,0.35304 0.22299,0.0956 0.50036,0.0479 0.70609,0.17652 0.28226,0.17642 0.45868,0.48343 0.70609,0.70609 0.34159,0.30743 0.75651,0.53676 1.05914,0.88262 1.47693,1.68792 -1.62807,-0.92198 0.52956,1.23565 0.18607,0.18608 0.49838,0.19149 0.70609,0.35305 0.32843,0.25544 0.58841,0.58841 0.88262,0.88261 0.96718,0.38881 1.1153,1.46835 1.76522,2.11827 1.26984,1.26984 4.15635,2.48735 6.00177,2.11827 2.06089,-0.41218 2.04066,-1.48094 3.1774,-2.82436 0.29685,-0.35082 0.73418,-0.55765 1.05914,-0.88261 0.17672,-0.17673 2.41824,-2.66514 2.47131,-2.82436 0.0744,-0.22329 -0.0571,-0.47775 0,-0.70609 0.15443,-0.61773 0.80924,-1.83116 1.41218,-2.11827 1.02602,-0.48858 2.08718,-0.915 3.17741,-1.23566 4.2291,-1.24385 1.41764,0.29621 5.11915,-1.41218 2.95216,-1.36253 1.63575,-0.95732 4.23654,-2.64784 2.19127,-1.42432 3.03449,-1.73203 5.11915,-3.70697 0.39382,-0.37309 0.69518,-0.83338 1.05914,-1.23566 0.48096,-0.53159 3.20086,-3.0978 3.70697,-4.23654 0.2552,-0.5742 0.35177,-1.49597 0.52957,-2.11827 0.26499,-0.92749 1.45024,-3.0848 1.94174,-3.88349 0.29093,-0.47276 0.53585,-0.97872 0.88262,-1.41218 1.08348,-1.35435 2.53221,-2.44159 3.53045,-3.8835 0.22467,-0.32453 0.28299,-0.75091 0.52956,-1.05913 0.23537,-0.29421 0.64404,-0.41449 0.88262,-0.70609 1.91396,-2.33928 -0.67611,-0.15205 1.76522,-2.47132 1.39605,-1.32624 4.41669,-3.36191 5.29568,-5.29567 0.27687,-0.60911 0.63639,-2.79632 0.70609,-3.35393 0.0169,-0.13505 0.0244,-2.56746 -0.17653,-2.64784 -1.8404,-0.73616 -2.94664,1.09994 -4.23654,2.11827 -0.27067,0.21369 -2.95402,2.06628 -3.35392,2.2948 -1.61139,0.92079 -0.1479,-0.31329 -1.94175,0.88261 -0.83788,0.55859 -1.52913,1.4704 -2.29479,2.11827 -0.44919,0.38008 -0.96543,0.6762 -1.41218,1.05913 -0.37909,0.32493 -0.67558,0.73951 -1.05914,1.05914 -1.09573,0.9131 -3.23175,2.45404 -4.58958,2.82436 -0.51091,0.13934 -1.05914,0 -1.58871,0 -1.47102,0 -2.94204,0 -4.41306,0 -0.76493,0 -1.54471,-0.15002 -2.29479,0 -0.25804,0.0516 -0.45645,0.26983 -0.70609,0.35304 -1.72501,0.57501 -2.74636,0.74943 -4.41306,-0.17652 -1.23579,-0.68655 -2.65181,-1.73707 -3.35393,-3.00088 -0.11782,-0.21208 -0.0913,-0.47893 -0.17652,-0.70609 -0.0924,-0.24639 -0.30144,-0.44806 -0.35305,-0.70609 -7.8e-4,-0.004 0.0677,-1.6024 -0.17652,-1.76523 -0.37492,-0.24994 -0.86642,-0.20535 -1.23566,-0.35304 -0.19698,-0.0788 -0.33981,-0.25817 -0.52957,-0.35305 -0.82801,-0.414 -1.78652,-0.5955 -2.64783,-0.88261 -1.03573,-0.34524 -1.95625,-1.06397 -3.00089,-1.41218 -0.16746,-0.0558 -0.35831,0.0428 -0.52956,0 -0.3195,0.1064 -0.32831,-0.28596 -0.52957,-0.35304 -0.60632,-0.20211 -4.54745,0 -5.29568,0 z"
       id="path6" />
  </g>
</svg>
