<?xml version="1.0" encoding="UTF-8" standalone="no"?>
<svg
   width="200"
   height="200"
   version="1.1"
   id="svg1"
   sodipodi:docname="moon_delta_1.svg"
   inkscape:version="1.4 (86a8ad7, 2024-10-11)"
   xmlns:inkscape="http://www.inkscape.org/namespaces/inkscape"
   xmlns:sodipodi="http://sodipodi.sourceforge.net/DTD/sodipodi-0.dtd"
   xmlns="http://www.w3.org/2000/svg"
   xmlns:svg="http://www.w3.org/2000/svg">
  <defs
     id="defs1" />
  <sodipodi:namedview
     id="namedview1"
     pagecolor="#ffffff"
     bordercolor="#000000"
     borderopacity="0.25"
     inkscape:showpageshadow="2"
     inkscape:pageopacity="0.0"
     inkscape:pagecheckerboard="true"
     inkscape:deskcolor="#d1d1d1"
     inkscape:zoom="4"
     inkscape:cx="62.25"
     inkscape:cy="83.875"
     inkscape:window-width="2560"
     inkscape:window-height="1351"
     inkscape:window-x="-9"
     inkscape:window-y="-9"
     inkscape:window-maximized="1"
     inkscape:current-layer="svg1" />
  <path
     style="fill:#000000;stroke-width:0.377953;stroke-dasharray:0.377953, 0.377953;paint-order:stroke fill markers"
     d="m 123.5,28 c -3.7942,-4.046629 -9.70504,-4.923449 -14.75,-6.5 -1.93693,-0.605289 -3.79539,-1.454526 -5.75,-2 -4.972264,-1.387609 -9.88197,-1.75 -15,-1.75 -2.606265,0 -6.138544,-0.196388 -8.75,0.5 -1.226438,0.32705 -2.343201,0.977575 -3.5,1.5 -7.431192,3.356022 -13.981725,8.541565 -20,14 -3.969924,3.600629 -6.431281,6.125391 -10,10 -1.439359,1.562733 -3.050277,2.996559 -4.25,4.75 -3.955745,5.781473 -2.042012,11.33817 -2.5,17.75 -0.303378,4.247287 -2.271044,8.477963 -3.5,12.5 -1.555642,5.091192 -2.881601,10.351202 -5,15.25 -1.674256,3.871718 -4.343118,7.48027 -5,11.75 -0.619927,4.02953 1.271564,8.63815 1.5,12.75 0.04423,0.79615 -0.0575,5.29 0,5.75 0.52192,4.17536 1.27381,5.28846 2.5,9.25 0.616008,1.99018 0.961182,4.07178 1.75,6 0.720205,1.7605 1.791578,3.35699 2.75,5 1.244261,2.13302 4.211181,6.76883 5.75,8.5 1.891373,2.12779 8.742659,8.07256 10.75,9.5 5.072705,3.60726 13.339828,6.10829 19.25,7.75 9.831034,2.73084 18.832555,3.93716 29,4.25 1.213196,0.0373 10.63636,0.0927 12.75,-0.25 6.9665,-1.1297 10.45294,-6.58117 16.5,-9 1.27607,-0.51043 2.64917,-0.74672 4,-1 1.32069,-0.24763 2.67796,-0.25963 4,-0.5 6.08707,-1.10674 12.27592,-2.81746 17.75,-5.75 2.73507,-1.46521 3.54026,-2.25768 6,-4 2.8876,-2.04539 7.84985,-5.44969 9.5,-8.75 1.17841,-2.35683 0.75,-6.04061 0.75,-8.5 0,-1.34831 0.083,-4.66782 -0.25,-6 -0.18078,-0.7231 -0.77768,-1.28857 -1,-2 -0.0613,-0.19606 -0.3991,-2.70331 -0.25,-3.25 0.51146,-1.87536 1.56593,-2.06593 3,-3.5 1.41912,-1.41912 2.74628,-2.93285 4,-4.5 4.17266,-5.21583 3.5,-7.10766 3.5,-13.5 0,-3.71777 0.3434,-3.75716 -1,-7.25 -0.40135,-1.043512 -1.01619,-1.992067 -1.5,-3 -0.44123,-0.919229 -2.09804,-4.663408 -2.75,-5.75 -0.52335,-0.872253 -1.20682,-1.639958 -1.75,-2.5 -0.45815,-0.725403 -0.74263,-1.558129 -1.25,-2.25 -1.02113,-1.392454 -2.21519,-2.000706 -3.5,-3 -2.01342,-1.565993 0.14243,-0.558676 -2.5,-2 -2.02222,-1.103027 -6.40844,-1.097588 -8.5,-0.5 -1.66755,0.476443 -6.69762,3.342328 -8,4.5 -0.75,0.666667 -1.34695,1.488112 -2,2.25 -0.84714,0.988331 -1.73437,1.947262 -2.5,3 -0.5716,0.78595 -0.98105,1.678333 -1.5,2.5 -4.15505,6.578832 -7.40222,14.42508 -14.25,18.75 -2.65731,1.6783 -5.76552,2.21461 -8.75,3 -0.91886,0.24181 -1.90016,0.32508 -2.75,0.75 -1.40685,0.70342 -2.43467,3.24097 -3.5,4.5 -0.51744,0.61153 -4.32356,3.69253 -5,4 -0.46146,0.20976 -1.01096,0.11663 -1.5,0.25 -0.43295,0.11808 -0.80995,0.41199 -1.25,0.5 -3.26265,0.65253 -8.837126,-1.96811 -11.25,-4 -0.901456,-0.75912 -1.621725,-1.71417 -2.5,-2.5 -0.708088,-0.63355 -1.531985,-1.12772 -2.25,-1.75 -2.331414,-2.02056 -4.169926,-4.49659 -6.25,-6.75 -0.479616,-0.51958 -1.063134,-0.94399 -1.5,-1.5 -1.474143,-1.87618 -1.030906,-1.81181 -2,-3.75 -0.65192,-1.30384 -1.694967,-2.402062 -2.25,-3.75 -0.341779,-0.830034 -1.158544,-6.03971 -1.25,-7 -0.147175,-1.545338 -0.04333,-3.755848 0.5,-5.25 1.003875,-2.760655 3.255572,-6.377786 6,-7.75 2.540095,-1.270047 5.495758,-1.901562 8,-3.25 2.919223,-1.571889 5.582242,-3.559812 8.25,-5.5 0.48599,-0.353447 1.075082,-0.575082 1.5,-1 1.57354,-1.573541 1.33516,-3.603284 2.25,-5.25 0.14592,-0.262652 0.53754,-0.287541 0.75,-0.5 0.21246,-0.212459 0.26918,-0.557648 0.5,-0.75 1.18577,-0.988139 3.08917,-1.279724 4.5,-1.75 2.45118,-0.817059 1.71308,-0.886488 4.5,-1.25 3.88414,-0.506627 2.5297,0.09552 6.25,-0.75 0.84839,-0.192816 1.65363,-0.548484 2.5,-0.75 1.66201,-0.395716 3.64305,-0.357219 5.25,-1 0.56212,-0.224849 1.66942,-1.103304 2,-1.5 0.1687,-0.202444 0.11442,-0.524031 0.25,-0.75 0.76262,-1.271028 0.39602,0.513254 1,-1.5 0.73932,-2.464393 0.58157,-5.223501 0.75,-7.75 0.12509,-1.876312 0.62792,-4.110416 0.25,-6 -0.088,-0.440049 -0.40265,-0.811923 -0.5,-1.25 -0.0723,-0.325396 0.11704,-0.68789 0,-1 -0.17974,-0.479307 -3.19193,-3.39395 -4,-4 -0.61479,-0.461093 -0.48971,0.01544 -1,-0.75 -0.14436,-0.216538 -0.12898,-0.757959 -0.25,-1 -0.0833,-0.166667 -0.41667,-0.08333 -0.5,-0.25 -0.0745,-0.149071 0,-0.333333 0,-0.5 -0.41667,-0.583333 -0.83333,-1.166667 -1.25,-1.75 z"
     id="path1" />
</svg>
