<?xml version="1.0" encoding="UTF-8" standalone="no"?>
<svg
   width="200"
   height="200"
   version="1.1"
   id="svg1"
   sodipodi:docname="moon_delta_2.svg"
   inkscape:version="1.4 (86a8ad7, 2024-10-11)"
   xmlns:inkscape="http://www.inkscape.org/namespaces/inkscape"
   xmlns:sodipodi="http://sodipodi.sourceforge.net/DTD/sodipodi-0.dtd"
   xmlns="http://www.w3.org/2000/svg"
   xmlns:svg="http://www.w3.org/2000/svg">
  <defs
     id="defs1" />
  <sodipodi:namedview
     id="namedview1"
     pagecolor="#ffffff"
     bordercolor="#000000"
     borderopacity="0.25"
     inkscape:showpageshadow="2"
     inkscape:pageopacity="0.0"
     inkscape:pagecheckerboard="true"
     inkscape:deskcolor="#d1d1d1"
     inkscape:zoom="4"
     inkscape:cx="52.5"
     inkscape:cy="88.875"
     inkscape:window-width="2400"
     inkscape:window-height="1261"
     inkscape:window-x="3191"
     inkscape:window-y="-9"
     inkscape:window-maximized="1"
     inkscape:current-layer="svg1" />
  <path
     style="fill:#000000;stroke-width:0.377953;stroke-dasharray:0.377953, 0.377953;paint-order:stroke fill markers"
     d="M 101.75,36.25 C 94.452145,32.696446 86.654399,36.071968 80.25,40 c -7.90956,4.851197 -14.08106,10.313654 -21,16.5 -9.366233,8.374514 -18.757806,16.143538 -23.75,28 -2.689192,6.386831 -6.046855,22.43313 -0.5,28.5 1.721249,1.88262 3.711433,3.62332 6,4.75 8.043509,3.95988 17.988929,3.16186 25.5,8.25 5.060751,3.42825 2.896098,11.7922 5.5,17 8.048054,16.09611 21.559005,16.33474 39,16.75 5.63189,0.13409 11.30363,-0.81015 16.75,-2.25 1.96685,-0.51997 3.38747,-2.25959 5,-3.5 2.16924,-1.66864 8.94643,-7.62361 10.5,-9.25 6.46265,-6.76559 9.95871,-9.19708 12.75,-16.75 0.74996,-2.02931 1.48166,-4.10325 1.75,-6.25 1.00491,-8.03927 -1.60913,-15.85943 -2.5,-23.75 -0.29043,-2.572361 -0.23809,-5.174579 -0.5,-7.75 -0.69235,-6.808154 -1.1949,-7.6815 -2.75,-14.5 -1.48023,-6.49023 -2.80619,-13.002857 -4.25,-19.5 -0.6197,-2.788667 -1.30079,-7.115989 -3.75,-9 -0.74722,-0.574787 -3.5067,-1.569666 -4.25,-2 -2.95321,-1.709754 -1.74729,-1.749097 -4.75,-2.75 -3.57471,-1.191569 -7.08004,-1.111746 -10.75,-1.75 -1.32388,-0.23024 -3.26822,-0.711095 -4.5,-1.25 -2.9998,-1.312412 -0.49117,-0.747593 -3.25,-1.5 -1.43632,-0.391725 -2.79336,-0.137951 -4.25,-0.25 -1.58161,-0.121662 -2.96083,-0.743472 -4.5,-1 -1.20644,-0.201074 -2.55007,0.239986 -3.75,0 -0.18272,-0.03654 -0.33333,-0.166667 -0.5,-0.25 -0.58333,-0.08333 -1.16667,-0.166667 -1.75,-0.25 z"
     id="path1" />
</svg>
