<?xml version="1.0" encoding="UTF-8" standalone="no"?>
<svg
   width="200"
   height="200"
   version="1.1"
   id="svg1"
   sodipodi:docname="moon_alpha_1.svg"
   inkscape:version="1.4 (86a8ad7, 2024-10-11)"
   xmlns:inkscape="http://www.inkscape.org/namespaces/inkscape"
   xmlns:sodipodi="http://sodipodi.sourceforge.net/DTD/sodipodi-0.dtd"
   xmlns="http://www.w3.org/2000/svg"
   xmlns:svg="http://www.w3.org/2000/svg">
  <defs
     id="defs1" />
  <sodipodi:namedview
     id="namedview1"
     pagecolor="#ffffff"
     bordercolor="#000000"
     borderopacity="0.25"
     inkscape:showpageshadow="2"
     inkscape:pageopacity="0.0"
     inkscape:pagecheckerboard="true"
     inkscape:deskcolor="#d1d1d1"
     inkscape:zoom="2"
     inkscape:cx="-66"
     inkscape:cy="58.25"
     inkscape:window-width="2560"
     inkscape:window-height="1351"
     inkscape:window-x="-9"
     inkscape:window-y="-9"
     inkscape:window-maximized="1"
     inkscape:current-layer="svg1" />
  <path
     style="fill:#000000;stroke-width:0.377953;stroke-dasharray:0.377953, 0.377953;paint-order:stroke fill markers"
     d="m 146.75,107.25 c 1.88885,2.39975 3.61015,4.92309 5.25,7.5 0.58333,0.91667 1.29245,1.7645 1.75,2.75 1.46866,3.16326 1.7424,4.09876 1.5,7.25 -0.15351,1.9957 -1.09789,4.66268 -0.75,6.75 0.12379,0.74272 2.99269,3.28497 3.5,3.75 0.52125,0.47781 1,1 1.5,1.5 0.58333,0.41667 1.22156,0.7656 1.75,1.25 0.47978,0.4398 0.78978,1.03978 1.25,1.5 0.46022,0.46022 1.10317,0.73412 1.5,1.25 1.52162,1.97811 1.91909,4.67638 2.5,7 0.21101,0.84405 0.57077,1.64864 0.75,2.5 0.10721,0.50927 0.30559,3.31957 0.5,4 0.42424,1.48484 1.4832,2.82881 2,4.25 0.35226,0.96872 0.47879,2.00554 0.75,3 0.65116,2.3876 1.70664,4.28286 2.75,6.5 0.5427,1.15324 1.09907,2.61087 1.75,3.75 0.39005,0.68258 0.92055,1.28619 1.25,2 0.0167,0.0362 0.51113,1.98887 0.25,2.25 -0.36182,0.36182 -2.36317,0.67264 -2.75,0.75 -2.04626,0.40925 0.0535,-0.0267 -2,1 -0.14907,0.0745 -0.38215,-0.11785 -0.5,0 -0.18634,0.18634 -0.14619,0.50778 -0.25,0.75 -0.70543,1.646 -1.20394,3.47362 -1.5,5.25 -0.0685,0.411 0.0904,0.84326 0,1.25 -0.22931,1.03191 -1.15443,1.74266 -2,2.25 -1.71326,1.02796 -7.17234,1.16383 -9,0.25 -0.31623,-0.15811 -0.45019,-0.56262 -0.75,-0.75 -0.38055,-0.23784 -0.84861,-0.29931 -1.25,-0.5 -1.27574,-0.63787 -2.92957,-2.04851 -4,-3 -3.01617,-2.68104 -4.67277,-1.94108 -5.75,-6.25 -0.20612,-0.82446 -0.40615,-1.65536 -0.5,-2.5 -0.0515,-0.46333 0.18069,-1.70794 0,-2.25 -0.38476,-1.1543 -0.95883,-2.16765 -1.5,-3.25 -1.25224,-2.50448 -1.95836,-4.95836 -4,-7 -2.06933,-2.06933 -4.78826,-3.71141 -7.25,-5.25 -1.08585,-0.67866 -2.63938,-1.46725 -3.5,-2.5 -0.1687,-0.20244 -0.15747,-0.50326 -0.25,-0.75 -1.29318,-3.44848 0.11941,-6.32471 0.5,-9.75 0.0828,-0.74541 0,-1.5 0,-2.25 0,-0.41667 0.0904,-0.84326 0,-1.25 -0.39639,-1.78377 -2.03334,-2.87024 -3.25,-4 -0.25163,-0.23366 -2.63137,-2.65294 -2.75,-2.75 -0.93018,-0.76106 -2.06151,-1.24921 -3,-2 -0.27608,-0.22086 -0.46716,-0.53787 -0.75,-0.75 -0.38873,-0.29155 -0.88107,-0.43377 -1.25,-0.75 -0.77294,-0.66252 -1.95015,-2.91043 -2.25,-3.75 -0.19819,-0.55493 -0.12653,-1.17382 -0.25,-1.75 -0.64438,-3.0071 -0.13285,-0.7657 -1,-2.5 -0.0745,-0.14907 0.15319,-0.43435 0,-0.5 -1.67911,-0.71962 -3.53442,-0.75983 -5.25,-1.25 -1.96902,-0.56258 -1.48263,-0.68784 -3,-1.75 -0.73845,-0.51691 -1.44377,-1.09689 -2.25,-1.5 -0.30732,-0.15366 -0.68419,-0.11465 -1,-0.25 -0.24842,-0.10646 -1.68597,-1.18597 -1.75,-1.25 -0.13176,-0.13176 -0.11824,-0.36824 -0.25,-0.5 -0.17678,-0.17678 -0.53294,-0.12403 -0.75,0 -1.12132,0.64076 -5.044609,5.0381 -5.75,6 -1.258082,1.71557 -1.973955,5.02036 -4.5,5.25 -3.3305,0.30277 -6.934972,0.0263 -10.25,-0.25 -3.115315,-0.25961 0.149676,-0.14172 -2,-0.5 -3.905988,-0.651 -7.671061,-2.20322 -11.75,-1.75 -0.77608,0.0862 -0.260296,0.25515 -0.75,0.5 -0.235702,0.11785 -0.549918,0.0785 -0.75,0.25 -0.405134,0.34726 -0.648626,0.84843 -1,1.25 -1.372481,1.56855 -2.49645,3.16016 -3.5,5 -0.886189,1.62468 -1.519767,3.43163 -2.5,5 -0.457181,0.73149 -1.211472,0.71147 -1.75,1.25 -0.294628,0.29463 -0.421103,0.74419 -0.75,1 -0.441261,0.3432 -1.011331,0.47852 -1.5,0.75 -0.262651,0.14592 -0.464956,0.40499 -0.75,0.5 -0.237171,0.0791 -0.512829,-0.0791 -0.75,0 -0.07906,0.0264 0.05,0.18333 0,0.25 -0.212132,0.28284 -0.5,0.5 -0.75,0.75 -0.25,0.5 -0.449877,1.02838 -0.75,1.5 -0.07367,0.11576 -1.606441,1.96288 -1.75,2.25 -0.07454,0.14907 0.07454,0.35093 0,0.5 -0.29237,0.58474 -2.241355,1.49568 -2.25,1.5 -0.397693,0.19885 -2.399962,0.94166 -2.75,1 -0.232865,0.0388 -4.861765,0.15529 -5.25,0 -0.278972,-0.11159 -0.473831,-0.38164 -0.75,-0.5 -1.459003,-0.62529 -3.037714,-1.0751 -4.5,-1.75 -5.173001,-2.38754 0.744995,0.31545 -3.5,-2 -1.139961,-0.6218 -1.779623,-0.75 -3,-0.75 -0.416667,0 -0.854715,0.13176 -1.25,0 -0.176777,-0.0589 -0.08333,-0.41667 -0.25,-0.5 -1.512381,-0.75619 -0.02381,1.46032 -1.5,-1 -1.431697,-2.38616 -1.829065,-5.76504 -2,-8.5 -0.09206,-1.47303 0.02571,-3.14251 -0.75,-4.5 -0.147585,-0.25827 -1.671178,-2.17118 -1.75,-2.25 -0.377308,-0.37731 -0.898626,-0.59843 -1.25,-1 -0.517693,-0.59165 -0.738371,-1.4031 -1.25,-2 -0.42357,-0.49417 -0.789777,-1.03978 -1.25,-1.5 -0.131762,-0.13176 -0.388197,-0.10093 -0.5,-0.25 -0.158114,-0.21082 -0.0813,-0.54756 -0.25,-0.75 -0.266743,-0.32009 -0.705372,-0.45537 -1,-0.75 -0.55712,-0.55712 -2.216656,-2.83886 -2.5,-3.5 -0.19696,-0.45957 0,-1 0,-1.5 0,-0.66667 -0.270759,-1.39079 0,-2 0.289364,-0.65107 2.139161,-2.79187 2.75,-3.25 1.035191,-0.77639 1.07918,-0.17571 2,-1.25 0.242536,-0.28296 0.283385,-0.69674 0.5,-1 0.455758,-0.63806 1.345153,-1.07525 1.75,-1.75 1.184052,-1.97342 0.75,-4.5225 0.75,-6.75 0,-0.265651 -0.05448,-3.445525 0,-3.5 0.117851,-0.117851 0.333333,0 0.5,0 0.75,0 1.522393,-0.181902 2.25,0 0.291492,0.07287 0.468668,0.394501 0.75,0.5 1.118179,0.419317 2.225419,0.518156 3.25,1.25 0.671296,0.479497 1.129156,1.206762 1.75,1.75 1.832558,1.603488 3.448402,3.7636 5.75,4.75 2.76179,1.18362 5.807508,0.75 8.75,0.75 0.283231,0 1.597441,-0.17372 1.75,-0.25 0.316228,-0.15811 0.446831,-0.5681 0.75,-0.75 0.142916,-0.0858 0.341886,0.0527 0.5,0 0.707107,-0.2357 1.321453,-0.69157 2,-1 1.428401,-0.64927 2.250752,-0.95482 3.75,-1.5 0.247657,-0.09006 0.514298,-0.132149 0.75,-0.25 0.105409,-0.0527 0.133059,-0.264617 0.25,-0.25 2.134117,0.266765 2.647476,1.42497 3.75,3 0.183917,0.26274 1.52035,1.84811 1.75,2.25 1.422808,2.48991 -0.341845,1.45408 2.75,3 0.105409,0.0527 0.134438,0.22689 0.25,0.25 2.343961,0.46879 4.264001,-0.4408 6.25,-1.5 1.315334,-0.70151 2.721725,-1.23303 4,-2 1.963717,-1.17823 1.359102,-1.35773 3.5,-2 1.892721,-0.56782 3.902269,1.13549 5.5,1.75 0.5,0.16667 1,0.33333 1.5,0.5 0.416667,0.25 0.798842,0.56954 1.25,0.75 0.679393,0.27176 4.667251,0.8885 5.25,0.5 1.490654,-0.99377 2.91717,-2.55045 4.25,-3.75 0.668804,-0.60192 1.678776,-1.28597 2.25,-2 0.187698,-0.23462 0.287541,-0.537541 0.5,-0.75 0.922357,-0.922357 0.680883,-0.02132 1.5,-1.25 0.146176,-0.219264 0.103824,-0.530735 0.25,-0.75 0.04623,-0.06934 0.212732,0.07454 0.25,0 0.25,-0.5 -0.125,-0.375 0,-0.75 0.05893,-0.176777 0.25,-0.313661 0.25,-0.5 0,-0.186339 -0.223648,-0.315534 -0.25,-0.5 -0.308331,-2.158316 0.180924,-2.148845 -1.5,-4.25 C 95.707154,90.821442 94.629469,90.524557 94,90 c -0.230822,-0.192351 -0.269178,-0.557648 -0.5,-0.75 -0.286299,-0.238582 -0.701857,-0.276393 -1,-0.5 -0.377123,-0.282843 -0.622876,-0.717157 -1,-1 C 90.717088,87.162816 89.550288,86.917146 89,86 87.231755,83.052925 88.839469,79.472389 89.5,76.5 89.750509,75.372712 90.170398,74.442783 90,73.25 89.708627,71.210392 88.750395,70.750395 87.5,69.5 87.287541,69.287541 87.234622,68.937698 87,68.75 86.73401,68.537208 85.674811,68.67481 85.5,68.5 c -0.05893,-0.05893 0,-0.166667 0,-0.25 -0.333333,-0.08333 -0.705372,-0.07322 -1,-0.25 -0.159784,-0.09587 -0.100929,-0.388196 -0.25,-0.5 -0.75447,-0.565852 -2.117251,-0.45575 -3,-0.75 -2.089884,-0.696628 -4.290391,-1.08003 -6.5,-1.25 -1.698032,-0.130618 -3.563337,0.281111 -5.25,0 C 68.301796,65.300299 68.509263,65.169755 67.25,64.75 66.157617,64.385872 64.764362,64.108618 63.75,63.5 62.283188,62.619913 61.733551,61.467101 61,60 60.782693,59.565387 60.430464,59.201159 60.25,58.75 59.152719,56.006797 61.057089,59.114178 59.5,56 59.394591,55.789182 59.074536,55.723607 59,55.5 c -0.105409,-0.316228 0.09157,-0.679492 0,-1 -0.194024,-0.679083 -1.012775,-1.156937 -1.25,-1.75 -0.09285,-0.232119 0.09848,-0.520214 0,-0.75 C 57.585867,51.617023 57.220833,51.353333 57,51 56.604962,50.367939 56.433229,49.606521 56,49 55.794501,48.712302 55.470863,48.526079 55.25,48.25 54.675042,47.531303 55.351819,47.902728 54.75,47 54.70378,46.93066 54.546225,47.06934 54.5,47 54.023053,46.284579 53.766521,44.817178 54,44 c 0.08254,-0.288902 0.377971,-0.475434 0.5,-0.75 1.286791,-2.895279 -0.443071,-0.279347 1.5,-2.5 0.548754,-0.627147 0.957674,-1.367286 1.5,-2 2.075151,-2.421009 4.948713,-2.959401 8,-3.25 4.494433,-0.428041 9.399332,0.881501 13.75,-0.75 1.737613,-0.651605 4.772942,-2.142206 6.25,-3.25 1.03709,-0.777817 1.746671,-1.929094 2.75,-2.75 0.376076,-0.307698 0.851925,-0.471347 1.25,-0.75 1.142976,-0.800083 3.64921,-2.881603 5,-3.25 0.482382,-0.131559 1,0 1.5,0 1.487724,0 5.19795,0.325513 6.5,0 0.6157,-0.153925 1.14424,-0.5607 1.75,-0.75 0.73332,-0.229163 1.50765,-0.302039 2.25,-0.5 2.07629,-0.553678 1.01749,-0.287245 2.75,-1.5 2.06235,-1.443643 5.51551,-3.707708 8,-4 3.03686,-0.357277 1.74956,0.03117 4.25,0.5 2.99991,0.562482 6.44828,0.805172 9.5,0.5 2.01013,-0.201013 3.62673,-1.40396 5.5,-2 0.37158,-0.11823 4.99294,-1.160934 5.75,-1.25 3.65773,-0.430321 6.50628,0.783604 9.75,2 1.5766,0.591226 4.18275,1.303442 5.75,2 2.47202,1.098675 4.85796,3.107956 6.75,5 0.62639,0.626387 1.12361,1.373613 1.75,2 0.50387,0.503865 2.69579,1.989463 3,2.75 0.0833,0.208333 -0.0556,0.972222 0,1.25 0.0517,0.258406 0.25,0.486477 0.25,0.75 0,3.906842 -2.97225,6.555504 -1,10.5 0.62421,1.248419 1.5077,2.757703 2.5,3.75 1.61477,1.614766 0.013,-0.484389 1.25,1 0.26674,0.320092 0.45537,0.705372 0.75,1 1.58715,1.58715 3.479,2.843495 4.75,4.75 0.76557,1.148348 1.05827,2.907911 1.25,4.25 0.18235,1.276451 -1.18239,1.45493 -2,2 -0.29417,0.196116 -0.44303,0.574588 -0.75,0.75 -0.29832,0.17047 -0.70537,0.07322 -1,0.25 -0.15978,0.09587 -0.11824,0.368239 -0.25,0.5 -0.0589,0.05893 -0.19107,-0.05893 -0.25,0 -0.70942,0.709417 -0.33865,2.988045 0,3.75 0.66739,1.50163 2.54786,3.181428 3.75,4.25 2.31899,2.06132 4.55213,5.364914 5,8.5 0.0707,0.494975 0.27735,1.083975 0,1.5 -0.84263,1.263943 -2.57347,1.161737 -3.75,1.75 -0.21082,0.105409 -0.28918,0.394591 -0.5,0.5 -0.33195,0.165973 -0.91805,0.08403 -1.25,0.25 -0.0745,0.03727 0.0462,0.180663 0,0.25 -0.13074,0.196116 -0.36926,0.303884 -0.5,0.5 -0.0925,0.138675 0.0327,0.33657 0,0.5 -0.13746,0.68729 -0.43146,1.524161 -0.25,2.25 0.14796,0.591832 0.35204,0.408169 0.5,1 0.338,1.351994 -0.011,3.014645 -0.75,4 -0.0894,0.119258 -0.60442,0.208834 -0.75,0.5 -0.0745,0.149071 0.11785,0.382149 0,0.5 -0.55609,0.556088 -1.38586,0.590575 -2,1 -1.32235,0.881567 -3.71,2.288001 -5.25,2.75 -0.407,0.1221 -0.843,0.127901 -1.25,0.25 -2.02142,0.606427 -0.51841,0.349278 -2.5,1.25 -2.11952,0.963417 -5.92705,1.637158 -8.25,1.25 -1.10118,-0.18353 -4.99246,-1.49623 -6,-2 -0.0651,-0.03254 -0.30457,-0.445431 -0.5,-0.25 -0.0589,0.05893 0.0373,0.175465 0,0.25 -0.45031,0.900617 -0.77615,1.861541 -1.25,2.75 -1.34514,2.52214 -0.94643,1.00255 -2.5,3 -0.346,0.44486 -0.52995,1.0599 -0.75,1.5 -0.0527,0.10541 -0.22142,0.13567 -0.25,0.25 -0.11665,0.4666 0.12897,2.01588 0.25,2.5 0.0548,0.21922 0.4452,0.53078 0.5,0.75 0.14292,0.57166 0.16667,1.16667 0.25,1.75 z"
     id="path1" />
  <path
     style="fill:#000000;stroke-width:0.377953;stroke-dasharray:0.377953, 0.377953;paint-order:stroke fill markers"
     d="m -100.5,39.5 373,-55"
     id="path2" />
</svg>
